STARTFONT 2.1
FONT -FontForge-Frutiger LT 55 Roman-Book-R-Normal--72-690-75-75-P-389-ISO8859-1
SIZE 69 75 75
FONTBOUNDINGBOX 84 85 -12 -18
COMMENT "Generated by fontforge, http://fontforge.sourceforge.net"
COMMENT "Part of the digitally encoded machine readable outline data for producing the Typefaces provided is copyrighted (c) 1988, 1990, 1994, 2001, 2002, 2003, Linotype Library GmbH, www.linotype.com. All rights reserved. This software is the property of Linotype Library GmbH, and may not be reproduced, used, displayed, modified, disclosed or transferred Library GmbH. Copyright (c) 1988, 1990, 1994, 2001, 2002, 2003, Adobe Systems Incorporated. All rights reserved."
STARTPROPERTIES 40
FOUNDRY "FontForge"
FAMILY_NAME "Frutiger LT 55 Roman"
WEIGHT_NAME "Book"
SLANT "R"
SETWIDTH_NAME "Normal"
ADD_STYLE_NAME ""
PIXEL_SIZE 72
POINT_SIZE 690
RESOLUTION_X 75
RESOLUTION_Y 75
SPACING "P"
AVERAGE_WIDTH 389
CHARSET_REGISTRY "ISO8859"
CHARSET_ENCODING "1"
FONTNAME_REGISTRY ""
CHARSET_COLLECTIONS "ISOLatin1Encoding"
FONT_NAME "FrutigerLT-Roman"
FACE_NAME "Frutiger LT 55 Roman"
COPYRIGHT "Part of the digitally encoded machine readable outline data for producing the Typefaces provided is copyrighted (c) 1988, 1990, 1994, 2001, 2002, 2003, Linotype Library GmbH, www.linotype.com. All rights reserved. This software is the property of Linotype Library GmbH, and may not be reproduced, used, displayed, modified, disclosed or transferred Library GmbH. Copyright (c) 1988, 1990, 1994, 2001, 2002, 2003, Adobe Systems Incorporated. All rights reserved."
FONT_VERSION "6.04"
FONT_ASCENT 58
FONT_DESCENT 14
UNDERLINE_POSITION -9
UNDERLINE_THICKNESS 4
X_HEIGHT 36
CAP_HEIGHT 49
RAW_ASCENT 800
RAW_DESCENT 200
NORM_SPACE 20
RELATIVE_WEIGHT 40
RELATIVE_SETWIDTH 50
SUPERSCRIPT_X 0
SUPERSCRIPT_Y 20
SUPERSCRIPT_SIZE 14
SUBSCRIPT_X 0
SUBSCRIPT_Y 20
SUBSCRIPT_SIZE 14
FIGURE_WIDTH 40
AVG_LOWERCASE_WIDTH 385
AVG_UPPERCASE_WIDTH 465
ENDPROPERTIES
CHARS 232
STARTCHAR space
ENCODING 32
SWIDTH 278 0
DWIDTH 20 0
BBX 1 1 0 0
BITMAP
00
ENDCHAR
STARTCHAR exclam
ENCODING 33
SWIDTH 389 0
DWIDTH 28 0
BBX 8 50 10 0
BITMAP
FF
FF
FF
FF
FF
FF
FF
FF
FF
FF
FF
FF
FF
FF
FF
FF
FF
FF
FF
7F
7F
7F
7E
7E
7E
7E
7E
7E
7E
7E
7E
7E
7E
7E
7E
7E
00
00
00
00
00
00
FF
FF
FF
FF
FF
FF
FF
FF
ENDCHAR
STARTCHAR quotedbl
ENCODING 34
SWIDTH 556 0
DWIDTH 40 0
BBX 17 18 11 32
BITMAP
FC1F80
FC1F80
FC1F80
FC1F80
FC1F80
FC1F80
FC1F80
FC1F80
FC1F80
FC1F80
FC1F80
FC1F80
FC1F80
FC1F80
FC1F80
FC1F80
FC1F80
FC1F80
ENDCHAR
STARTCHAR numbersign
ENCODING 35
SWIDTH 556 0
DWIDTH 40 0
BBX 36 50 2 0
BITMAP
000FC03F00
000F803E00
000F803E00
000F803E00
001F807E00
001F807E00
001F807E00
001F807C00
001F007C00
001F007C00
001F007C00
003F00FC00
003F00FC00
003F00FC00
003F00F800
3FFFFFFFF0
3FFFFFFFF0
3FFFFFFFF0
3FFFFFFFF0
3FFFFFFFF0
007E01F800
007E01F000
007C01F000
007C01F000
007C01F000
00FC03F000
00FC03F000
00FC03F000
00FC03F000
00F803E000
FFFFFFFFC0
FFFFFFFFC0
FFFFFFFFC0
FFFFFFFFC0
FFFFFFFFC0
01F807E000
01F007C000
01F007C000
01F007C000
01F00FC000
03F00FC000
03F00FC000
03F00FC000
03E00F8000
03E00F8000
03E00F8000
07E01F8000
07E01F8000
07E01F8000
07E01F8000
ENDCHAR
STARTCHAR dollar
ENCODING 36
SWIDTH 556 0
DWIDTH 40 0
BBX 29 65 5 -7
BITMAP
00078000
00078000
00078000
00078000
00078000
00078000
00078000
000FFC00
007FFFC0
01FFFFE0
07FFFFE0
0FFFFFE0
1FFFFFE0
1FFF8FE0
3FF780C0
7FC78000
7F878000
7F078000
7F078000
FE078000
FE078000
FF078000
7F078000
7F878000
7FC78000
7FE78000
3FFF8000
3FFF8000
1FFF8000
0FFFE000
07FFF000
01FFFC00
00FFFE00
003FFF80
000FFFC0
0007FFE0
0007FFE0
0007BFF0
00079FF0
00078FF0
000787F8
000783F8
000783F8
000783F8
000783F8
000783F8
000783F8
000787F8
000787F0
00078FF0
30079FF0
3C07FFE0
7FFFFFC0
7FFFFFC0
7FFFFF80
7FFFFE00
7FFFFC00
0FFFE000
00078000
00078000
00078000
00078000
00078000
00078000
00078000
ENDCHAR
STARTCHAR percent
ENCODING 37
SWIDTH 1000 0
DWIDTH 72 0
BBX 55 54 8 -2
BITMAP
00000000007C00
01FC000000FC00
07FF000000F800
1FFF800001F000
1FFFC00001F000
3FFFE00003E000
7F8FF00007E000
7F03F00007C000
7E03F0000F8000
7E01F0000F8000
FC01F8001F0000
FC01F8001F0000
FC01F8003E0000
FC01F8007E0000
FC01F8007C0000
FC01F800F80000
FC01F800F80000
FC01F801F00000
FC01F803F00000
FC01F803E00000
FC01F807E00000
7E03F007C00000
7E03F00F800000
7F07F00F800000
3F8FE01F007F00
3FFFE03F01FFC0
1FFFC03E07FFE0
0FFF807E07FFF0
07FF007C0FFFF8
01FC00F81FE3FC
000000F81FC0FC
000001F01F80FC
000003F01F807C
000003E03F007E
000007C03F007E
000007C03F007E
00000F803F007E
00000F803F007E
00001F003F007E
00003F003F007E
00003E003F007E
00007C003F007E
00007C003F007E
0000F8003F007E
0001F8001F80FC
0001F0001F80FC
0003F0001FC1FC
0003E0000FE3F8
0007C0000FFFF8
0007C00007FFF0
000F800003FFE0
001F800001FFC0
001F0000007F00
003E0000000000
ENDCHAR
STARTCHAR ampersand
ENCODING 38
SWIDTH 722 0
DWIDTH 52 0
BBX 44 52 6 -1
BITMAP
0001FE000000
000FFFC00000
003FFFF00000
007FFFF80000
00FFFFFC0000
00FFFFFC0000
01FE01FE0000
01FC00FE0000
03FC00FE0000
03F8007E0000
03F8007F0000
03F8007F0000
03F8007F0000
03F8007E0000
03F800FE0000
01FC00FE0000
01FC01FC0000
01FE03FC0000
00FF07F80000
00FF1FF00000
007FFFE00000
003FFFC00000
001FFF000000
001FFE000000
007FF8003F80
01FFF8003F80
03FFFC003F00
0FFFFE003F00
1FF8FF007F00
3FF0FF807F00
3FC07FC07F00
7F803FE07E00
7F801FF07E00
7F000FF8FE00
FE0007F8FC00
FE0007FDFC00
FE0003FFFC00
FE0001FFF800
FE0000FFF800
FE00007FF000
FF00003FE000
FF00001FE000
7F80003FF000
7FC0007FF800
7FE000FFFC00
3FF003FFFE00
1FFFBFFDFF00
0FFFFFF8FF80
07FFFFF0FF80
03FFFFE07FC0
00FFFF803FE0
001FF8000010
ENDCHAR
STARTCHAR quotesingle
ENCODING 39
SWIDTH 278 0
DWIDTH 20 0
BBX 6 18 7 32
BITMAP
FC
FC
FC
FC
FC
FC
FC
FC
FC
FC
FC
FC
FC
FC
FC
FC
FC
FC
ENDCHAR
STARTCHAR parenleft
ENCODING 40
SWIDTH 333 0
DWIDTH 24 0
BBX 18 64 5 -10
BITMAP
001FC0
001F80
003F80
003F00
007F00
00FE00
00FE00
01FC00
01FC00
03F800
03F800
07F000
07F000
0FE000
0FE000
1FC000
1FC000
1FC000
3F8000
3F8000
3F8000
7F0000
7F0000
7F0000
7F0000
FF0000
FE0000
FE0000
FE0000
FE0000
FE0000
FE0000
FE0000
FE0000
FE0000
FE0000
FE0000
FE0000
FF0000
7F0000
7F0000
7F0000
7F0000
3F8000
3F8000
3F8000
1FC000
1FC000
1FC000
0FE000
0FE000
07F000
07F000
03F000
03F800
01F800
01FC00
00FE00
00FE00
007F00
003F00
003F80
001F80
001FC0
ENDCHAR
STARTCHAR parenright
ENCODING 41
SWIDTH 333 0
DWIDTH 24 0
BBX 18 64 1 -10
BITMAP
FE0000
7E0000
7F0000
3F0000
3F8000
1FC000
1FC000
0FE000
0FE000
07F000
07F000
03F800
03F800
01FC00
01FC00
00FE00
00FE00
00FE00
007F00
007F00
007F00
003F80
003F80
003F80
003F80
003F80
001FC0
001FC0
001FC0
001FC0
001FC0
001FC0
001FC0
001FC0
001FC0
001FC0
001FC0
001FC0
003F80
003F80
003F80
003F80
003F80
007F00
007F00
007F00
00FE00
00FE00
00FE00
01FC00
01FC00
03F800
03F800
07F000
07F000
0FE000
0FE000
1FC000
1FC000
3F8000
3F0000
7F0000
7E0000
FE0000
ENDCHAR
STARTCHAR asterisk
ENCODING 42
SWIDTH 556 0
DWIDTH 40 0
BBX 30 28 5 22
BITMAP
000FE000
000FE000
000FE000
0007E000
0007E000
0007C000
0007C000
2007C010
3C07C078
7F07C3F8
7FE7CFF8
7FFFFFF8
FFFFFFFC
3FFFFFF0
01FFFF00
000FE000
001FF000
003FF800
007EFC00
00FEFC00
00FC7E00
01F87F00
03F83F80
07F01FC0
0FF01FE0
03E00F80
01C00F00
00400400
ENDCHAR
STARTCHAR plus
ENCODING 43
SWIDTH 600 0
DWIDTH 43 0
BBX 36 36 3 0
BITMAP
0001F80000
0001F80000
0001F80000
0001F80000
0001F80000
0001F80000
0001F80000
0001F80000
0001F80000
0001F80000
0001F80000
0001F80000
0001F80000
0001F80000
0001F80000
FFFFFFFFF0
FFFFFFFFF0
FFFFFFFFF0
FFFFFFFFF0
FFFFFFFFF0
FFFFFFFFF0
0001F80000
0001F80000
0001F80000
0001F80000
0001F80000
0001F80000
0001F80000
0001F80000
0001F80000
0001F80000
0001F80000
0001F80000
0001F80000
0001F80000
0001F80000
ENDCHAR
STARTCHAR comma
ENCODING 44
SWIDTH 278 0
DWIDTH 20 0
BBX 13 18 1 -10
BITMAP
07F8
07F8
0FF0
0FF0
0FF0
0FE0
1FE0
1FE0
1FC0
1FC0
3FC0
3F80
3F80
3F00
7F00
7F00
7E00
FE00
ENDCHAR
STARTCHAR hyphen
ENCODING 45
SWIDTH 333 0
DWIDTH 24 0
BBX 18 5 3 17
BITMAP
FFFFC0
FFFFC0
FFFFC0
FFFFC0
FFFFC0
ENDCHAR
STARTCHAR period
ENCODING 46
SWIDTH 278 0
DWIDTH 20 0
BBX 8 8 6 0
BITMAP
FF
FF
FF
FF
FF
FF
FF
FF
ENDCHAR
STARTCHAR slash
ENCODING 47
SWIDTH 278 0
DWIDTH 20 0
BBX 23 52 -2 -1
BITMAP
00007E
00007E
0000FC
0000FC
0000FC
0001F8
0001F8
0001F8
0003F0
0003F0
0003F0
0007E0
0007E0
0007E0
000FC0
000FC0
000FC0
001F80
001F80
001F80
003F00
003F00
003F00
007E00
007E00
007E00
00FC00
00FC00
00FC00
01F800
01F800
01F800
03F000
03F000
03F000
07E000
07E000
07E000
0FC000
0FC000
0FC000
1F8000
1F8000
1F8000
3F8000
3F0000
3F0000
7F0000
7E0000
7E0000
FE0000
FC0000
ENDCHAR
STARTCHAR zero
ENCODING 48
SWIDTH 556 0
DWIDTH 40 0
BBX 34 52 3 -1
BITMAP
0007F80000
003FFF0000
00FFFF8000
01FFFFC000
03FFFFE000
07FFFFF000
07FC0FF800
0FF007FC00
1FE003FC00
1FE001FE00
3FC000FE00
3F8000FE00
3F8000FF00
7F80007F00
7F00007F00
7F00007F00
7F00003F80
7F00003F80
7F00003F80
FE00003F80
FE00003F80
FE00003F80
FE00003F80
FE00003F80
FE00003F80
FE00003F80
FE00003FC0
FE00003F80
FE00003F80
FE00003F80
FE00003F80
FE00003F80
FE00003F80
7E00003F80
7F00003F80
7F00003F80
7F00007F00
7F00007F00
7F80007F00
3F80007F00
3F8000FE00
1FC000FE00
1FC001FE00
1FE003FC00
0FF007F800
07FC0FF800
07FFFFF000
03FFFFE000
01FFFFC000
00FFFF8000
003FFF0000
000FF80000
ENDCHAR
STARTCHAR one
ENCODING 49
SWIDTH 556 0
DWIDTH 40 0
BBX 19 50 7 0
BITMAP
000FE0
001FE0
003FE0
00FFE0
01FFE0
03FFE0
07FFE0
0FFFE0
3FFFE0
7FEFE0
FF8FE0
3F0FE0
3E0FE0
1C0FE0
080FE0
000FE0
000FE0
000FE0
000FE0
000FE0
000FE0
000FE0
000FE0
000FE0
000FE0
000FE0
000FE0
000FE0
000FE0
000FE0
000FE0
000FE0
000FE0
000FE0
000FE0
000FE0
000FE0
000FE0
000FE0
000FE0
000FE0
000FE0
000FE0
000FE0
000FE0
000FE0
000FE0
000FE0
000FE0
000FE0
ENDCHAR
STARTCHAR two
ENCODING 50
SWIDTH 556 0
DWIDTH 40 0
BBX 31 51 4 0
BITMAP
007FE000
07FFFC00
3FFFFF00
7FFFFF80
7FFFFFC0
7FFFFFE0
3F007FF0
38001FF0
200007F8
000007F8
000003FC
000001FC
000001FC
000001FC
000001FC
000001FC
000001FC
000003FC
000003F8
000003F8
000007F8
000007F0
00000FF0
00001FE0
00001FC0
00003FC0
00007F80
0000FF00
0001FE00
0003FE00
0003FC00
000FF800
001FF000
003FE000
007FC000
00FF8000
01FF0000
03FE0000
07FC0000
0FF80000
1FF00000
3FE00000
FF800000
FF000000
FE000000
FFFFFFFE
FFFFFFFE
FFFFFFFE
FFFFFFFE
FFFFFFFE
FFFFFFFE
ENDCHAR
STARTCHAR three
ENCODING 51
SWIDTH 556 0
DWIDTH 40 0
BBX 31 52 3 -1
BITMAP
007FE000
0FFFFE00
3FFFFF80
3FFFFFC0
3FFFFFE0
3FFFFFF0
3F003FF8
38000FF8
200003FC
000003FC
000001FC
000001FC
000001FE
000000FE
000000FE
000001FC
000001FC
000001FC
000003F8
000007F8
00001FF0
0000FFE0
01FFFFC0
01FFFF00
01FFFC00
01FFF800
01FFFF00
01FFFFC0
00007FE0
00001FF0
000007F8
000003FC
000001FC
000001FC
000000FE
000000FE
000000FE
000000FE
000000FE
000000FE
000001FE
000001FE
000003FC
800007FC
60001FFC
7E007FF8
7FFFFFF0
FFFFFFE0
FFFFFFC0
FFFFFF00
3FFFFC00
03FFC000
ENDCHAR
STARTCHAR four
ENCODING 52
SWIDTH 556 0
DWIDTH 40 0
BBX 36 50 2 0
BITMAP
00000FFC00
00001FFC00
00003FFC00
00003FFC00
00007FFC00
00007FFC00
0000FDFC00
0001FDFC00
0001F9FC00
0003F9FC00
0007F1FC00
0007E1FC00
000FE1FC00
000FC1FC00
001FC1FC00
003F81FC00
003F81FC00
007F01FC00
007E01FC00
00FE01FC00
01FC01FC00
01FC01FC00
03F801FC00
07F001FC00
07F001FC00
0FE001FC00
0FE001FC00
1FC001FC00
3F8001FC00
3F8001FC00
7F0001FC00
7F0001FC00
FE0001FC00
FFFFFFFFF0
FFFFFFFFF0
FFFFFFFFF0
FFFFFFFFF0
FFFFFFFFF0
FFFFFFFFF0
000001FC00
000001FC00
000001FC00
000001FC00
000001FC00
000001FC00
000001FC00
000001FC00
000001FC00
000001FC00
000001FC00
ENDCHAR
STARTCHAR five
ENCODING 53
SWIDTH 556 0
DWIDTH 40 0
BBX 29 51 6 -1
BITMAP
7FFFFFF0
7FFFFFF0
FFFFFFF0
FFFFFFF0
FFFFFFF0
FFFFFFF0
FE000000
FE000000
FE000000
FE000000
FE000000
FE000000
FE000000
FE000000
FE000000
FE000000
FE000000
FE000000
FE000000
FEFF8000
FFFFF000
FFFFFC00
FFFFFE00
FFFFFF00
FFFFFF80
E003FFC0
00007FE0
00003FE0
00001FF0
00000FF0
000007F8
000007F8
000003F8
000003F8
000003F8
000003F8
000003F8
000003F8
000007F8
000007F0
00000FF0
00000FE0
00003FE0
C0007FC0
F803FFC0
FFFFFF80
FFFFFF00
FFFFFC00
FFFFF800
FFFFE000
0FFE0000
ENDCHAR
STARTCHAR six
ENCODING 54
SWIDTH 556 0
DWIDTH 40 0
BBX 32 52 4 -1
BITMAP
0001FFC0
000FFFFC
003FFFFC
007FFFFC
00FFFFFC
01FFFFFC
03FF8078
07FE0008
0FF80000
0FF00000
1FE00000
1FE00000
3FC00000
3F800000
3F800000
7F000000
7F000000
7F000000
7F000000
7E000000
FE03FC00
FE1FFF80
FE7FFFC0
FEFFFFF0
FFFFFFF8
FFFFFFF8
FFFC0FFC
FFF003FE
FFE001FE
FFC000FE
FF8000FF
FF80007F
FF00007F
FF00007F
FF00007F
7F00007F
7F00007F
7F00007F
7F00007F
7F00007F
3F80007F
3F8000FF
3FC000FE
1FE001FE
1FF003FC
0FFC0FFC
07FFFFF8
07FFFFF0
03FFFFE0
00FFFFC0
007FFF00
000FF800
ENDCHAR
STARTCHAR seven
ENCODING 55
SWIDTH 556 0
DWIDTH 40 0
BBX 32 50 4 0
BITMAP
FFFFFFFF
FFFFFFFF
FFFFFFFF
FFFFFFFF
FFFFFFFF
FFFFFFFF
000000FE
000001FE
000001FC
000001FC
000003FC
000003F8
000007F8
000007F0
00000FF0
00000FE0
00000FE0
00001FE0
00001FC0
00003FC0
00003F80
00007F80
00007F80
0000FF00
0000FF00
0000FE00
0001FE00
0001FC00
0003FC00
0003FC00
0007F800
0007F800
0007F000
000FF000
000FE000
001FE000
001FE000
003FC000
003FC000
003F8000
007F8000
007F8000
00FF0000
00FF0000
01FE0000
01FE0000
01FC0000
03FC0000
03FC0000
07F80000
ENDCHAR
STARTCHAR eight
ENCODING 56
SWIDTH 556 0
DWIDTH 40 0
BBX 34 52 3 -1
BITMAP
000FFC0000
007FFF8000
01FFFFE000
03FFFFF000
0FFFFFF800
0FFFFFFC00
1FFC07FE00
3FF001FF00
3FC000FF00
3F80007F00
7F80007F00
7F00007F00
7F00007F00
7F00007F00
7F00007F00
3F80007F00
3FC000FF00
3FE000FE00
1FF001FC00
1FFC03FC00
0FFE07F800
07FF9FF000
03FFFFC000
00FFFF8000
003FFF0000
007FFFC000
01FFFFF000
07FFFFF800
0FFC3FFC00
1FF807FE00
3FE001FF00
3FC000FF80
7F80007F80
7F00003F80
FE00003FC0
FE00001FC0
FE00001FC0
FE00001FC0
FE00001FC0
FE00001FC0
FF00003FC0
FF00003F80
7F80003F80
7FC0007F80
3FE001FF00
3FFC07FF00
1FFFFFFE00
0FFFFFFC00
07FFFFF800
01FFFFE000
007FFF8000
000FFC0000
ENDCHAR
STARTCHAR nine
ENCODING 57
SWIDTH 556 0
DWIDTH 40 0
BBX 32 52 4 -1
BITMAP
001FF000
00FFFE00
03FFFF00
07FFFFC0
0FFFFFE0
1FFFFFE0
3FF03FF0
3FC00FF8
7F8007F8
7F0003FC
FF0001FC
FE0001FC
FE0000FE
FE0000FE
FE0000FE
FE0000FE
FE0000FE
FE0000FF
FE0000FF
FE0000FF
FE0001FF
FF0001FF
7F0003FF
7F8007FF
7FC00FFF
3FF03FFF
1FFFFFFF
1FFFFFFF
0FFFFF7F
03FFFE7F
01FFF87F
003FC07F
000000FE
000000FE
000000FE
000000FE
000001FE
000001FC
000001FC
000003FC
000007F8
000007F8
00000FF0
00001FF0
10007FE0
1E01FFC0
3FFFFF80
3FFFFF00
3FFFFE00
3FFFFC00
3FFFF000
03FF8000
ENDCHAR
STARTCHAR colon
ENCODING 58
SWIDTH 278 0
DWIDTH 20 0
BBX 8 37 6 0
BITMAP
FF
FF
FF
FF
FF
FF
FF
FF
00
00
00
00
00
00
00
00
00
00
00
00
00
00
00
00
00
00
00
00
00
FF
FF
FF
FF
FF
FF
FF
FF
ENDCHAR
STARTCHAR semicolon
ENCODING 59
SWIDTH 278 0
DWIDTH 20 0
BBX 13 47 1 -10
BITMAP
07F8
07F8
07F8
07F8
07F8
07F8
07F8
07F8
0000
0000
0000
0000
0000
0000
0000
0000
0000
0000
0000
0000
0000
0000
0000
0000
0000
0000
0000
0000
0000
07F8
07F8
0FF0
0FF0
0FF0
0FE0
1FE0
1FC0
1FC0
1FC0
3F80
3F80
3F80
3F00
7F00
7F00
7E00
FE00
ENDCHAR
STARTCHAR less
ENCODING 60
SWIDTH 600 0
DWIDTH 43 0
BBX 37 38 3 -1
BITMAP
0000000008
0000000078
00000001F8
00000007F8
0000003FF8
000000FFF8
000003FFF8
00000FFFC0
00007FFF00
0001FFFC00
0007FFE000
003FFF8000
00FFFE0000
03FFF00000
1FFFC00000
7FFF000000
FFF8000000
FFE0000000
FF80000000
FFC0000000
FFF0000000
FFFE000000
3FFF800000
07FFE00000
01FFFC0000
007FFF0000
000FFFC000
0003FFF800
0000FFFE00
00003FFF80
000007FFE0
000001FFF8
0000007FF8
0000000FF8
00000003F8
00000000F8
0000000018
0000000008
ENDCHAR
STARTCHAR equal
ENCODING 61
SWIDTH 600 0
DWIDTH 43 0
BBX 37 21 3 8
BITMAP
FFFFFFFFF8
FFFFFFFFF8
FFFFFFFFF8
FFFFFFFFF8
FFFFFFFFF8
FFFFFFFFF8
0000000000
0000000000
0000000000
0000000000
0000000000
0000000000
0000000000
0000000000
0000000000
FFFFFFFFF8
FFFFFFFFF8
FFFFFFFFF8
FFFFFFFFF8
FFFFFFFFF8
FFFFFFFFF8
ENDCHAR
STARTCHAR greater
ENCODING 62
SWIDTH 600 0
DWIDTH 43 0
BBX 37 38 3 -1
BITMAP
8000000000
F000000000
FC00000000
FF00000000
FFE0000000
FFF8000000
FFFE000000
1FFF800000
07FFF00000
01FFFC0000
003FFF0000
000FFFE000
0003FFF800
00007FFE00
00001FFFC0
000007FFF0
000000FFF8
0000003FF8
0000000FF8
0000001FF8
0000007FF8
000003FFF8
00000FFFE0
00003FFF00
0001FFFC00
0007FFF000
001FFF8000
00FFFE0000
03FFF80000
0FFFE00000
3FFF000000
FFFC000000
FFF0000000
FF80000000
FE00000000
F800000000
C000000000
8000000000
ENDCHAR
STARTCHAR question
ENCODING 63
SWIDTH 500 0
DWIDTH 36 0
BBX 28 51 5 0
BITMAP
01FF8000
1FFFF000
FFFFFC00
FFFFFE00
FFFFFF00
7FFFFF80
7F87FFC0
70007FE0
40001FE0
00001FE0
00000FF0
00000FF0
000007F0
000007F0
000007F0
000007F0
00000FE0
00000FE0
00001FE0
00001FC0
00003FC0
00007F80
0000FF00
0001FE00
0001FE00
0003FC00
0007F800
000FF000
001FE000
001FE000
003FC000
003F8000
003F8000
003F8000
003F0000
003F0000
003F0000
00000000
00000000
00000000
00000000
00000000
00000000
007F8000
007F8000
007F8000
007F8000
007F8000
007F8000
007F8000
007F8000
ENDCHAR
STARTCHAR at
ENCODING 64
SWIDTH 800 0
DWIDTH 58 0
BBX 50 52 4 -1
BITMAP
000007FF000000
00007FFFE00000
0001FFFFFC0000
0007FFFFFF0000
001FFFFFFF8000
003FFC01FFE000
00FFC0003FF000
01FF000007F800
03FE000003FC00
03F8000000FC00
07F00000007E00
0FE00000003F00
1FC003FC003F00
1FC01FFE1F9F80
3F803FFF9F0F80
3F007FFFBF0FC0
3F00FFFFFF0FC0
7F01FFFFFE07C0
7E03FE07FE07C0
7E07F803FE07C0
FE07F001FE07C0
FC0FE000FC07C0
FC0FE000FC07C0
FC0FC000FC07C0
FC1FC000FC07C0
FC1F8000F807C0
FC1F8000F807C0
FC1F8001F807C0
FC1F8001F80F80
FC1F8001F00F80
FC1F8003F01F00
FC1F8007F01F00
7E1FC007F03E00
7E1FC00FE07E00
7E1FE03FE0FC00
7F0FFFFFF1F800
3F0FFFFFFFF000
3F87FFFFFFE000
1F83FFF7FFC000
1FC1FFE3FF0000
0FE07F81FC0000
07F00000003F00
07F8000000FE00
03FC000001FC00
01FF000007F800
00FFC0001FF000
007FFC00FFE000
001FFFFFFF8000
000FFFFFFF0000
0003FFFFFC0000
00007FFFE00000
000007FF000000
ENDCHAR
STARTCHAR A
ENCODING 65
SWIDTH 722 0
DWIDTH 52 0
BBX 49 50 1 0
BITMAP
000007F0000000
00000FF8000000
00000FF8000000
00001FF8000000
00001FFC000000
00001FFC000000
00003FFE000000
00003F7E000000
00007F7F000000
00007E7F000000
0000FE3F000000
0000FC3F800000
0000FC1F800000
0001F81FC00000
0001F80FC00000
0003F80FE00000
0003F00FE00000
0007F007E00000
0007E007F00000
0007E003F00000
000FE003F80000
000FC001F80000
001FC001FC0000
001F8001FC0000
003F8000FC0000
003F0000FE0000
003F00007E0000
007F00007F0000
007E00007F0000
00FE00003F8000
00FC00003F8000
01FFFFFFFF8000
01FFFFFFFFC000
01FFFFFFFFC000
03FFFFFFFFE000
03FFFFFFFFE000
07FFFFFFFFF000
07F0000007F000
0FE0000003F000
0FE0000003F800
0FC0000003F800
1FC0000001FC00
1FC0000001FC00
3F80000000FC00
3F80000000FE00
7F00000000FE00
7F000000007F00
7F000000007F00
FE000000003F80
FE000000003F80
ENDCHAR
STARTCHAR B
ENCODING 66
SWIDTH 611 0
DWIDTH 44 0
BBX 32 50 6 0
BITMAP
FFFFF000
FFFFFF00
FFFFFFC0
FFFFFFE0
FFFFFFF0
FFFFFFF8
FE001FFC
FE0007FC
FE0003FE
FE0001FE
FE0000FE
FE0000FE
FE0000FE
FE0000FE
FE0000FE
FE0000FE
FE0001FC
FE0001FC
FE0003FC
FE0007F8
FE003FF0
FFFFFFE0
FFFFFF80
FFFFFE00
FFFFFC00
FFFFFF80
FFFFFFE0
FE003FF0
FE0007F8
FE0003FC
FE0001FE
FE0000FE
FE0000FE
FE00007F
FE00007F
FE00007F
FE00007F
FE00007F
FE00007F
FE0000FF
FE0000FE
FE0001FE
FE0007FE
FE003FFC
FFFFFFF8
FFFFFFF8
FFFFFFF0
FFFFFFC0
FFFFFF00
FFFFF000
ENDCHAR
STARTCHAR C
ENCODING 67
SWIDTH 611 0
DWIDTH 44 0
BBX 38 52 4 -1
BITMAP
000007FF80
00007FFFF0
0003FFFFFC
000FFFFFFC
001FFFFFFC
007FFFFFFC
00FFFF87FC
01FFE00038
03FF800008
07FE000000
07FC000000
0FF8000000
1FF0000000
1FE0000000
3FC0000000
3FC0000000
7F80000000
7F80000000
7F00000000
7F00000000
FF00000000
FE00000000
FE00000000
FE00000000
FE00000000
FE00000000
FE00000000
FE00000000
FE00000000
FE00000000
FE00000000
FF00000000
7F00000000
7F00000000
7F80000000
7F80000000
3FC0000000
3FC0000000
1FE0000000
1FF0000000
0FF8000000
0FFC000000
07FE000000
03FF800004
01FFF0003C
00FFFF87FC
007FFFFFFC
003FFFFFFC
000FFFFFFC
0003FFFFFC
0000FFFFF8
000007FFC0
ENDCHAR
STARTCHAR D
ENCODING 68
SWIDTH 722 0
DWIDTH 52 0
BBX 41 50 6 0
BITMAP
FFFFF0000000
FFFFFF000000
FFFFFFE00000
FFFFFFF80000
FFFFFFFE0000
FFFFFFFF0000
FE007FFF8000
FE0003FFC000
FE00007FE000
FE00003FF000
FE00000FF800
FE000007F800
FE000003FC00
FE000001FE00
FE000001FE00
FE000000FE00
FE000000FF00
FE0000007F00
FE0000007F00
FE0000007F80
FE0000003F80
FE0000003F80
FE0000003F80
FE0000003F80
FE0000003F80
FE0000003F80
FE0000003F80
FE0000003F80
FE0000003F80
FE0000003F80
FE0000007F80
FE0000007F00
FE0000007F00
FE0000007F00
FE000000FF00
FE000000FE00
FE000001FE00
FE000003FC00
FE000003FC00
FE00000FF800
FE00001FF800
FE00007FF000
FE0001FFE000
FE007FFFC000
FFFFFFFF8000
FFFFFFFE0000
FFFFFFFC0000
FFFFFFF00000
FFFFFF800000
FFFFF8000000
ENDCHAR
STARTCHAR E
ENCODING 69
SWIDTH 556 0
DWIDTH 40 0
BBX 28 50 7 0
BITMAP
FFFFFFF0
FFFFFFF0
FFFFFFF0
FFFFFFF0
FFFFFFF0
FFFFFFF0
FE000000
FE000000
FE000000
FE000000
FE000000
FE000000
FE000000
FE000000
FE000000
FE000000
FE000000
FE000000
FE000000
FE000000
FE000000
FFFFFFC0
FFFFFFC0
FFFFFFC0
FFFFFFC0
FFFFFFC0
FFFFFFC0
FE000000
FE000000
FE000000
FE000000
FE000000
FE000000
FE000000
FE000000
FE000000
FE000000
FE000000
FE000000
FE000000
FE000000
FE000000
FE000000
FE000000
FFFFFFF0
FFFFFFF0
FFFFFFF0
FFFFFFF0
FFFFFFF0
FFFFFFF0
ENDCHAR
STARTCHAR F
ENCODING 70
SWIDTH 500 0
DWIDTH 36 0
BBX 27 50 6 0
BITMAP
FFFFFFE0
FFFFFFE0
FFFFFFE0
FFFFFFE0
FFFFFFE0
FFFFFFE0
FE000000
FE000000
FE000000
FE000000
FE000000
FE000000
FE000000
FE000000
FE000000
FE000000
FE000000
FE000000
FE000000
FE000000
FE000000
FFFFFFC0
FFFFFFC0
FFFFFFC0
FFFFFFC0
FFFFFFC0
FFFFFFC0
FE000000
FE000000
FE000000
FE000000
FE000000
FE000000
FE000000
FE000000
FE000000
FE000000
FE000000
FE000000
FE000000
FE000000
FE000000
FE000000
FE000000
FE000000
FE000000
FE000000
FE000000
FE000000
FE000000
ENDCHAR
STARTCHAR G
ENCODING 71
SWIDTH 722 0
DWIDTH 52 0
BBX 42 52 3 -1
BITMAP
000007FFC000
00007FFFFC00
0001FFFFFF80
0007FFFFFFC0
001FFFFFFF80
003FFFFFFF80
00FFFF83FF80
01FFF0000F80
03FFC0000180
03FF00000080
07FC00000000
0FF800000000
0FF000000000
1FE000000000
1FE000000000
3FC000000000
3FC000000000
3F8000000000
7F8000000000
7F0000000000
7F0000000000
7F0000000000
7F0000000000
FF0000000000
FE0000FFFFC0
FE0000FFFFC0
FE0000FFFFC0
FE0000FFFFC0
FE0000FFFFC0
7F0000FFFFC0
7F0000001FC0
7F0000001FC0
7F0000001FC0
7F8000001FC0
3F8000001FC0
3FC000001FC0
3FC000001FC0
1FE000001FC0
1FE000001FC0
0FF000001FC0
0FF800001FC0
07FC00001FC0
07FF00001FC0
03FFC0001FC0
01FFF0001FC0
00FFFF81FFC0
007FFFFFFFC0
001FFFFFFFC0
000FFFFFFFC0
0003FFFFFFC0
00007FFFFF00
000007FFE000
ENDCHAR
STARTCHAR H
ENCODING 72
SWIDTH 722 0
DWIDTH 52 0
BBX 38 50 7 0
BITMAP
FE000001FC
FE000001FC
FE000001FC
FE000001FC
FE000001FC
FE000001FC
FE000001FC
FE000001FC
FE000001FC
FE000001FC
FE000001FC
FE000001FC
FE000001FC
FE000001FC
FE000001FC
FE000001FC
FE000001FC
FE000001FC
FE000001FC
FE000001FC
FE000001FC
FFFFFFFFFC
FFFFFFFFFC
FFFFFFFFFC
FFFFFFFFFC
FFFFFFFFFC
FFFFFFFFFC
FE000001FC
FE000001FC
FE000001FC
FE000001FC
FE000001FC
FE000001FC
FE000001FC
FE000001FC
FE000001FC
FE000001FC
FE000001FC
FE000001FC
FE000001FC
FE000001FC
FE000001FC
FE000001FC
FE000001FC
FE000001FC
FE000001FC
FE000001FC
FE000001FC
FE000001FC
FE000001FC
ENDCHAR
STARTCHAR I
ENCODING 73
SWIDTH 278 0
DWIDTH 20 0
BBX 7 50 6 0
BITMAP
FE
FE
FE
FE
FE
FE
FE
FE
FE
FE
FE
FE
FE
FE
FE
FE
FE
FE
FE
FE
FE
FE
FE
FE
FE
FE
FE
FE
FE
FE
FE
FE
FE
FE
FE
FE
FE
FE
FE
FE
FE
FE
FE
FE
FE
FE
FE
FE
FE
FE
ENDCHAR
STARTCHAR J
ENCODING 74
SWIDTH 389 0
DWIDTH 28 0
BBX 20 51 1 -1
BITMAP
0007F0
0007F0
0007F0
0007F0
0007F0
0007F0
0007F0
0007F0
0007F0
0007F0
0007F0
0007F0
0007F0
0007F0
0007F0
0007F0
0007F0
0007F0
0007F0
0007F0
0007F0
0007F0
0007F0
0007F0
0007F0
0007F0
0007F0
0007F0
0007F0
0007F0
0007F0
0007F0
0007F0
0007F0
0007F0
0007F0
0007F0
0007F0
0007F0
000FF0
000FF0
000FF0
001FE0
003FE0
E1FFE0
FFFFC0
FFFF80
FFFF00
FFFE00
FFFC00
7FE000
ENDCHAR
STARTCHAR K
ENCODING 75
SWIDTH 667 0
DWIDTH 48 0
BBX 40 50 7 0
BITMAP
FE00000FFC
FE00001FF8
FE00003FF0
FE00007FE0
FE0000FFC0
FE0001FF80
FE0003FF00
FE0007FE00
FE000FFC00
FE001FF800
FE003FE000
FE007FC000
FE00FF8000
FE01FF0000
FE03FE0000
FE07FC0000
FE0FF80000
FE1FF00000
FE3FE00000
FE7FC00000
FEFF800000
FFFF000000
FFFE000000
FFFC000000
FFFE000000
FFFF000000
FEFF800000
FE7FC00000
FE3FE00000
FE1FF00000
FE0FF80000
FE07FC0000
FE07FE0000
FE03FF0000
FE01FF8000
FE00FFC000
FE007FE000
FE003FF000
FE001FF800
FE000FFC00
FE0007FE00
FE0003FF00
FE0001FF80
FE0000FFC0
FE00007FE0
FE00007FF0
FE00003FF8
FE00001FFC
FE00000FFE
FE000007FF
ENDCHAR
STARTCHAR L
ENCODING 76
SWIDTH 500 0
DWIDTH 36 0
BBX 28 50 6 0
BITMAP
FE000000
FE000000
FE000000
FE000000
FE000000
FE000000
FE000000
FE000000
FE000000
FE000000
FE000000
FE000000
FE000000
FE000000
FE000000
FE000000
FE000000
FE000000
FE000000
FE000000
FE000000
FE000000
FE000000
FE000000
FE000000
FE000000
FE000000
FE000000
FE000000
FE000000
FE000000
FE000000
FE000000
FE000000
FE000000
FE000000
FE000000
FE000000
FE000000
FE000000
FE000000
FE000000
FE000000
FE000000
FFFFFFF0
FFFFFFF0
FFFFFFF0
FFFFFFF0
FFFFFFF0
FFFFFFF0
ENDCHAR
STARTCHAR M
ENCODING 77
SWIDTH 944 0
DWIDTH 68 0
BBX 55 50 6 0
BITMAP
FFF00000001FFE
FFF00000001FFE
FFF80000003FFE
FFF80000003FFE
FFFC0000007FFE
FFFC0000007FFE
FFFC0000007FFE
FFFE000000FFFE
FEFE000000FEFE
FEFE000000FEFE
FE7F000001FCFE
FE7F000001FCFE
FE7F800003FCFE
FE3F800003F8FE
FE3F800003F8FE
FE1FC00007F0FE
FE1FC00007F0FE
FE1FE00007F0FE
FE0FE0000FE0FE
FE0FE0000FE0FE
FE0FF0001FE0FE
FE07F0001FC0FE
FE07F0001FC0FE
FE03F8003F80FE
FE03F8003F80FE
FE03FC003F80FE
FE01FC007F00FE
FE01FC007F00FE
FE00FE00FE00FE
FE00FE00FE00FE
FE00FE00FE00FE
FE007F01FC00FE
FE007F01FC00FE
FE003F81F800FE
FE003F83F800FE
FE003F83F800FE
FE001FC3F000FE
FE001FC7F000FE
FE000FC7E000FE
FE000FEFE000FE
FE000FEFE000FE
FE0007FFC000FE
FE0007FFC000FE
FE0007FFC000FE
FE0003FF8000FE
FE0003FF8000FE
FE0001FF0000FE
FE0001FF0000FE
FE0001FF0000FE
FE0000FE0000FE
ENDCHAR
STARTCHAR N
ENCODING 78
SWIDTH 722 0
DWIDTH 52 0
BBX 39 50 6 0
BITMAP
FFC00000FE
FFC00000FE
FFE00000FE
FFF00000FE
FFF00000FE
FFF80000FE
FFF80000FE
FFFC0000FE
FFFC0000FE
FFFE0000FE
FEFE0000FE
FE7F0000FE
FE7F8000FE
FE3F8000FE
FE3FC000FE
FE1FC000FE
FE1FE000FE
FE0FE000FE
FE0FF000FE
FE07F000FE
FE03F800FE
FE03F800FE
FE01FC00FE
FE01FE00FE
FE00FE00FE
FE00FF00FE
FE007F00FE
FE007F80FE
FE003F80FE
FE001FC0FE
FE001FC0FE
FE000FE0FE
FE000FF0FE
FE0007F0FE
FE0007F8FE
FE0003F8FE
FE0003FCFE
FE0001FCFE
FE0000FEFE
FE0000FEFE
FE00007FFE
FE00007FFE
FE00003FFE
FE00003FFE
FE00001FFE
FE00001FFE
FE00000FFE
FE000007FE
FE000007FE
FE000003FE
ENDCHAR
STARTCHAR O
ENCODING 79
SWIDTH 778 0
DWIDTH 56 0
BBX 48 52 4 -1
BITMAP
00003FF80000
0001FFFF8000
0007FFFFE000
001FFFFFF800
007FFFFFFC00
00FFFFFFFE00
01FFFC7FFF80
03FFC003FFC0
07FF0000FFC0
07FC00003FE0
0FF800001FF0
1FF000000FF0
1FE0000007F8
3FC0000007F8
3FC0000003FC
3F80000003FC
7F80000001FC
7F00000001FE
7F00000000FE
7F00000000FE
FF00000000FE
FE00000000FE
FE000000007F
FE000000007F
FE000000007F
FE000000007F
FE000000007F
FE000000007F
FE000000007F
FE000000007F
FE00000000FE
FF00000000FE
7F00000000FE
7F00000000FE
7F00000001FE
7F80000001FC
3F80000001FC
3FC0000003FC
3FC0000007F8
1FE0000007F8
1FF000000FF0
0FF800001FF0
07FC00003FE0
07FE0000FFC0
03FF8003FFC0
01FFFC7FFF80
00FFFFFFFF00
007FFFFFFC00
001FFFFFF800
000FFFFFE000
0001FFFF8000
00003FF80000
ENDCHAR
STARTCHAR P
ENCODING 80
SWIDTH 556 0
DWIDTH 40 0
BBX 31 50 6 0
BITMAP
FFFFE000
FFFFFE00
FFFFFF80
FFFFFFC0
FFFFFFE0
FFFFFFF0
FE03FFF8
FE001FFC
FE0007FC
FE0003FE
FE0001FE
FE0000FE
FE0000FE
FE0000FE
FE0000FE
FE0000FE
FE0000FE
FE0000FE
FE0000FE
FE0001FE
FE0003FE
FE0007FC
FE000FFC
FE01FFF8
FFFFFFF0
FFFFFFE0
FFFFFFC0
FFFFFF80
FFFFFE00
FFFFE000
FE000000
FE000000
FE000000
FE000000
FE000000
FE000000
FE000000
FE000000
FE000000
FE000000
FE000000
FE000000
FE000000
FE000000
FE000000
FE000000
FE000000
FE000000
FE000000
FE000000
ENDCHAR
STARTCHAR Q
ENCODING 81
SWIDTH 778 0
DWIDTH 56 0
BBX 48 60 4 -9
BITMAP
00003FF80000
0001FFFF8000
0007FFFFE000
001FFFFFF800
007FFFFFFC00
00FFFFFFFE00
01FFFC7FFF80
03FFC003FFC0
07FF0000FFC0
07FC00003FE0
0FF800001FF0
1FF000000FF0
1FE0000007F8
3FC0000007F8
3FC0000003FC
3F80000003FC
7F80000001FC
7F00000001FE
7F00000000FE
7F00000000FE
FF00000000FE
FE00000000FE
FE000000007F
FE000000007F
FE000000007F
FE000000007F
FE000000007F
FE000000007F
FE000000007F
FE000000007F
FE00000000FE
FF00000000FE
7F00000000FE
7F00000000FE
7F00000001FE
7F80000001FC
3F80000001FC
3FC0000003FC
3FC0000007F8
1FE0000007F8
1FF000000FF0
0FF800001FF0
07FC00003FE0
07FE0000FFC0
03FF8003FFC0
01FFFC7FFF80
00FFFFFFFF00
007FFFFFFE00
001FFFFFF800
000FFFFFE000
0001FFFFE000
00003FFFF000
00000007F800
00000003FE00
00000001FF00
00000000FF80
000000007FC0
000000003FE0
000000000FF0
0000000007FC
ENDCHAR
STARTCHAR R
ENCODING 82
SWIDTH 611 0
DWIDTH 44 0
BBX 36 50 6 0
BITMAP
FFFFF00000
FFFFFF0000
FFFFFFC000
FFFFFFE000
FFFFFFF000
FFFFFFF800
FE01FFFC00
FE000FFC00
FE0003FE00
FE0001FE00
FE0000FE00
FE0000FE00
FE0000FE00
FE0000FE00
FE0000FE00
FE0000FE00
FE0000FE00
FE0001FC00
FE0003FC00
FE000FF800
FE003FF800
FFFFFFF000
FFFFFFC000
FFFFFF0000
FFFFF80000
FFFFFE0000
FFFFFF0000
FE03FF8000
FE007F8000
FE003FC000
FE001FC000
FE001FE000
FE000FE000
FE000FF000
FE0007F000
FE0007F800
FE0003F800
FE0003FC00
FE0003FC00
FE0001FE00
FE0001FE00
FE0000FF00
FE0000FF00
FE00007F80
FE00007F80
FE00003FC0
FE00003FC0
FE00001FE0
FE00001FE0
FE00001FF0
ENDCHAR
STARTCHAR S
ENCODING 83
SWIDTH 500 0
DWIDTH 36 0
BBX 29 52 3 -1
BITMAP
000FFC00
007FFFC0
01FFFFE0
07FFFFE0
0FFFFFE0
1FFFFFE0
3FFE1FE0
3FE000C0
7F800000
7F000000
7F000000
7F000000
FE000000
FE000000
FF000000
FF000000
7F800000
7FC00000
7FE00000
3FF00000
3FFC0000
1FFF0000
0FFFC000
07FFF000
03FFFC00
00FFFE00
003FFF80
000FFF80
0003FFC0
0000FFE0
00003FF0
00001FF0
00000FF0
000007F8
000007F8
000003F8
000003F8
000003F8
000003F8
000003F8
000007F8
000007F0
00000FF0
40001FF0
38007FE0
7FC7FFE0
7FFFFFC0
7FFFFF80
7FFFFF00
7FFFFC00
1FFFF000
01FF8000
ENDCHAR
STARTCHAR T
ENCODING 84
SWIDTH 556 0
DWIDTH 40 0
BBX 39 50 0 0
BITMAP
FFFFFFFFFE
FFFFFFFFFE
FFFFFFFFFE
FFFFFFFFFE
FFFFFFFFFE
FFFFFFFFFE
0000FE0000
0000FE0000
0000FE0000
0000FE0000
0000FE0000
0000FE0000
0000FE0000
0000FE0000
0000FE0000
0000FE0000
0000FE0000
0000FE0000
0000FE0000
0000FE0000
0000FE0000
0000FE0000
0000FE0000
0000FE0000
0000FE0000
0000FE0000
0000FE0000
0000FE0000
0000FE0000
0000FE0000
0000FE0000
0000FE0000
0000FE0000
0000FE0000
0000FE0000
0000FE0000
0000FE0000
0000FE0000
0000FE0000
0000FE0000
0000FE0000
0000FE0000
0000FE0000
0000FE0000
0000FE0000
0000FE0000
0000FE0000
0000FE0000
0000FE0000
0000FE0000
ENDCHAR
STARTCHAR U
ENCODING 85
SWIDTH 722 0
DWIDTH 52 0
BBX 39 51 6 -1
BITMAP
FE000000FE
FE000000FE
FE000000FE
FE000000FE
FE000000FE
FE000000FE
FE000000FE
FE000000FE
FE000000FE
FE000000FE
FE000000FE
FE000000FE
FE000000FE
FE000000FE
FE000000FE
FE000000FE
FE000000FE
FE000000FE
FE000000FE
FE000000FE
FE000000FE
FE000000FE
FE000000FE
FE000000FE
FE000000FE
FE000000FE
FE000000FE
FE000000FE
FE000000FE
FE000000FE
FE000000FE
FE000000FE
FE000000FE
FE000000FE
FF000001FE
FF000001FC
7F000001FC
7F000001FC
7F800003FC
3F800003F8
3FC00007F8
3FE0000FF8
1FF0001FF0
1FFC007FE0
0FFFC7FFE0
07FFFFFFC0
03FFFFFF80
01FFFFFF00
007FFFFC00
001FFFF000
0003FF8000
ENDCHAR
STARTCHAR V
ENCODING 86
SWIDTH 667 0
DWIDTH 48 0
BBX 47 50 0 0
BITMAP
FE00000000FE
7F00000000FE
7F00000001FC
7F00000001FC
3F80000001FC
3F80000003F8
1FC0000003F8
1FC0000007F0
1FC0000007F0
0FE0000007F0
0FE000000FE0
0FE000000FE0
07F000001FC0
07F000001FC0
03F800001FC0
03F800003F80
03F800003F80
01FC00003F80
01FC00007F00
01FC00007F00
00FE0000FE00
00FE0000FE00
007F0000FE00
007F0001FC00
007F0001FC00
003F8001F800
003F8003F800
003F8003F800
001FC007F000
001FC007F000
000FE007F000
000FE00FE000
000FE00FE000
0007F00FC000
0007F01FC000
0007F81FC000
0003F83F8000
0003F83F8000
0001FC3F0000
0001FC7F0000
0001FC7F0000
0000FE7E0000
0000FEFE0000
00007FFE0000
00007FFC0000
00007FFC0000
00003FF80000
00003FF80000
00003FF80000
00001FF00000
ENDCHAR
STARTCHAR W
ENCODING 87
SWIDTH 1000 0
DWIDTH 72 0
BBX 72 50 0 0
BITMAP
FF000001FF800000FF
7F800001FFC00000FE
7F800003FFC00000FE
7F800003FFC00001FE
3F800003FFC00001FE
3FC00003FFE00001FC
3FC00007FFE00003FC
3FC00007FFE00003FC
1FC00007F7E00003F8
1FE00007E7F00003F8
1FE0000FE7F00007F8
0FE0000FE7F00007F0
0FF0000FE3F00007F0
0FF0000FC3F8000FF0
07F0001FC3F8000FE0
07F0001FC3F8000FE0
07F8001F81F8000FE0
07F8001F81FC001FC0
03F8003F81FC001FC0
03FC003F81FC001FC0
03FC003F00FC003FC0
01FC003F00FE003F80
01FC007F00FE003F80
01FE007F00FE003F80
00FE007E007E007F00
00FE007E007F007F00
00FF00FE007F007F00
007F00FE007F007E00
007F00FC003F00FE00
007F00FC003F80FE00
007F81FC003F80FC00
003F81FC003F81FC00
003F81F8001F81FC00
003FC1F8001FC1FC00
001FC3F8001FC1F800
001FC3F8001FC3F800
001FC3F0000FC3F800
000FE3F0000FE3F000
000FE7F0000FE7F000
000FE7F0000FE7F000
000FE7E00007F7E000
0007F7E00007F7E000
0007FFE00007FFE000
0007FFE00007FFC000
0003FFC00003FFC000
0003FFC00003FFC000
0003FFC00003FFC000
0001FFC00003FF8000
0001FF800001FF8000
0001FF800001FF8000
ENDCHAR
STARTCHAR X
ENCODING 88
SWIDTH 667 0
DWIDTH 48 0
BBX 47 50 0 0
BITMAP
3FE0000007FC
1FF000000FF8
0FF800000FF0
07F800001FE0
07FC00003FE0
03FE00003FC0
01FE00007F80
01FF0000FF00
00FF8000FF00
007F8001FE00
003FC003FC00
003FE003FC00
001FF007F800
000FF00FF000
000FF81FE000
0007FC1FE000
0003FC3FC000
0003FE7F8000
0001FF7F8000
0000FFFF0000
00007FFE0000
00007FFC0000
00003FFC0000
00001FF80000
00001FF80000
00003FFC0000
00007FFE0000
0000FFFE0000
0000FFFF0000
0001FEFF8000
0003FC7FC000
0003FC7FC000
0007F83FE000
000FF01FF000
000FF01FF000
001FE00FF800
003FC007FC00
007FC003FE00
007F8003FE00
00FF0001FF00
01FF0000FF80
01FE0000FF80
03FC00007FC0
07FC00003FE0
0FF800003FE0
0FF000001FF0
1FF000000FF8
3FE0000007FC
3FC0000007FC
FFC0000003FE
ENDCHAR
STARTCHAR Y
ENCODING 89
SWIDTH 667 0
DWIDTH 48 0
BBX 47 50 0 0
BITMAP
FF80000003FE
7FC0000007FC
3FC0000007F8
1FE000000FF0
1FF000001FF0
0FF000001FE0
07F800003FC0
07FC00007FC0
03FC00007F80
01FE0000FF00
01FF0001FF00
00FF0001FE00
007F8003FC00
007FC007F800
003FC007F800
001FE00FF000
001FF01FE000
000FF01FE000
0007F83FC000
0003FC3F8000
0003FC7F8000
0001FEFF0000
0000FFFE0000
0000FFFE0000
00007FFC0000
00003FF80000
00003FF80000
00001FF00000
00000FE00000
00000FE00000
00000FE00000
00000FE00000
00000FE00000
00000FE00000
00000FE00000
00000FE00000
00000FE00000
00000FE00000
00000FE00000
00000FE00000
00000FE00000
00000FE00000
00000FE00000
00000FE00000
00000FE00000
00000FE00000
00000FE00000
00000FE00000
00000FE00000
00000FE00000
ENDCHAR
STARTCHAR Z
ENCODING 90
SWIDTH 556 0
DWIDTH 40 0
BBX 35 50 2 0
BITMAP
7FFFFFFFC0
7FFFFFFFC0
7FFFFFFFC0
7FFFFFFFC0
7FFFFFFFC0
7FFFFFFFC0
0000003FC0
0000007FC0
0000007F80
000000FF00
000001FF00
000003FE00
000003FC00
000007F800
00000FF800
00000FF000
00001FE000
00003FE000
00003FC000
00007F8000
0000FF8000
0001FF0000
0001FE0000
0003FC0000
0007FC0000
0007F80000
000FF00000
001FF00000
001FE00000
003FC00000
007FC00000
00FF800000
00FF000000
01FE000000
03FE000000
03FC000000
07F8000000
0FF8000000
0FF0000000
1FE0000000
3FE0000000
7FC0000000
7F80000000
FF00000000
FFFFFFFFE0
FFFFFFFFE0
FFFFFFFFE0
FFFFFFFFE0
FFFFFFFFE0
FFFFFFFFE0
ENDCHAR
STARTCHAR bracketleft
ENCODING 91
SWIDTH 333 0
DWIDTH 24 0
BBX 14 64 7 -10
BITMAP
FFFC
FFFC
FFFC
FFFC
FFFC
FC00
FC00
FC00
FC00
FC00
FC00
FC00
FC00
FC00
FC00
FC00
FC00
FC00
FC00
FC00
FC00
FC00
FC00
FC00
FC00
FC00
FC00
FC00
FC00
FC00
FC00
FC00
FC00
FC00
FC00
FC00
FC00
FC00
FC00
FC00
FC00
FC00
FC00
FC00
FC00
FC00
FC00
FC00
FC00
FC00
FC00
FC00
FC00
FC00
FC00
FC00
FC00
FC00
FC00
FFFC
FFFC
FFFC
FFFC
FFFC
ENDCHAR
STARTCHAR backslash
ENCODING 92
SWIDTH 278 0
DWIDTH 20 0
BBX 23 52 -2 -1
BITMAP
FC0000
FC0000
7E0000
7E0000
7E0000
3F0000
3F0000
3F0000
1F8000
1F8000
1F8000
0FC000
0FC000
0FC000
07E000
07E000
07E000
03F000
03F000
03F000
01F800
01F800
01F800
00FC00
00FC00
00FC00
007E00
007E00
007E00
003F00
003F00
003F00
001F80
001F80
001F80
000FC0
000FC0
000FC0
0007E0
0007E0
0007E0
0003F0
0003F0
0003F0
0001F8
0001F8
0001F8
0001FC
0000FC
0000FC
0000FE
00007E
ENDCHAR
STARTCHAR bracketright
ENCODING 93
SWIDTH 333 0
DWIDTH 24 0
BBX 14 64 3 -10
BITMAP
FFFC
FFFC
FFFC
FFFC
FFFC
00FC
00FC
00FC
00FC
00FC
00FC
00FC
00FC
00FC
00FC
00FC
00FC
00FC
00FC
00FC
00FC
00FC
00FC
00FC
00FC
00FC
00FC
00FC
00FC
00FC
00FC
00FC
00FC
00FC
00FC
00FC
00FC
00FC
00FC
00FC
00FC
00FC
00FC
00FC
00FC
00FC
00FC
00FC
00FC
00FC
00FC
00FC
00FC
00FC
00FC
00FC
00FC
00FC
00FC
FFFC
FFFC
FFFC
FFFC
FFFC
ENDCHAR
STARTCHAR asciicircum
ENCODING 94
SWIDTH 600 0
DWIDTH 43 0
BBX 34 29 5 21
BITMAP
0003F00000
0007F80000
0007F80000
000FFC0000
000FFC0000
001FFE0000
001FFE0000
003FFF0000
003F3F0000
007F3F8000
007E1F8000
00FE1FC000
00FC0FC000
01FC0FE000
01F807E000
03F807F000
03F003F000
07F003F800
07E001F800
0FE001FC00
0FC000FC00
1FC000FE00
1F80007E00
3F80007F00
3F00003F00
7F00003F80
7E00001F80
FE00001FC0
FC00000FC0
ENDCHAR
STARTCHAR underscore
ENCODING 95
SWIDTH 500 0
DWIDTH 36 0
BBX 36 4 0 -9
BITMAP
FFFFFFFFF0
FFFFFFFFF0
FFFFFFFFF0
FFFFFFFFF0
ENDCHAR
STARTCHAR grave
ENCODING 96
SWIDTH 278 0
DWIDTH 20 0
BBX 14 10 1 42
BITMAP
FF00
7F80
3F80
1FC0
0FE0
07E0
03F0
01F0
00F8
007C
ENDCHAR
STARTCHAR a
ENCODING 97
SWIDTH 556 0
DWIDTH 40 0
BBX 31 39 4 -1
BITMAP
001FF800
00FFFF00
03FFFFC0
0FFFFFE0
0FFFFFF0
0FFFFFF8
0F800FF8
0E0003FC
080003FC
000001FC
000001FE
000000FE
000000FE
000000FE
000000FE
000FFFFE
00FFFFFE
03FFFFFE
0FFFFFFE
1FFFFFFE
3FFC00FE
7FE000FE
7F8000FE
FF0000FE
FE0000FE
FE0000FE
FE0000FE
FE0001FE
FE0001FE
FE0003FE
FF0003FE
FF800FFE
7FC01FFE
7FFBFF7E
3FFFFF7E
1FFFFE7E
0FFFF87E
07FFF07E
00FF8000
ENDCHAR
STARTCHAR b
ENCODING 98
SWIDTH 611 0
DWIDTH 44 0
BBX 35 55 6 -1
BITMAP
FE00000000
FE00000000
FE00000000
FE00000000
FE00000000
FE00000000
FE00000000
FE00000000
FE00000000
FE00000000
FE00000000
FE00000000
FE00000000
FE00000000
FE00000000
FE00000000
FE01FE0000
FE0FFFC000
FE3FFFF000
FE7FFFF800
FEFFFFFC00
FFFFBFFE00
FFF803FE00
FFF001FF00
FFE000FF80
FFC0007F80
FF80003F80
FF80003FC0
FF00001FC0
FF00001FC0
FF00001FC0
FE00001FE0
FE00000FE0
FE00000FE0
FE00000FE0
FE00000FE0
FE00000FE0
FE00000FE0
FE00001FE0
FE00001FC0
FF00001FC0
FF00001FC0
FF00003FC0
FF80003F80
FF80003F80
FFC0007F80
FFE000FF00
FFF001FF00
FFF803FE00
FFFFBFFE00
FEFFFFFC00
FE7FFFF800
FE3FFFE000
FE0FFFC000
0001FE0000
ENDCHAR
STARTCHAR c
ENCODING 99
SWIDTH 444 0
DWIDTH 32 0
BBX 27 39 3 -1
BITMAP
0003FE00
001FFFE0
007FFFE0
01FFFFE0
03FFFFE0
07FFFFE0
0FFC0040
1FF80000
1FE00000
3FC00000
3FC00000
7F800000
7F000000
7F000000
FF000000
FE000000
FE000000
FE000000
FE000000
FE000000
FE000000
FE000000
FE000000
FE000000
7F000000
7F000000
7F000000
3F800000
3F800000
3FC00000
1FE00000
0FF00020
07FC00E0
07FFEFE0
03FFFFE0
00FFFFE0
007FFFE0
001FFFE0
0003FF00
ENDCHAR
STARTCHAR d
ENCODING 100
SWIDTH 611 0
DWIDTH 44 0
BBX 35 55 3 -1
BITMAP
0000000FE0
0000000FE0
0000000FE0
0000000FE0
0000000FE0
0000000FE0
0000000FE0
0000000FE0
0000000FE0
0000000FE0
0000000FE0
0000000FE0
0000000FE0
0000000FE0
0000000FE0
0000000FE0
001FF00FE0
007FFE0FE0
01FFFF8FE0
03FFFFCFE0
07FFFFEFE0
0FFFFFFFE0
1FF807FFE0
1FE001FFE0
3FC000FFE0
3F80007FE0
7F80003FE0
7F00003FE0
7F00001FE0
FF00001FE0
FE00001FE0
FE00000FE0
FE00000FE0
FE00000FE0
FE00000FE0
FE00000FE0
FE00000FE0
FE00000FE0
FE00000FE0
FE00000FE0
FE00001FE0
7F00001FE0
7F00001FE0
7F80003FE0
7F80003FE0
3FC0007FE0
3FE000FFE0
1FF001FFE0
1FF803FFE0
0FFFFFFFE0
07FFFFEFE0
03FFFFCFE0
01FFFF0FE0
007FFE0FE0
001FF00000
ENDCHAR
STARTCHAR e
ENCODING 101
SWIDTH 556 0
DWIDTH 40 0
BBX 33 39 3 -1
BITMAP
0007FC0000
003FFF8000
00FFFFC000
01FFFFF000
07FFFFF800
0FFFFFF800
0FF807FC00
1FE001FE00
3FC000FE00
3F8000FE00
7F80007F00
7F00007F00
7F00003F00
7E00003F80
FE00003F80
FE00003F80
FFFFFFFF80
FFFFFFFF80
FFFFFFFF80
FFFFFFFF80
FFFFFFFF80
FE00000000
FE00000000
FE00000000
FE00000000
7F00000000
7F00000000
7F80000000
3F80000000
3FC0000000
1FE0000600
1FF0000E00
0FFC007E00
07FFFFFE00
03FFFFFE00
01FFFFFE00
00FFFFFE00
003FFFF000
0003FF8000
ENDCHAR
STARTCHAR f
ENCODING 102
SWIDTH 389 0
DWIDTH 28 0
BBX 26 55 1 0
BITMAP
00007FC0
0003FFC0
0007FFC0
000FFFC0
001FFFC0
003FFDC0
003FC000
003F8000
003F8000
007F0000
007F0000
007F0000
007F0000
007F0000
007F0000
007F0000
007F0000
007F0000
FFFFFFC0
FFFFFFC0
FFFFFFC0
FFFFFFC0
FFFFFFC0
007F0000
007F0000
007F0000
007F0000
007F0000
007F0000
007F0000
007F0000
007F0000
007F0000
007F0000
007F0000
007F0000
007F0000
007F0000
007F0000
007F0000
007F0000
007F0000
007F0000
007F0000
007F0000
007F0000
007F0000
007F0000
007F0000
007F0000
007F0000
007F0000
007F0000
007F0000
007F0000
ENDCHAR
STARTCHAR g
ENCODING 103
SWIDTH 611 0
DWIDTH 44 0
BBX 35 54 3 -16
BITMAP
000FF80000
007FFF0FE0
00FFFF8FE0
01FFFFCFE0
07FFFFEFE0
07FFFFFFE0
0FF803FFE0
1FF001FFE0
3FE000FFE0
3FC0007FE0
3F80003FE0
7F80003FE0
7F00001FE0
7F00001FE0
FF00001FE0
FE00000FE0
FE00000FE0
FE00000FE0
FE00000FE0
FE00000FE0
FE00000FE0
FE00000FE0
FE00000FE0
FE00000FE0
FF00001FE0
FF00001FE0
7F00003FE0
7F80003FE0
7FC0007FE0
3FC000FFE0
3FE001FFE0
1FF803FFE0
0FFFFFFFE0
07FFFFEFE0
03FFFFCFE0
01FFFF0FE0
007FFE0FE0
001FF00FE0
0000000FE0
0000000FE0
0000001FE0
0000001FC0
0000001FC0
0000003FC0
0000003FC0
1000007F80
1C0000FF80
1F8003FF00
1FFF7FFE00
1FFFFFFC00
1FFFFFF800
1FFFFFF000
03FFFFC000
003FFC0000
ENDCHAR
STARTCHAR h
ENCODING 104
SWIDTH 611 0
DWIDTH 44 0
BBX 33 54 6 0
BITMAP
FE00000000
FE00000000
FE00000000
FE00000000
FE00000000
FE00000000
FE00000000
FE00000000
FE00000000
FE00000000
FE00000000
FE00000000
FE00000000
FE00000000
FE00000000
FE00000000
FE01FF0000
FE0FFFC000
FE1FFFF000
FE7FFFF800
FEFFFFFC00
FEFFFFFE00
FFF803FE00
FFF001FF00
FFE000FF00
FFC0007F00
FF80007F00
FF80007F80
FF00007F80
FF00003F80
FF00003F80
FE00003F80
FE00003F80
FE00003F80
FE00003F80
FE00003F80
FE00003F80
FE00003F80
FE00003F80
FE00003F80
FE00003F80
FE00003F80
FE00003F80
FE00003F80
FE00003F80
FE00003F80
FE00003F80
FE00003F80
FE00003F80
FE00003F80
FE00003F80
FE00003F80
FE00003F80
FE00003F80
ENDCHAR
STARTCHAR i
ENCODING 105
SWIDTH 278 0
DWIDTH 20 0
BBX 7 53 7 0
BITMAP
FE
FE
FE
FE
FE
FE
FE
FE
00
00
00
00
00
00
00
00
FE
FE
FE
FE
FE
FE
FE
FE
FE
FE
FE
FE
FE
FE
FE
FE
FE
FE
FE
FE
FE
FE
FE
FE
FE
FE
FE
FE
FE
FE
FE
FE
FE
FE
FE
FE
FE
ENDCHAR
STARTCHAR j
ENCODING 106
SWIDTH 278 0
DWIDTH 20 0
BBX 15 69 -1 -16
BITMAP
00FE
00FE
00FE
00FE
00FE
00FE
00FE
00FE
0000
0000
0000
0000
0000
0000
0000
0000
00FE
00FE
00FE
00FE
00FE
00FE
00FE
00FE
00FE
00FE
00FE
00FE
00FE
00FE
00FE
00FE
00FE
00FE
00FE
00FE
00FE
00FE
00FE
00FE
00FE
00FE
00FE
00FE
00FE
00FE
00FE
00FE
00FE
00FE
00FE
00FE
00FE
00FE
00FE
00FE
00FE
00FE
00FE
01FE
01FE
03FC
07FC
FFFC
FFF8
FFF0
FFF0
FFC0
FF00
ENDCHAR
STARTCHAR k
ENCODING 107
SWIDTH 556 0
DWIDTH 40 0
BBX 33 54 6 0
BITMAP
FE00000000
FE00000000
FE00000000
FE00000000
FE00000000
FE00000000
FE00000000
FE00000000
FE00000000
FE00000000
FE00000000
FE00000000
FE00000000
FE00000000
FE00000000
FE00000000
FE00000000
FE0007FE00
FE000FF800
FE001FF000
FE003FE000
FE007FC000
FE00FF8000
FE01FF0000
FE03FE0000
FE07FC0000
FE0FF80000
FE1FF00000
FE3FE00000
FE7FC00000
FEFF800000
FFFF000000
FFFE000000
FFFC000000
FFFE000000
FFFF000000
FEFF800000
FE7FC00000
FE3FE00000
FE1FF00000
FE0FF80000
FE07F80000
FE07FC0000
FE03FE0000
FE01FF0000
FE00FF8000
FE007FC000
FE003FE000
FE003FF000
FE001FF800
FE000FFC00
FE0007FE00
FE0003FF00
FE0001FF80
ENDCHAR
STARTCHAR l
ENCODING 108
SWIDTH 278 0
DWIDTH 20 0
BBX 7 54 7 0
BITMAP
FE
FE
FE
FE
FE
FE
FE
FE
FE
FE
FE
FE
FE
FE
FE
FE
FE
FE
FE
FE
FE
FE
FE
FE
FE
FE
FE
FE
FE
FE
FE
FE
FE
FE
FE
FE
FE
FE
FE
FE
FE
FE
FE
FE
FE
FE
FE
FE
FE
FE
FE
FE
FE
FE
ENDCHAR
STARTCHAR m
ENCODING 109
SWIDTH 889 0
DWIDTH 64 0
BBX 53 38 6 0
BITMAP
0003FC0007F000
FE1FFF003FFE00
FE3FFFC07FFF80
FE7FFFE0FFFFC0
FEFFFFE1FFFFC0
FFFF7FF3FEFFE0
FFF00FFFE01FF0
FFE007FFC00FF0
FFC003FF8007F0
FF8003FF0007F8
FF8003FF0007F8
FF0001FE0003F8
FF0001FE0003F8
FF0001FE0003F8
FE0001FC0003F8
FE0001FC0003F8
FE0001FC0003F8
FE0001FC0003F8
FE0001FC0003F8
FE0001FC0003F8
FE0001FC0003F8
FE0001FC0003F8
FE0001FC0003F8
FE0001FC0003F8
FE0001FC0003F8
FE0001FC0003F8
FE0001FC0003F8
FE0001FC0003F8
FE0001FC0003F8
FE0001FC0003F8
FE0001FC0003F8
FE0001FC0003F8
FE0001FC0003F8
FE0001FC0003F8
FE0001FC0003F8
FE0001FC0003F8
FE0001FC0003F8
FE0001FC0003F8
ENDCHAR
STARTCHAR n
ENCODING 110
SWIDTH 611 0
DWIDTH 44 0
BBX 33 38 6 0
BITMAP
0001FF0000
FE0FFFC000
FE1FFFF000
FE7FFFF800
FEFFFFFC00
FEFFFFFE00
FFF803FE00
FFF001FF00
FFE000FF00
FFC0007F00
FF80007F00
FF80007F80
FF00007F80
FF00003F80
FF00003F80
FE00003F80
FE00003F80
FE00003F80
FE00003F80
FE00003F80
FE00003F80
FE00003F80
FE00003F80
FE00003F80
FE00003F80
FE00003F80
FE00003F80
FE00003F80
FE00003F80
FE00003F80
FE00003F80
FE00003F80
FE00003F80
FE00003F80
FE00003F80
FE00003F80
FE00003F80
FE00003F80
ENDCHAR
STARTCHAR o
ENCODING 111
SWIDTH 611 0
DWIDTH 44 0
BBX 37 39 3 -1
BITMAP
0003FE0000
001FFFC000
007FFFF000
01FFFFFC00
03FFFFFE00
07FFDFFF00
0FFC01FF80
1FF0007FC0
1FE0003FC0
3FC0001FE0
3FC0000FE0
7F80000FF0
7F000007F0
7F000007F0
FF000007F8
FE000003F8
FE000003F8
FE000003F8
FE000003F8
FE000003F8
FE000003F8
FE000003F8
FE000003F8
FE000003F8
7F000007F8
7F000007F0
7F000007F0
3F80000FF0
3F80000FE0
3FC0001FE0
1FE0003FC0
0FF0007F80
0FFC01FF80
07FFDFFF00
03FFFFFE00
00FFFFFC00
007FFFF000
001FFFC000
0003FE0000
ENDCHAR
STARTCHAR p
ENCODING 112
SWIDTH 611 0
DWIDTH 44 0
BBX 35 53 6 -15
BITMAP
0001FE0000
FE0FFFC000
FE3FFFF000
FE7FFFF800
FEFFFFFC00
FFFFBFFE00
FFF803FE00
FFF001FF00
FFE000FF80
FFC0007F80
FF80003F80
FF80003FC0
FF00001FC0
FF00001FC0
FF00001FC0
FE00001FE0
FE00000FE0
FE00000FE0
FE00000FE0
FE00000FE0
FE00000FE0
FE00000FE0
FE00001FE0
FE00001FC0
FF00001FC0
FF00001FC0
FF00003FC0
FF80003F80
FF80003F80
FFC0007F80
FFE000FF00
FFF001FF00
FFF803FE00
FFFFBFFE00
FEFFFFFC00
FE7FFFF800
FE3FFFE000
FE0FFFC000
FE03FE0000
FE00000000
FE00000000
FE00000000
FE00000000
FE00000000
FE00000000
FE00000000
FE00000000
FE00000000
FE00000000
FE00000000
FE00000000
FE00000000
FE00000000
ENDCHAR
STARTCHAR q
ENCODING 113
SWIDTH 611 0
DWIDTH 44 0
BBX 35 53 3 -15
BITMAP
001FF00000
007FFE0FE0
01FFFF0FE0
03FFFFCFE0
07FFFFEFE0
0FFFFFFFE0
1FF807FFE0
1FE001FFE0
3FC000FFE0
3F80007FE0
7F80003FE0
7F00003FE0
7F00001FE0
FF00001FE0
FE00001FE0
FE00000FE0
FE00000FE0
FE00000FE0
FE00000FE0
FE00000FE0
FE00000FE0
FE00000FE0
FE00000FE0
FE00000FE0
FE00001FE0
7F00001FE0
7F00001FE0
7F80003FE0
7F80003FE0
3FC0007FE0
3FE000FFE0
1FF001FFE0
1FF803FFE0
0FFFFFFFE0
07FFFFEFE0
03FFFFCFE0
01FFFF8FE0
007FFE0FE0
001FF00FE0
0000000FE0
0000000FE0
0000000FE0
0000000FE0
0000000FE0
0000000FE0
0000000FE0
0000000FE0
0000000FE0
0000000FE0
0000000FE0
0000000FE0
0000000FE0
0000000FE0
ENDCHAR
STARTCHAR r
ENCODING 114
SWIDTH 389 0
DWIDTH 28 0
BBX 21 38 6 0
BITMAP
0007F8
FE1FF8
FE3FF8
FE7FF8
FEFFF8
FFFFF8
FFFC08
FFF000
FFE000
FFC000
FF8000
FF8000
FF0000
FF0000
FF0000
FF0000
FE0000
FE0000
FE0000
FE0000
FE0000
FE0000
FE0000
FE0000
FE0000
FE0000
FE0000
FE0000
FE0000
FE0000
FE0000
FE0000
FE0000
FE0000
FE0000
FE0000
FE0000
FE0000
ENDCHAR
STARTCHAR s
ENCODING 115
SWIDTH 389 0
DWIDTH 28 0
BBX 23 39 2 -1
BITMAP
007FC0
03FFF8
0FFFF8
1FFFF8
3FFFF8
3FFBF8
7F8018
7F0000
FE0000
FE0000
FE0000
FE0000
FF0000
FF8000
7FC000
7FF000
3FFC00
1FFF00
0FFFC0
07FFE0
01FFF0
007FF8
001FFC
000FFC
0003FE
0001FE
0000FE
0000FE
0000FE
0000FE
0001FE
4001FC
7007FC
FFFFF8
FFFFF8
FFFFF0
FFFFE0
7FFF80
0FFC00
ENDCHAR
STARTCHAR t
ENCODING 116
SWIDTH 389 0
DWIDTH 28 0
BBX 25 48 1 -1
BITMAP
00060000
003E0000
00FE0000
00FE0000
00FE0000
00FE0000
00FE0000
00FE0000
00FE0000
00FE0000
FFFFFF80
FFFFFF80
FFFFFF80
FFFFFF80
FFFFFF80
00FE0000
00FE0000
00FE0000
00FE0000
00FE0000
00FE0000
00FE0000
00FE0000
00FE0000
00FE0000
00FE0000
00FE0000
00FE0000
00FE0000
00FE0000
00FE0000
00FE0000
00FE0000
00FE0000
00FE0000
00FE0000
00FE0000
00FE0000
00FE0000
00FF0000
00FF0000
007F8080
007FF780
007FFF80
003FFF80
001FFF80
0007FF80
0001FE00
ENDCHAR
STARTCHAR u
ENCODING 117
SWIDTH 611 0
DWIDTH 44 0
BBX 33 38 5 -1
BITMAP
FE00003F80
FE00003F80
FE00003F80
FE00003F80
FE00003F80
FE00003F80
FE00003F80
FE00003F80
FE00003F80
FE00003F80
FE00003F80
FE00003F80
FE00003F80
FE00003F80
FE00003F80
FE00003F80
FE00003F80
FE00003F80
FE00003F80
FE00003F80
FE00003F80
FE00003F80
FE00003F80
FE00007F80
FE00007F80
FE00007F80
FF0000FF80
7F0000FF80
7F0001FF80
7F8003FF80
7FC007FF80
3FE00FFF80
3FFFFFBF80
1FFFFFBF80
0FFFFF3F80
07FFFC3F80
01FFF83F80
007FC00000
ENDCHAR
STARTCHAR v
ENCODING 118
SWIDTH 500 0
DWIDTH 36 0
BBX 34 37 1 0
BITMAP
FE00001FC0
FE00001FC0
7F00003F80
7F00003F80
7F00003F80
3F80007F00
3F80007F00
1F80007F00
1FC000FE00
1FC000FE00
0FC000FE00
0FE001FC00
0FE001FC00
07E001F800
07F003F800
07F003F800
03F003F000
03F807F000
03F807F000
01FC07E000
01FC0FE000
01FC0FE000
00FE0FC000
00FE1FC000
007E1FC000
007F1F8000
007F1F8000
003F3F0000
003FBF0000
003FBF0000
001FFE0000
001FFE0000
001FFE0000
000FFC0000
000FFC0000
000FFC0000
0007F80000
ENDCHAR
STARTCHAR w
ENCODING 119
SWIDTH 833 0
DWIDTH 60 0
BBX 58 37 1 0
BITMAP
FE00007F80001FC0
FE00007F80003F80
FE0000FFC0003F80
7F0000FFC0003F80
7F0000FFC0003F00
7F0001FFE0007F00
3F8001F7E0007F00
3F8001F7E0007F00
3F8003F3F0007E00
1F8003F3F000FE00
1FC003E3F000FE00
1FC007E3F000FC00
0FC007E1F801FC00
0FE007C1F801FC00
0FE007C1F801F800
07E00FC0FC01F800
07E00F80FC03F800
07F00F80FC03F000
03F01F807E03F000
03F01F807E07F000
03F81F007E07E000
01F83F007E07E000
01F83F003F07E000
01F83E003F0FC000
01FC7E003F0FC000
00FC7E001F8FC000
00FC7C001F9F8000
00FE7C001F9F8000
007EFC000FDF8000
007EFC000FDF8000
007EF8000FFF0000
003FF80007FF0000
003FF80007FF0000
003FF00007FE0000
001FF00007FE0000
001FF00003FE0000
001FE00003FC0000
ENDCHAR
STARTCHAR x
ENCODING 120
SWIDTH 500 0
DWIDTH 36 0
BBX 34 37 1 0
BITMAP
7FC0007F80
3FC0007F00
1FE000FF00
1FF001FE00
0FF001FC00
07F803FC00
07F803F800
03FC07F000
01FE0FE000
01FE0FE000
00FF1FC000
007F1F8000
003FBF8000
003FFF0000
001FFE0000
000FFE0000
000FFC0000
0007F80000
000FFC0000
000FFE0000
001FFE0000
003FFF0000
003FFF8000
007F3F8000
00FF3FC000
00FE1FE000
01FC1FE000
03FC0FF000
03F807F800
07F807F800
0FF003FC00
1FE001FE00
1FE001FE00
3FC000FF00
7F8000FF80
7F80007F80
FF00003FC0
ENDCHAR
STARTCHAR y
ENCODING 121
SWIDTH 500 0
DWIDTH 36 0
BBX 35 53 0 -16
BITMAP
FE00001FE0
7F00001FC0
7F00001FC0
3F00003F80
3F80003F80
3F80003F80
1F80007F00
1FC0007F00
1FC0007F00
0FC000FE00
0FE000FE00
0FE000FC00
07E001FC00
07F001FC00
07F001F800
03F003F800
03F803F800
01F803F000
01F803F000
01FC07F000
00FC07E000
00FC07E000
00FE0FC000
007E0FC000
007E0FC000
007F1F8000
003F1F8000
003F1F8000
001FBF0000
001FBF0000
001FBF0000
000FFE0000
000FFE0000
000FFE0000
0007FC0000
0007FC0000
0007F80000
0003F80000
0003F80000
0003F00000
0007F00000
0007F00000
0007E00000
000FE00000
001FC00000
003FC00000
007F800000
1FFF800000
1FFF000000
1FFE000000
3FFC000000
3FF8000000
3FC0000000
ENDCHAR
STARTCHAR z
ENCODING 122
SWIDTH 500 0
DWIDTH 36 0
BBX 30 37 3 0
BITMAP
FFFFFFF0
FFFFFFF0
FFFFFFF0
FFFFFFF0
FFFFFFF0
000007F0
00000FF0
00001FE0
00001FC0
00003F80
00007F00
0000FF00
0001FE00
0001FC00
0003F800
0007F000
000FE000
001FE000
003FC000
003F8000
007F0000
00FE0000
01FC0000
03FC0000
07F80000
07F00000
0FE00000
1FC00000
3FC00000
7F800000
FF000000
FE000000
FFFFFFFC
FFFFFFFC
FFFFFFFC
FFFFFFFC
FFFFFFFC
ENDCHAR
STARTCHAR braceleft
ENCODING 123
SWIDTH 333 0
DWIDTH 24 0
BBX 20 64 3 -10
BITMAP
000FF0
003FF0
007FF0
00FFF0
01FFF0
01FC00
03F800
03F000
03F000
03F000
03F000
03F000
03F000
03F000
03F000
03F000
03F000
03F000
03F000
03F000
03F000
03F000
03F000
03F000
03F000
07F000
07E000
0FE000
3FC000
FF8000
FF0000
FC0000
FF0000
FF8000
3FC000
1FE000
0FE000
07F000
07F000
03F000
03F000
03F000
03F000
03F000
03F000
03F000
03F000
03F000
03F000
03F000
03F000
03F000
03F000
03F000
03F000
03F000
03F000
03F800
01FC00
01FFF0
00FFF0
007FF0
003FF0
000FF0
ENDCHAR
STARTCHAR bar
ENCODING 124
SWIDTH 222 0
DWIDTH 16 0
BBX 6 72 5 -18
BITMAP
FC
FC
FC
FC
FC
FC
FC
FC
FC
FC
FC
FC
FC
FC
FC
FC
FC
FC
FC
FC
FC
FC
FC
FC
FC
FC
FC
FC
FC
FC
FC
FC
FC
FC
FC
FC
FC
FC
FC
FC
FC
FC
FC
FC
FC
FC
FC
FC
FC
FC
FC
FC
FC
FC
FC
FC
FC
FC
FC
FC
FC
FC
FC
FC
FC
FC
FC
FC
FC
FC
FC
FC
ENDCHAR
STARTCHAR braceright
ENCODING 125
SWIDTH 333 0
DWIDTH 24 0
BBX 20 64 1 -10
BITMAP
FF0000
FFC000
FFE000
FFF000
FFF800
03F800
01FC00
00FC00
00FC00
00FC00
00FC00
00FC00
00FC00
00FC00
00FC00
00FC00
00FC00
00FC00
00FC00
00FC00
00FC00
00FC00
00FC00
00FC00
00FC00
00FE00
007F00
007F00
003FC0
003FF0
000FF0
0003F0
000FF0
001FF0
003FC0
007F80
007F00
00FE00
00FC00
00FC00
00FC00
00FC00
00FC00
00FC00
00FC00
00FC00
00FC00
00FC00
00FC00
00FC00
00FC00
00FC00
00FC00
00FC00
00FC00
00FC00
00FC00
01FC00
03F800
FFF800
FFF000
FFE000
FFC000
FF0000
ENDCHAR
STARTCHAR asciitilde
ENCODING 126
SWIDTH 600 0
DWIDTH 43 0
BBX 33 11 5 13
BITMAP
03F0000200
0FFE000600
1FFF800F00
3FFFF01F00
7FFFFC3F80
FFFFFFFF80
FE1FFFFF00
7803FFFE00
7000FFFC00
30003FF800
200003E000
ENDCHAR
STARTCHAR Zcaron
ENCODING 142
SWIDTH 556 0
DWIDTH 40 0
BBX 35 64 2 0
BITMAP
00FC01F800
007E03F000
003F07E000
003F07E000
001F8FC000
000FDF8000
0007DF0000
0007FF0000
0003FE0000
0001FC0000
0000000000
0000000000
0000000000
0000000000
7FFFFFFFC0
7FFFFFFFC0
7FFFFFFFC0
7FFFFFFFC0
7FFFFFFFC0
7FFFFFFFC0
0000003FC0
0000007FC0
0000007F80
000000FF00
000001FF00
000003FE00
000003FC00
000007F800
00000FF800
00000FF000
00001FE000
00003FE000
00003FC000
00007F8000
0000FF8000
0001FF0000
0001FE0000
0003FC0000
0007FC0000
0007F80000
000FF00000
001FF00000
001FE00000
003FC00000
007FC00000
00FF800000
00FF000000
01FE000000
03FE000000
03FC000000
07F8000000
0FF8000000
0FF0000000
1FE0000000
3FE0000000
7FC0000000
7F80000000
FF00000000
FFFFFFFFE0
FFFFFFFFE0
FFFFFFFFE0
FFFFFFFFE0
FFFFFFFFE0
FFFFFFFFE0
ENDCHAR
STARTCHAR zcaron
ENCODING 158
SWIDTH 500 0
DWIDTH 36 0
BBX 30 52 3 0
BITMAP
07E00FC0
03F01F80
01F83F00
01F83F00
00FC7E00
007EFC00
003EF800
003FF800
001FF000
000FE000
00000000
00000000
00000000
00000000
00000000
FFFFFFF0
FFFFFFF0
FFFFFFF0
FFFFFFF0
FFFFFFF0
000007F0
00000FF0
00001FE0
00001FC0
00003F80
00007F00
0000FF00
0001FE00
0001FC00
0003F800
0007F000
000FE000
001FE000
003FC000
003F8000
007F0000
00FE0000
01FC0000
03FC0000
07F80000
07F00000
0FE00000
1FC00000
3FC00000
7F800000
FF000000
FE000000
FFFFFFFC
FFFFFFFC
FFFFFFFC
FFFFFFFC
FFFFFFFC
ENDCHAR
STARTCHAR nonbreakingspace
ENCODING 160
SWIDTH 278 0
DWIDTH 20 0
BBX 1 1 0 0
BITMAP
00
ENDCHAR
STARTCHAR exclamdown
ENCODING 161
SWIDTH 389 0
DWIDTH 28 0
BBX 8 51 10 -14
BITMAP
FF
FF
FF
FF
FF
FF
FF
FF
00
00
00
00
00
00
00
7E
7E
7E
7E
7E
7E
7E
7E
7E
7E
7E
7E
7E
7E
7F
7F
FF
FF
FF
FF
FF
FF
FF
FF
FF
FF
FF
FF
FF
FF
FF
FF
FF
FF
FF
FF
ENDCHAR
STARTCHAR cent
ENCODING 162
SWIDTH 556 0
DWIDTH 40 0
BBX 27 56 6 -10
BITMAP
000003C0
000003C0
00000780
00000780
00000780
00000F80
00000F00
00000F00
0003FF00
001FFFE0
007FFFE0
01FFFFE0
03FFFFE0
07FFFFE0
0FFC3C40
1FF83C00
1FE07800
3FC07800
3FC07800
7F80F800
7F80F000
7F00F000
FF00F000
FE01E000
FE01E000
FE01E000
FE03E000
FE03C000
FE03C000
FE03C000
FE07C000
FE078000
7F078000
7F078000
7F0F0000
7F8F0000
3FCF0000
3FDF0000
1FFE0000
0FFE0020
07FE0060
07FFEFE0
03FFFFE0
00FFFFE0
007FFFE0
007FFFE0
007BFF00
00F80000
00F00000
00F00000
00F00000
01E00000
01E00000
01E00000
03E00000
03C00000
ENDCHAR
STARTCHAR sterling
ENCODING 163
SWIDTH 556 0
DWIDTH 40 0
BBX 33 51 4 0
BITMAP
00000FFC00
0000FFFF80
0001FFFF80
0007FFFF80
000FFFFF00
001FFFFF00
003FFE1F00
003FE00100
007FC00000
007F800000
00FF000000
00FE000000
00FE000000
01FE000000
01FC000000
01FC000000
01FC000000
01FC000000
01FC000000
01FC000000
01FC000000
01FC000000
7FFFFFC000
7FFFFFC000
7FFFFFC000
7FFFFFC000
01FC000000
01FC000000
01FC000000
01FC000000
01FC000000
01FC000000
01FC000000
01FC000000
01FC000000
01FC000000
01FC000000
01FC000000
01FC000000
01FC000000
01FC000000
01FC000000
01FC000000
01FC000000
01FC000000
FFFFFFFF00
FFFFFFFF00
FFFFFFFF00
FFFFFFFF00
FFFFFFFF00
FFFFFFFF00
ENDCHAR
STARTCHAR currency
ENCODING 164
SWIDTH 556 0
DWIDTH 40 0
BBX 36 36 2 7
BITMAP
3003FC00C0
781FFF81E0
FC7FFFE3F0
FFFFFFFFF0
7FFFFFFFE0
3FFFFFFFC0
1FFC03FF80
1FF000FF80
1FE0007F80
3FC0003FC0
7F80001FE0
7F00000FE0
7F00000FE0
FE000007E0
FE000007F0
FE000007F0
FC000003F0
FC000003F0
FC000003F0
FC000003F0
FE000007F0
FE000007F0
7E000007E0
7F00000FE0
7F00000FE0
3F80001FC0
3FC0003FC0
1FE0007F80
0FF000FF80
1FFC03FF80
3FFFFFFFC0
7FFFFFFFE0
FFFFFFFFF0
FC7FFFE3F0
781FFF81E0
3003FC00C0
ENDCHAR
STARTCHAR yen
ENCODING 165
SWIDTH 556 0
DWIDTH 40 0
BBX 39 50 0 0
BITMAP
FF000001FE
7F800003FC
7F800003FC
3FC00007F8
3FC00007F0
1FE0000FF0
0FE0000FE0
0FF0001FE0
07F0001FC0
07F8003FC0
03F8003F80
03FC007F80
01FC007F00
01FE00FF00
00FF00FE00
00FF01FE00
007F81FC00
003F83F800
003FC3F800
001FC7F000
001FE7F000
000FEFE000
000FFFE000
0007FFC000
03FFFFFF80
03FFFFFF80
03FFFFFF80
03FFFFFF80
0000FE0000
0000FE0000
0000FE0000
0000FE0000
0000FE0000
0000FE0000
03FFFFFF80
03FFFFFF80
03FFFFFF80
03FFFFFF80
0000FE0000
0000FE0000
0000FE0000
0000FE0000
0000FE0000
0000FE0000
0000FE0000
0000FE0000
0000FE0000
0000FE0000
0000FE0000
0000FE0000
ENDCHAR
STARTCHAR brokenbar
ENCODING 166
SWIDTH 222 0
DWIDTH 16 0
BBX 6 62 5 -13
BITMAP
FC
FC
FC
FC
FC
FC
FC
FC
FC
FC
FC
FC
FC
FC
FC
FC
FC
FC
FC
FC
FC
FC
FC
FC
FC
00
00
00
00
00
00
00
00
00
00
00
00
FC
FC
FC
FC
FC
FC
FC
FC
FC
FC
FC
FC
FC
FC
FC
FC
FC
FC
FC
FC
FC
FC
FC
FC
FC
ENDCHAR
STARTCHAR section
ENCODING 167
SWIDTH 556 0
DWIDTH 40 0
BBX 28 60 6 -9
BITMAP
001FF800
01FFFF80
07FFFF80
0FFFFF80
1FFFFF80
3FFFFF80
7FE00780
7F800080
FF000000
FE000000
FE000000
FE000000
FE000000
FF000000
FF000000
7FC00000
7FE00000
3FFC0000
1FFF0000
0FFFE000
07FFFC00
1FFFFE00
3F7FFF80
7E0FFFC0
7E01FFE0
FC007FE0
FC001FF0
FC000FF0
FC0007F0
FC0003F0
FE0003F0
FF0003F0
FF8003F0
7FE003F0
7FF807F0
3FFF07E0
1FFFEFC0
0FFFFF80
03FFFF00
00FFFF00
003FFF80
0007FFC0
0000FFE0
00003FE0
00000FF0
000007F0
000007F0
000007F0
000007F0
000007F0
00000FF0
00000FE0
60003FE0
7C00FFC0
FFFFFFC0
FFFFFF80
FFFFFF00
FFFFFC00
7FFFF000
07FF0000
ENDCHAR
STARTCHAR dieresis
ENCODING 168
SWIDTH 278 0
DWIDTH 20 0
BBX 19 7 1 43
BITMAP
FE0FE0
FE0FE0
FE0FE0
FE0FE0
FE0FE0
FE0FE0
FE0FE0
ENDCHAR
STARTCHAR copyright
ENCODING 169
SWIDTH 800 0
DWIDTH 58 0
BBX 52 52 3 -1
BITMAP
000007FE000000
00007FFFE00000
0001FFFFF80000
0007FFFFFE0000
001FFFFFFF8000
003FFC03FFC000
007FC0003FE000
00FF00000FF000
01FE000007F800
03F8000001FC00
07F000F800FE00
0FE00FFF007F00
0FE03FFFC07F00
1FC07FFFE03F80
1F80FFFFF01F80
3F81FF8FF81FC0
3F03FC01FC0FC0
7F03F000FC0FE0
7E07F0007C07E0
7E07E0007E07E0
7E07C0003E07E0
FC0FC0000003F0
FC0FC0000003F0
FC0FC0000003F0
FC0F80000003F0
FC0F80000003F0
FC0F80000003F0
FC0F80000003F0
FC0FC0000003F0
FC0FC0000003F0
FC0FC0000003F0
7E07C0003E07E0
7E07E0007E07E0
7E07F0007C07E0
7F03F800FC0FE0
3F03FC01F80FC0
3F81FF07F81FC0
1F80FFFFF01F80
1FC07FFFE03F80
0FE03FFFC07F00
0FE00FFF007F00
07F001FC00FE00
03F8000001FC00
01FE000007F800
00FF00000FF000
007FC0003FE000
003FFC03FFC000
001FFFFFFF8000
0007FFFFFE0000
0001FFFFF80000
00007FFFE00000
000007FE000000
ENDCHAR
STARTCHAR ordfeminine
ENCODING 170
SWIDTH 361 0
DWIDTH 26 0
BBX 22 23 2 28
BITMAP
03FF00
1FFFC0
3FFFF0
3FFFF8
1E07F8
1001F8
2001FC
0000FC
0000FC
01FFFC
0FFFFC
3FFFFC
7FFFFC
FF00FC
FC00FC
FC00FC
F800FC
FC01FC
FF07FC
FFFFFC
7FFEFC
1FFCFC
07F000
ENDCHAR
STARTCHAR guillemotleft
ENCODING 171
SWIDTH 556 0
DWIDTH 40 0
BBX 32 29 4 5
BITMAP
003F807F
007F00FE
00FE01FC
00FC01F8
01FC03F8
03F807F0
03F007E0
07F00FE0
0FE01FC0
0FC01F80
1FC03F80
3F807F00
7F00FE00
7F00FE00
FE01FC00
7F00FE00
7F00FE00
3F807F00
1FC03F80
0FC01F80
0FE01FC0
07F00FE0
03F007E0
03F807F0
01FC03F8
00FC01F8
00FE01FC
007F00FE
003F807F
ENDCHAR
STARTCHAR logicalnot
ENCODING 172
SWIDTH 600 0
DWIDTH 43 0
BBX 36 21 3 8
BITMAP
FFFFFFFFF0
FFFFFFFFF0
FFFFFFFFF0
FFFFFFFFF0
FFFFFFFFF0
FFFFFFFFF0
00000003F0
00000003F0
00000003F0
00000003F0
00000003F0
00000003F0
00000003F0
00000003F0
00000003F0
00000003F0
00000003F0
00000003F0
00000003F0
00000003F0
00000003F0
ENDCHAR
STARTCHAR hyphen.dup1
ENCODING 173
SWIDTH 333 0
DWIDTH 24 0
BBX 18 5 3 17
BITMAP
FFFFC0
FFFFC0
FFFFC0
FFFFC0
FFFFC0
ENDCHAR
STARTCHAR registered
ENCODING 174
SWIDTH 800 0
DWIDTH 58 0
BBX 52 52 3 -1
BITMAP
000007FE000000
00007FFFE00000
0001FFFFF80000
0007FFFFFE0000
001FFFFFFF8000
003FFC03FFC000
007FC0003FE000
00FF00000FF000
01FE000007F800
03F8000001FC00
07F0000000FE00
0FE0FFFC007F00
0FE0FFFFC07F00
1FC0FFFFE03F80
1F80FFFFF01F80
3F80F807F81FC0
3F00F801F80FC0
7F00F800FC0FE0
7E00F800FC07E0
7E00F800FC07E0
7E00F800FC07E0
FC00F800FC03F0
FC00F801F803F0
FC00F807F803F0
FC00FFFFF803F0
FC00FFFFF003F0
FC00FFFFC003F0
FC00FFFE0003F0
FC00F87E0003F0
FC00F83E0003F0
FC00F83F0003F0
7E00F81F0007E0
7E00F80F8007E0
7E00F80FC007E0
7F00F807C00FE0
3F00F807E00FC0
3F80F803E01FC0
1F80F801F01F80
1FC0F801F83F80
0FE0F800F87F00
0FE0F800FC7F00
07F0000000FE00
03F8000001FC00
01FE000007F800
00FF00000FF000
007FC0003FE000
003FFC03FFC000
001FFFFFFF8000
0007FFFFFE0000
0001FFFFF80000
00007FFFE00000
000007FE000000
ENDCHAR
STARTCHAR macron
ENCODING 175
SWIDTH 278 0
DWIDTH 20 0
BBX 21 4 -1 44
BITMAP
FFFFF8
FFFFF8
FFFFF8
FFFFF8
ENDCHAR
STARTCHAR degree
ENCODING 176
SWIDTH 400 0
DWIDTH 29 0
BBX 21 21 4 30
BITMAP
01FC00
07FF00
0FFF80
1FFFC0
3FFFE0
7E03F0
7C01F0
F800F8
F800F8
F800F8
F800F8
F800F8
F800F8
F800F8
7C01F0
7E03F0
3FFFE0
1FFFC0
0FFF80
07FF00
01FC00
ENDCHAR
STARTCHAR plusminus
ENCODING 177
SWIDTH 600 0
DWIDTH 43 0
BBX 36 37 3 0
BITMAP
0001F80000
0001F80000
0001F80000
0001F80000
0001F80000
0001F80000
0001F80000
0001F80000
0001F80000
0001F80000
0001F80000
FFFFFFFFF0
FFFFFFFFF0
FFFFFFFFF0
FFFFFFFFF0
FFFFFFFFF0
FFFFFFFFF0
0001F80000
0001F80000
0001F80000
0001F80000
0001F80000
0001F80000
0001F80000
0001F80000
0001F80000
0001F80000
0001F80000
0000000000
0000000000
0000000000
FFFFFFFFF0
FFFFFFFFF0
FFFFFFFFF0
FFFFFFFFF0
FFFFFFFFF0
FFFFFFFFF0
ENDCHAR
STARTCHAR twosuperior
ENCODING 178
SWIDTH 361 0
DWIDTH 26 0
BBX 22 31 2 20
BITMAP
07FC00
3FFF80
7FFFC0
7FFFE0
3FFFF0
3C0FF0
2003F8
0001F8
0001F8
0001F8
0001F8
0003F0
0003F0
0007E0
000FE0
000FC0
001F80
003F80
007F00
00FE00
03FC00
07F800
0FF000
1FE000
3FC000
FF0000
FFFFFC
FFFFFC
FFFFFC
FFFFFC
FFFFFC
ENDCHAR
STARTCHAR threesuperior
ENCODING 179
SWIDTH 361 0
DWIDTH 26 0
BBX 21 31 2 20
BITMAP
07FC00
7FFF80
7FFFC0
7FFFE0
7FFFF0
780FF0
4003F8
0001F8
0001F8
0003F0
0007F0
001FE0
0FFFC0
0FFF80
0FFC00
0FFF80
0FFFC0
001FE0
0007F0
0003F8
0001F8
0001F8
0001F8
0001F8
8003F8
E01FF0
FFFFF0
FFFFE0
FFFFC0
FFFF80
1FF800
ENDCHAR
STARTCHAR acute
ENCODING 180
SWIDTH 278 0
DWIDTH 20 0
BBX 14 10 6 42
BITMAP
03FC
07F8
0FF0
0FE0
1FC0
1F80
3F00
7E00
7C00
F800
ENDCHAR
STARTCHAR mu
ENCODING 181
SWIDTH 611 0
DWIDTH 44 0
BBX 33 52 6 -15
BITMAP
FE00003F80
FE00003F80
FE00003F80
FE00003F80
FE00003F80
FE00003F80
FE00003F80
FE00003F80
FE00003F80
FE00003F80
FE00003F80
FE00003F80
FE00003F80
FE00003F80
FE00003F80
FE00003F80
FE00003F80
FE00003F80
FE00003F80
FE00003F80
FE00003F80
FE00003F80
FE00003F80
FE00007F80
FE00007F80
FE00007F80
FF0000FF80
FF0000FF80
FF0001FF80
FF8003FF80
FFC007FF80
FFE00FFF80
FFFFFFBF80
FFFFFFBF80
FFFFFF3F80
FFFFFC3F80
FFFFF83F80
FE7FC00000
FE00000000
FE00000000
FE00000000
FE00000000
FE00000000
FE00000000
FE00000000
FE00000000
FE00000000
FE00000000
FE00000000
FE00000000
FE00000000
FE00000000
ENDCHAR
STARTCHAR paragraph
ENCODING 182
SWIDTH 600 0
DWIDTH 43 0
BBX 37 58 1 -8
BITMAP
000FFFFFF8
00FFFFFFF8
03FFFFFFF8
07FFFFFFF8
1FFFFFFFF8
1FFFFC01F8
3FFFFC01F8
7FFFFC01F8
7FFFFC01F8
7FFFFC01F8
7FFFFC01F8
7FFFFC01F8
FFFFFC01F8
FFFFFC01F8
FFFFFC01F8
7FFFFC01F8
7FFFFC01F8
7FFFFC01F8
3FFFFC01F8
3FFFFC01F8
1FFFFC01F8
0FFFFC01F8
07FFFC01F8
03FFFC01F8
00FFFC01F8
001FFC01F8
0000FC01F8
0000FC01F8
0000FC01F8
0000FC01F8
0000FC01F8
0000FC01F8
0000FC01F8
0000FC01F8
0000FC01F8
0000FC01F8
0000FC01F8
0000FC01F8
0000FC01F8
0000FC01F8
0000FC01F8
0000FC01F8
0000FC01F8
0000FC01F8
0000FC01F8
0000FC01F8
0000FC01F8
0000FC01F8
0000FC01F8
0000FC01F8
0000FC01F8
0000FC01F8
0000FC01F8
0000FC01F8
0000FC01F8
0000FC01F8
0000FC01F8
0000FC01F8
ENDCHAR
STARTCHAR periodcentered
ENCODING 183
SWIDTH 278 0
DWIDTH 20 0
BBX 9 9 6 17
BITMAP
1E00
7F00
FF80
FF80
FF80
FF80
7F80
7F00
1E00
ENDCHAR
STARTCHAR cedilla
ENCODING 184
SWIDTH 278 0
DWIDTH 20 0
BBX 15 16 7 -16
BITMAP
01E0
0380
0780
0F00
0FF0
1FFC
1FFE
107E
003E
003E
003E
003E
60FE
FFFC
FFF0
1FC0
ENDCHAR
STARTCHAR onesuperior
ENCODING 185
SWIDTH 361 0
DWIDTH 26 0
BBX 13 30 4 21
BITMAP
01F8
03F8
07F8
1FF8
3FF8
7FF8
FDF8
71F8
21F8
01F8
01F8
01F8
01F8
01F8
01F8
01F8
01F8
01F8
01F8
01F8
01F8
01F8
01F8
01F8
01F8
01F8
01F8
01F8
01F8
01F8
ENDCHAR
STARTCHAR ordmasculine
ENCODING 186
SWIDTH 397 0
DWIDTH 29 0
BBX 25 23 2 28
BITMAP
007F8000
03FFE000
0FFFF800
1FFFFC00
3FC1FE00
3F007E00
7E003F00
7E003F00
FC001F80
FC001F80
FC001F80
FC001F80
FC001F80
FC001F80
FC001F80
7E003F00
7E003F00
3F007E00
3FC1FE00
1FFFFC00
07FFF000
03FFE000
007F0000
ENDCHAR
STARTCHAR guillemotright
ENCODING 187
SWIDTH 556 0
DWIDTH 40 0
BBX 32 29 4 5
BITMAP
FE01FC00
7F00FE00
3F807F00
1F803F00
1FC03F80
0FE01FC0
07E00FC0
07F00FE0
03F807F0
01F803F0
01FC03F8
00FE01FC
007F00FE
007F00FE
003F807F
007F00FE
007F00FE
00FE01FC
01FC03F8
01F803F0
03F807F0
07F00FE0
07E00FC0
0FE01FC0
1FC03F80
1F803F00
3F807F00
7F00FE00
FE01FC00
ENDCHAR
STARTCHAR onequarter
ENCODING 188
SWIDTH 834 0
DWIDTH 60 0
BBX 55 54 3 -2
BITMAP
0000000003E000
01F8000007E000
03F8000007C000
0FF800000F8000
1FF800000F8000
3FF800001F0000
FFF800003F0000
FDF800003E0000
71F800007C0000
61F800007C0000
01F80000F80000
01F80000F80000
01F80001F00000
01F80003F00000
01F80003E00000
01F80007C00000
01F80007C00000
01F8000F800000
01F8001F800000
01F8001F000000
01F8003F000000
01F8003E000000
01F8007C001FE0
01F8007C003FE0
01F800F8007FE0
01F801F8007FE0
01F801F000FFE0
01F803F001FFE0
01F803E001F7E0
01F807C003E7E0
01F807C007E7E0
00000F8007C7E0
00001F800F87E0
00001F001F87E0
00003E001F07E0
00003E003E07E0
00007C007E07E0
00007C00FC07E0
0000F800F807E0
0001F801F807E0
0001F003F007E0
0003E003FFFFFE
0003E003FFFFFE
0007C003FFFFFE
000FC003FFFFFE
000F8003FFFFFE
001F80000007E0
001F00000007E0
003E00000007E0
003E00000007E0
007C00000007E0
00FC00000007E0
00F80000000000
01F00000000000
ENDCHAR
STARTCHAR onehalf
ENCODING 189
SWIDTH 834 0
DWIDTH 60 0
BBX 55 54 3 -2
BITMAP
000000000F8000
01F800001F8000
03F800001F0000
0FF800003E0000
1FF800003E0000
3FF800007C0000
FFF80000FC0000
FDF80000F80000
71F80001F00000
61F80001F00000
01F80003E00000
01F80003E00000
01F80007C00000
01F8000FC00000
01F8000F800000
01F8001F000000
01F8001F000000
01F8003E000000
01F8007E000000
01F8007C000000
01F800FC000000
01F800F803FE00
01F801F01FFFC0
01F801F03FFFE0
01F803E03FFFF0
01F807E01FFFF8
01F807C01E07F8
01F80FC01001FC
01F80F800000FC
01F81F000000FC
01F81F000000FC
00003E000000FC
00007E000001F8
00007C000001F8
0000F8000003F0
0000F8000007F0
0001F0000007E0
0001F000000FC0
0003E000001FC0
0007E000003F80
0007C000007F00
000F800001FE00
000F800003FC00
001F000007F800
003F00000FF000
003E00001FE000
007E00007F8000
007C00007FFFFE
00F800007FFFFE
00F800007FFFFE
01F000007FFFFE
03F000007FFFFE
03E00000000000
07C00000000000
ENDCHAR
STARTCHAR threequarters
ENCODING 190
SWIDTH 834 0
DWIDTH 60 0
BBX 56 54 2 -2
BITMAP
00000000003E00
07FC0000007E00
7FFF8000007C00
7FFFC00000F800
7FFFE00000F800
7FFFF00001F000
780FF00003F000
4003F80003E000
0001F80007C000
0001F80007C000
0003F0000F8000
0007F0000F8000
001FE0001F0000
0FFFC0003F0000
0FFF80003E0000
0FFC00007C0000
0FFF80007C0000
0FFFC000F80000
001FE001F80000
0007F001F00000
0003F803F00000
0001F803E00000
0001F807C00FF0
0001F807C01FF0
0001F80F803FF0
8003F81F803FF0
E01FF01F007FF0
FFFFF03F00FFF0
FFFFE03E00FBF0
FFFFC07C01F3F0
FFFF807C03F3F0
1FF800F803E3F0
000001F807C3F0
000001F00FC3F0
000003E00F83F0
000003E01F03F0
000007C03F03F0
000007C07E03F0
00000F807C03F0
00001F80FC03F0
00001F01F803F0
00003E01FFFFFF
00003E01FFFFFF
00007C01FFFFFF
0000FC01FFFFFF
0000F801FFFFFF
0001F8000003F0
0001F0000003F0
0003E0000003F0
0003E0000003F0
0007C0000003F0
000FC0000003F0
000F8000000000
001F0000000000
ENDCHAR
STARTCHAR questiondown
ENCODING 191
SWIDTH 500 0
DWIDTH 36 0
BBX 28 51 3 -14
BITMAP
001FE000
001FE000
001FE000
001FE000
001FE000
001FE000
001FE000
001FE000
00000000
00000000
00000000
00000000
00000000
00000000
000FC000
000FC000
000FC000
001FC000
001FC000
001FC000
003FC000
007F8000
007F8000
00FF0000
01FE0000
03FC0000
07FC0000
07F80000
0FF00000
1FE00000
3FC00000
3F800000
7F800000
7F000000
7F000000
FE000000
FE000000
FE000000
FE000000
FF000000
FF000000
7F800000
7FC00020
3FE000E0
3FFE1FE0
1FFFFFF0
0FFFFFF0
07FFFFF0
03FFFFF0
00FFFF80
001FFC00
ENDCHAR
STARTCHAR Agrave
ENCODING 192
SWIDTH 722 0
DWIDTH 52 0
BBX 49 64 1 0
BITMAP
0000FF00000000
00007F80000000
00003F80000000
00001FC0000000
00000FE0000000
000007E0000000
000003F0000000
000001F0000000
000000F8000000
0000007C000000
00000000000000
00000000000000
00000000000000
00000000000000
000007F0000000
00000FF8000000
00000FF8000000
00001FF8000000
00001FFC000000
00001FFC000000
00003FFE000000
00003F7E000000
00007F7F000000
00007E7F000000
0000FE3F000000
0000FC3F800000
0000FC1F800000
0001F81FC00000
0001F80FC00000
0003F80FE00000
0003F00FE00000
0007F007E00000
0007E007F00000
0007E003F00000
000FE003F80000
000FC001F80000
001FC001FC0000
001F8001FC0000
003F8000FC0000
003F0000FE0000
003F00007E0000
007F00007F0000
007E00007F0000
00FE00003F8000
00FC00003F8000
01FFFFFFFF8000
01FFFFFFFFC000
01FFFFFFFFC000
03FFFFFFFFE000
03FFFFFFFFE000
07FFFFFFFFF000
07F0000007F000
0FE0000003F000
0FE0000003F800
0FC0000003F800
1FC0000001FC00
1FC0000001FC00
3F80000000FC00
3F80000000FE00
7F00000000FE00
7F000000007F00
7F000000007F00
FE000000003F80
FE000000003F80
ENDCHAR
STARTCHAR Aacute
ENCODING 193
SWIDTH 722 0
DWIDTH 52 0
BBX 49 64 1 0
BITMAP
0000001FE00000
0000003FC00000
0000007F800000
0000007F000000
000000FE000000
000000FC000000
000001F8000000
000003F0000000
000003E0000000
000007C0000000
00000000000000
00000000000000
00000000000000
00000000000000
000007F0000000
00000FF8000000
00000FF8000000
00001FF8000000
00001FFC000000
00001FFC000000
00003FFE000000
00003F7E000000
00007F7F000000
00007E7F000000
0000FE3F000000
0000FC3F800000
0000FC1F800000
0001F81FC00000
0001F80FC00000
0003F80FE00000
0003F00FE00000
0007F007E00000
0007E007F00000
0007E003F00000
000FE003F80000
000FC001F80000
001FC001FC0000
001F8001FC0000
003F8000FC0000
003F0000FE0000
003F00007E0000
007F00007F0000
007E00007F0000
00FE00003F8000
00FC00003F8000
01FFFFFFFF8000
01FFFFFFFFC000
01FFFFFFFFC000
03FFFFFFFFE000
03FFFFFFFFE000
07FFFFFFFFF000
07F0000007F000
0FE0000003F000
0FE0000003F800
0FC0000003F800
1FC0000001FC00
1FC0000001FC00
3F80000000FC00
3F80000000FE00
7F00000000FE00
7F000000007F00
7F000000007F00
FE000000003F80
FE000000003F80
ENDCHAR
STARTCHAR Acircumflex
ENCODING 194
SWIDTH 722 0
DWIDTH 52 0
BBX 49 64 1 0
BITMAP
000003F8000000
000007FC000000
00000FFE000000
00000FBE000000
00001FBF000000
00003F1F800000
00007E0FC00000
00007E0FC00000
0000FC07E00000
0001F803F00000
00000000000000
00000000000000
00000000000000
00000000000000
000007F0000000
00000FF8000000
00000FF8000000
00001FF8000000
00001FFC000000
00001FFC000000
00003FFE000000
00003F7E000000
00007F7F000000
00007E7F000000
0000FE3F000000
0000FC3F800000
0000FC1F800000
0001F81FC00000
0001F80FC00000
0003F80FE00000
0003F00FE00000
0007F007E00000
0007E007F00000
0007E003F00000
000FE003F80000
000FC001F80000
001FC001FC0000
001F8001FC0000
003F8000FC0000
003F0000FE0000
003F00007E0000
007F00007F0000
007E00007F0000
00FE00003F8000
00FC00003F8000
01FFFFFFFF8000
01FFFFFFFFC000
01FFFFFFFFC000
03FFFFFFFFE000
03FFFFFFFFE000
07FFFFFFFFF000
07F0000007F000
0FE0000003F000
0FE0000003F800
0FC0000003F800
1FC0000001FC00
1FC0000001FC00
3F80000000FC00
3F80000000FE00
7F00000000FE00
7F000000007F00
7F000000007F00
FE000000003F80
FE000000003F80
ENDCHAR
STARTCHAR Atilde
ENCODING 195
SWIDTH 722 0
DWIDTH 52 0
BBX 49 62 1 0
BITMAP
00007E00380000
0000FF80780000
0001FFF0700000
0003FFFFF00000
0003FFFFF00000
000383FFE00000
0007007FC00000
0007001F800000
00000000000000
00000000000000
00000000000000
00000000000000
000007F0000000
00000FF8000000
00000FF8000000
00001FF8000000
00001FFC000000
00001FFC000000
00003FFE000000
00003F7E000000
00007F7F000000
00007E7F000000
0000FE3F000000
0000FC3F800000
0000FC1F800000
0001F81FC00000
0001F80FC00000
0003F80FE00000
0003F00FE00000
0007F007E00000
0007E007F00000
0007E003F00000
000FE003F80000
000FC001F80000
001FC001FC0000
001F8001FC0000
003F8000FC0000
003F0000FE0000
003F00007E0000
007F00007F0000
007E00007F0000
00FE00003F8000
00FC00003F8000
01FFFFFFFF8000
01FFFFFFFFC000
01FFFFFFFFC000
03FFFFFFFFE000
03FFFFFFFFE000
07FFFFFFFFF000
07F0000007F000
0FE0000003F000
0FE0000003F800
0FC0000003F800
1FC0000001FC00
1FC0000001FC00
3F80000000FC00
3F80000000FE00
7F00000000FE00
7F000000007F00
7F000000007F00
FE000000003F80
FE000000003F80
ENDCHAR
STARTCHAR Adieresis
ENCODING 196
SWIDTH 722 0
DWIDTH 52 0
BBX 49 62 1 0
BITMAP
0000FE0FE00000
0000FE0FE00000
0000FE0FE00000
0000FE0FE00000
0000FE0FE00000
0000FE0FE00000
0000FE0FE00000
00000000000000
00000000000000
00000000000000
00000000000000
00000000000000
000007F0000000
00000FF8000000
00000FF8000000
00001FF8000000
00001FFC000000
00001FFC000000
00003FFE000000
00003F7E000000
00007F7F000000
00007E7F000000
0000FE3F000000
0000FC3F800000
0000FC1F800000
0001F81FC00000
0001F80FC00000
0003F80FE00000
0003F00FE00000
0007F007E00000
0007E007F00000
0007E003F00000
000FE003F80000
000FC001F80000
001FC001FC0000
001F8001FC0000
003F8000FC0000
003F0000FE0000
003F00007E0000
007F00007F0000
007E00007F0000
00FE00003F8000
00FC00003F8000
01FFFFFFFF8000
01FFFFFFFFC000
01FFFFFFFFC000
03FFFFFFFFE000
03FFFFFFFFE000
07FFFFFFFFF000
07F0000007F000
0FE0000003F000
0FE0000003F800
0FC0000003F800
1FC0000001FC00
1FC0000001FC00
3F80000000FC00
3F80000000FE00
7F00000000FE00
7F000000007F00
7F000000007F00
FE000000003F80
FE000000003F80
ENDCHAR
STARTCHAR Aring
ENCODING 197
SWIDTH 722 0
DWIDTH 52 0
BBX 49 67 1 0
BITMAP
000001F0000000
000007FC000000
00000FFE000000
00001E0F000000
00001C07000000
00003803800000
00003803800000
00003803800000
00003803800000
00003803800000
00001C07000000
00001E0F000000
00000FFE000000
000007FC000000
000001F0000000
00000000000000
00000000000000
000007F0000000
00000FF8000000
00000FF8000000
00001FF8000000
00001FFC000000
00001FFC000000
00003FFE000000
00003F7E000000
00007F7F000000
00007E7F000000
0000FE3F000000
0000FC3F800000
0000FC1F800000
0001F81FC00000
0001F80FC00000
0003F80FE00000
0003F00FE00000
0007F007E00000
0007E007F00000
0007E003F00000
000FE003F80000
000FC001F80000
001FC001FC0000
001F8001FC0000
003F8000FC0000
003F0000FE0000
003F00007E0000
007F00007F0000
007E00007F0000
00FE00003F8000
00FC00003F8000
01FFFFFFFF8000
01FFFFFFFFC000
01FFFFFFFFC000
03FFFFFFFFE000
03FFFFFFFFE000
07FFFFFFFFF000
07F0000007F000
0FE0000003F000
0FE0000003F800
0FC0000003F800
1FC0000001FC00
1FC0000001FC00
3F80000000FC00
3F80000000FE00
7F00000000FE00
7F000000007F00
7F000000007F00
FE000000003F80
FE000000003F80
ENDCHAR
STARTCHAR AE
ENCODING 198
SWIDTH 944 0
DWIDTH 68 0
BBX 63 50 0 0
BITMAP
00000003FFFFFFFC
00000003FFFFFFFC
00000007FFFFFFFC
00000007FFFFFFFC
0000000FFFFFFFFC
0000001FFFFFFFFC
0000001FDFC00000
0000003F9FC00000
0000007F8FE00000
0000007F0FE00000
000000FF0FE00000
000000FE0FE00000
000001FC0FE00000
000003FC0FE00000
000003F80FE00000
000007F80FE00000
000007F00FE00000
00000FE00FE00000
00001FE00FE00000
00001FC00FE00000
00003FC00FE00000
00003F800FFFFFF8
00007F000FFFFFF8
0000FF000FFFFFF8
0000FE000FFFFFF8
0001FE0007FFFFF8
0001FC0007FFFFF8
0003F80007F00000
0007F80007F00000
0007F00007F00000
000FF00007F00000
001FFFFFFFF00000
001FFFFFFFF00000
003FFFFFFFF00000
003FFFFFFFF00000
007FFFFFFFF00000
00FFFFFFFFF00000
00FF000007F00000
01FE000007F00000
01FC000007F00000
03FC000007F00000
07F8000007F00000
07F8000003F80000
0FF0000003F80000
0FE0000003FFFFFE
1FE0000003FFFFFE
3FC0000003FFFFFE
3FC0000003FFFFFE
7F80000003FFFFFE
FF80000003FFFFFE
ENDCHAR
STARTCHAR Ccedilla
ENCODING 199
SWIDTH 611 0
DWIDTH 44 0
BBX 38 67 4 -16
BITMAP
000007FF80
00007FFFF0
0003FFFFFC
000FFFFFFC
001FFFFFFC
007FFFFFFC
00FFFF87FC
01FFE00038
03FF800008
07FE000000
07FC000000
0FF8000000
1FF0000000
1FE0000000
3FC0000000
3FC0000000
7F80000000
7F80000000
7F00000000
7F00000000
FF00000000
FE00000000
FE00000000
FE00000000
FE00000000
FE00000000
FE00000000
FE00000000
FE00000000
FE00000000
FE00000000
FF00000000
7F00000000
7F00000000
7F80000000
7F80000000
3FC0000000
3FC0000000
1FE0000000
1FF0000000
0FF8000000
0FFC000000
07FE000000
03FF800004
01FFE0001C
00FFFE03FC
007FFFFFFC
003FFFFFFC
000FFFFFFC
0003FFFFFC
0000FFFFFC
00000FFFC0
0000070000
00000F0000
00000E0000
00001DC000
00003FF000
00007FF800
000021FC00
0000007C00
0000007C00
0000007C00
0000007C00
000081FC00
0001FFF800
0001FFE000
00007F8000
ENDCHAR
STARTCHAR Egrave
ENCODING 200
SWIDTH 556 0
DWIDTH 40 0
BBX 28 64 7 0
BITMAP
0FF00000
07F80000
03F80000
01FC0000
00FE0000
007E0000
003F0000
001F0000
000F8000
0007C000
00000000
00000000
00000000
00000000
FFFFFFF0
FFFFFFF0
FFFFFFF0
FFFFFFF0
FFFFFFF0
FFFFFFF0
FE000000
FE000000
FE000000
FE000000
FE000000
FE000000
FE000000
FE000000
FE000000
FE000000
FE000000
FE000000
FE000000
FE000000
FE000000
FFFFFFC0
FFFFFFC0
FFFFFFC0
FFFFFFC0
FFFFFFC0
FFFFFFC0
FE000000
FE000000
FE000000
FE000000
FE000000
FE000000
FE000000
FE000000
FE000000
FE000000
FE000000
FE000000
FE000000
FE000000
FE000000
FE000000
FE000000
FFFFFFF0
FFFFFFF0
FFFFFFF0
FFFFFFF0
FFFFFFF0
FFFFFFF0
ENDCHAR
STARTCHAR Eacute
ENCODING 201
SWIDTH 556 0
DWIDTH 40 0
BBX 28 64 7 0
BITMAP
0001FE00
0003FC00
0007F800
0007F000
000FE000
000FC000
001F8000
003F0000
003E0000
007C0000
00000000
00000000
00000000
00000000
FFFFFFF0
FFFFFFF0
FFFFFFF0
FFFFFFF0
FFFFFFF0
FFFFFFF0
FE000000
FE000000
FE000000
FE000000
FE000000
FE000000
FE000000
FE000000
FE000000
FE000000
FE000000
FE000000
FE000000
FE000000
FE000000
FFFFFFC0
FFFFFFC0
FFFFFFC0
FFFFFFC0
FFFFFFC0
FFFFFFC0
FE000000
FE000000
FE000000
FE000000
FE000000
FE000000
FE000000
FE000000
FE000000
FE000000
FE000000
FE000000
FE000000
FE000000
FE000000
FE000000
FE000000
FFFFFFF0
FFFFFFF0
FFFFFFF0
FFFFFFF0
FFFFFFF0
FFFFFFF0
ENDCHAR
STARTCHAR Ecircumflex
ENCODING 202
SWIDTH 556 0
DWIDTH 40 0
BBX 28 64 7 0
BITMAP
003F8000
007FC000
00FFE000
00FBE000
01FBF000
03F1F800
07E0FC00
07E0FC00
0FC07E00
1F803F00
00000000
00000000
00000000
00000000
FFFFFFF0
FFFFFFF0
FFFFFFF0
FFFFFFF0
FFFFFFF0
FFFFFFF0
FE000000
FE000000
FE000000
FE000000
FE000000
FE000000
FE000000
FE000000
FE000000
FE000000
FE000000
FE000000
FE000000
FE000000
FE000000
FFFFFFC0
FFFFFFC0
FFFFFFC0
FFFFFFC0
FFFFFFC0
FFFFFFC0
FE000000
FE000000
FE000000
FE000000
FE000000
FE000000
FE000000
FE000000
FE000000
FE000000
FE000000
FE000000
FE000000
FE000000
FE000000
FE000000
FE000000
FFFFFFF0
FFFFFFF0
FFFFFFF0
FFFFFFF0
FFFFFFF0
FFFFFFF0
ENDCHAR
STARTCHAR Edieresis
ENCODING 203
SWIDTH 556 0
DWIDTH 40 0
BBX 28 62 7 0
BITMAP
0FE0FE00
0FE0FE00
0FE0FE00
0FE0FE00
0FE0FE00
0FE0FE00
0FE0FE00
00000000
00000000
00000000
00000000
00000000
FFFFFFF0
FFFFFFF0
FFFFFFF0
FFFFFFF0
FFFFFFF0
FFFFFFF0
FE000000
FE000000
FE000000
FE000000
FE000000
FE000000
FE000000
FE000000
FE000000
FE000000
FE000000
FE000000
FE000000
FE000000
FE000000
FFFFFFC0
FFFFFFC0
FFFFFFC0
FFFFFFC0
FFFFFFC0
FFFFFFC0
FE000000
FE000000
FE000000
FE000000
FE000000
FE000000
FE000000
FE000000
FE000000
FE000000
FE000000
FE000000
FE000000
FE000000
FE000000
FE000000
FE000000
FFFFFFF0
FFFFFFF0
FFFFFFF0
FFFFFFF0
FFFFFFF0
FFFFFFF0
ENDCHAR
STARTCHAR Igrave
ENCODING 204
SWIDTH 278 0
DWIDTH 20 0
BBX 14 64 1 0
BITMAP
FF00
7F80
3F80
1FC0
0FE0
07E0
03F0
01F0
00F8
007C
0000
0000
0000
0000
07F0
07F0
07F0
07F0
07F0
07F0
07F0
07F0
07F0
07F0
07F0
07F0
07F0
07F0
07F0
07F0
07F0
07F0
07F0
07F0
07F0
07F0
07F0
07F0
07F0
07F0
07F0
07F0
07F0
07F0
07F0
07F0
07F0
07F0
07F0
07F0
07F0
07F0
07F0
07F0
07F0
07F0
07F0
07F0
07F0
07F0
07F0
07F0
07F0
07F0
ENDCHAR
STARTCHAR Iacute
ENCODING 205
SWIDTH 278 0
DWIDTH 20 0
BBX 14 64 6 0
BITMAP
03FC
07F8
0FF0
0FE0
1FC0
1F80
3F00
7E00
7C00
F800
0000
0000
0000
0000
FE00
FE00
FE00
FE00
FE00
FE00
FE00
FE00
FE00
FE00
FE00
FE00
FE00
FE00
FE00
FE00
FE00
FE00
FE00
FE00
FE00
FE00
FE00
FE00
FE00
FE00
FE00
FE00
FE00
FE00
FE00
FE00
FE00
FE00
FE00
FE00
FE00
FE00
FE00
FE00
FE00
FE00
FE00
FE00
FE00
FE00
FE00
FE00
FE00
FE00
ENDCHAR
STARTCHAR Icircumflex
ENCODING 206
SWIDTH 278 0
DWIDTH 20 0
BBX 21 64 0 0
BITMAP
01FC00
03FE00
07FF00
07DF00
0FDF80
1F8FC0
3F07E0
3F07E0
7E03F0
FC01F8
000000
000000
000000
000000
03F800
03F800
03F800
03F800
03F800
03F800
03F800
03F800
03F800
03F800
03F800
03F800
03F800
03F800
03F800
03F800
03F800
03F800
03F800
03F800
03F800
03F800
03F800
03F800
03F800
03F800
03F800
03F800
03F800
03F800
03F800
03F800
03F800
03F800
03F800
03F800
03F800
03F800
03F800
03F800
03F800
03F800
03F800
03F800
03F800
03F800
03F800
03F800
03F800
03F800
ENDCHAR
STARTCHAR Idieresis
ENCODING 207
SWIDTH 278 0
DWIDTH 20 0
BBX 19 62 1 0
BITMAP
FE0FE0
FE0FE0
FE0FE0
FE0FE0
FE0FE0
FE0FE0
FE0FE0
000000
000000
000000
000000
000000
07F000
07F000
07F000
07F000
07F000
07F000
07F000
07F000
07F000
07F000
07F000
07F000
07F000
07F000
07F000
07F000
07F000
07F000
07F000
07F000
07F000
07F000
07F000
07F000
07F000
07F000
07F000
07F000
07F000
07F000
07F000
07F000
07F000
07F000
07F000
07F000
07F000
07F000
07F000
07F000
07F000
07F000
07F000
07F000
07F000
07F000
07F000
07F000
07F000
07F000
ENDCHAR
STARTCHAR Eth
ENCODING 208
SWIDTH 722 0
DWIDTH 52 0
BBX 46 50 1 0
BITMAP
07FFFF800000
07FFFFF80000
07FFFFFF0000
07FFFFFFC000
07FFFFFFF000
07FFFFFFF800
07F003FFFC00
07F0001FFE00
07F00003FF00
07F00001FF80
07F000007FC0
07F000003FC0
07F000001FE0
07F000001FF0
07F000000FF0
07F0000007F0
07F0000007F8
07F0000003F8
07F0000003F8
07F0000003FC
07F0000001FC
FFFFFF8001FC
FFFFFF8001FC
FFFFFF8001FC
FFFFFF8001FC
FFFFFF8001FC
07F0000001FC
07F0000001FC
07F0000001FC
07F0000001FC
07F0000003FC
07F0000003F8
07F0000003F8
07F0000003F8
07F0000007F8
07F0000007F0
07F000000FF0
07F000001FE0
07F000001FE0
07F000007FC0
07F00000FFC0
07F00003FF80
07F0000FFF00
07F003FFFE00
07FFFFFFFC00
07FFFFFFF000
07FFFFFFE000
07FFFFFF8000
07FFFFFC0000
07FFFFC00000
ENDCHAR
STARTCHAR Ntilde
ENCODING 209
SWIDTH 722 0
DWIDTH 52 0
BBX 39 62 6 0
BITMAP
000FC00700
001FF00F00
003FFE0E00
007FFFFE00
007FFFFE00
00707FFC00
00E00FF800
00E003F000
0000000000
0000000000
0000000000
0000000000
FFC00000FE
FFC00000FE
FFE00000FE
FFF00000FE
FFF00000FE
FFF80000FE
FFF80000FE
FFFC0000FE
FFFC0000FE
FFFE0000FE
FEFE0000FE
FE7F0000FE
FE7F8000FE
FE3F8000FE
FE3FC000FE
FE1FC000FE
FE1FE000FE
FE0FE000FE
FE0FF000FE
FE07F000FE
FE03F800FE
FE03F800FE
FE01FC00FE
FE01FE00FE
FE00FE00FE
FE00FF00FE
FE007F00FE
FE007F80FE
FE003F80FE
FE001FC0FE
FE001FC0FE
FE000FE0FE
FE000FF0FE
FE0007F0FE
FE0007F8FE
FE0003F8FE
FE0003FCFE
FE0001FCFE
FE0000FEFE
FE0000FEFE
FE00007FFE
FE00007FFE
FE00003FFE
FE00003FFE
FE00001FFE
FE00001FFE
FE00000FFE
FE000007FE
FE000007FE
FE000003FE
ENDCHAR
STARTCHAR Ograve
ENCODING 210
SWIDTH 778 0
DWIDTH 56 0
BBX 48 65 4 -1
BITMAP
0001FE000000
0000FF000000
00007F000000
00003F800000
00001FC00000
00000FC00000
000007E00000
000003E00000
000001F00000
000000F80000
000000000000
000000000000
000000000000
00003FF80000
0001FFFF8000
0007FFFFE000
001FFFFFF800
007FFFFFFC00
00FFFFFFFE00
01FFFC7FFF80
03FFC003FFC0
07FF0000FFC0
07FC00003FE0
0FF800001FF0
1FF000000FF0
1FE0000007F8
3FC0000007F8
3FC0000003FC
3F80000003FC
7F80000001FC
7F00000001FE
7F00000000FE
7F00000000FE
FF00000000FE
FE00000000FE
FE000000007F
FE000000007F
FE000000007F
FE000000007F
FE000000007F
FE000000007F
FE000000007F
FE000000007F
FE00000000FE
FF00000000FE
7F00000000FE
7F00000000FE
7F00000001FE
7F80000001FC
3F80000001FC
3FC0000003FC
3FC0000007F8
1FE0000007F8
1FF000000FF0
0FF800001FF0
07FC00003FE0
07FE0000FFC0
03FF8003FFC0
01FFFC7FFF80
00FFFFFFFF00
007FFFFFFC00
001FFFFFF800
000FFFFFE000
0001FFFF8000
00003FF80000
ENDCHAR
STARTCHAR Oacute
ENCODING 211
SWIDTH 778 0
DWIDTH 56 0
BBX 48 65 4 -1
BITMAP
0000003FC000
0000007F8000
000000FF0000
000000FE0000
000001FC0000
000001F80000
000003F00000
000007E00000
000007C00000
00000F800000
000000000000
000000000000
000000000000
00003FF80000
0001FFFF8000
0007FFFFE000
001FFFFFF800
007FFFFFFC00
00FFFFFFFE00
01FFFC7FFF80
03FFC003FFC0
07FF0000FFC0
07FC00003FE0
0FF800001FF0
1FF000000FF0
1FE0000007F8
3FC0000007F8
3FC0000003FC
3F80000003FC
7F80000001FC
7F00000001FE
7F00000000FE
7F00000000FE
FF00000000FE
FE00000000FE
FE000000007F
FE000000007F
FE000000007F
FE000000007F
FE000000007F
FE000000007F
FE000000007F
FE000000007F
FE00000000FE
FF00000000FE
7F00000000FE
7F00000000FE
7F00000001FE
7F80000001FC
3F80000001FC
3FC0000003FC
3FC0000007F8
1FE0000007F8
1FF000000FF0
0FF800001FF0
07FC00003FE0
07FE0000FFC0
03FF8003FFC0
01FFFC7FFF80
00FFFFFFFF00
007FFFFFFC00
001FFFFFF800
000FFFFFE000
0001FFFF8000
00003FF80000
ENDCHAR
STARTCHAR Ocircumflex
ENCODING 212
SWIDTH 778 0
DWIDTH 56 0
BBX 48 65 4 -1
BITMAP
000007F00000
00000FF80000
00001FFC0000
00001F7C0000
00003F7E0000
00007E3F0000
0000FC1F8000
0000FC1F8000
0001F80FC000
0003F007E000
000000000000
000000000000
000000000000
00003FF80000
0001FFFF8000
0007FFFFE000
001FFFFFF800
007FFFFFFC00
00FFFFFFFE00
01FFFC7FFF80
03FFC003FFC0
07FF0000FFC0
07FC00003FE0
0FF800001FF0
1FF000000FF0
1FE0000007F8
3FC0000007F8
3FC0000003FC
3F80000003FC
7F80000001FC
7F00000001FE
7F00000000FE
7F00000000FE
FF00000000FE
FE00000000FE
FE000000007F
FE000000007F
FE000000007F
FE000000007F
FE000000007F
FE000000007F
FE000000007F
FE000000007F
FE00000000FE
FF00000000FE
7F00000000FE
7F00000000FE
7F00000001FE
7F80000001FC
3F80000001FC
3FC0000003FC
3FC0000007F8
1FE0000007F8
1FF000000FF0
0FF800001FF0
07FC00003FE0
07FE0000FFC0
03FF8003FFC0
01FFFC7FFF80
00FFFFFFFF00
007FFFFFFC00
001FFFFFF800
000FFFFFE000
0001FFFF8000
00003FF80000
ENDCHAR
STARTCHAR Otilde
ENCODING 213
SWIDTH 778 0
DWIDTH 56 0
BBX 48 63 4 -1
BITMAP
0000FC007000
0001FF00F000
0003FFE0E000
0007FFFFE000
0007FFFFE000
000707FFC000
000E00FF8000
000E003F0000
000000000000
000000000000
000000000000
00003FF80000
0001FFFF8000
0007FFFFE000
001FFFFFF800
007FFFFFFC00
00FFFFFFFE00
01FFFC7FFF80
03FFC003FFC0
07FF0000FFC0
07FC00003FE0
0FF800001FF0
1FF000000FF0
1FE0000007F8
3FC0000007F8
3FC0000003FC
3F80000003FC
7F80000001FC
7F00000001FE
7F00000000FE
7F00000000FE
FF00000000FE
FE00000000FE
FE000000007F
FE000000007F
FE000000007F
FE000000007F
FE000000007F
FE000000007F
FE000000007F
FE000000007F
FE00000000FE
FF00000000FE
7F00000000FE
7F00000000FE
7F00000001FE
7F80000001FC
3F80000001FC
3FC0000003FC
3FC0000007F8
1FE0000007F8
1FF000000FF0
0FF800001FF0
07FC00003FE0
07FE0000FFC0
03FF8003FFC0
01FFFC7FFF80
00FFFFFFFF00
007FFFFFFC00
001FFFFFF800
000FFFFFE000
0001FFFF8000
00003FF80000
ENDCHAR
STARTCHAR Odieresis
ENCODING 214
SWIDTH 778 0
DWIDTH 56 0
BBX 48 63 4 -1
BITMAP
0001FC1FC000
0001FC1FC000
0001FC1FC000
0001FC1FC000
0001FC1FC000
0001FC1FC000
0001FC1FC000
000000000000
000000000000
000000000000
000000000000
00003FF80000
0001FFFF8000
0007FFFFE000
001FFFFFF800
007FFFFFFC00
00FFFFFFFE00
01FFFC7FFF80
03FFC003FFC0
07FF0000FFC0
07FC00003FE0
0FF800001FF0
1FF000000FF0
1FE0000007F8
3FC0000007F8
3FC0000003FC
3F80000003FC
7F80000001FC
7F00000001FE
7F00000000FE
7F00000000FE
FF00000000FE
FE00000000FE
FE000000007F
FE000000007F
FE000000007F
FE000000007F
FE000000007F
FE000000007F
FE000000007F
FE000000007F
FE00000000FE
FF00000000FE
7F00000000FE
7F00000000FE
7F00000001FE
7F80000001FC
3F80000001FC
3FC0000003FC
3FC0000007F8
1FE0000007F8
1FF000000FF0
0FF800001FF0
07FC00003FE0
07FE0000FFC0
03FF8003FFC0
01FFFC7FFF80
00FFFFFFFF00
007FFFFFFC00
001FFFFFF800
000FFFFFE000
0001FFFF8000
00003FF80000
ENDCHAR
STARTCHAR multiply
ENCODING 215
SWIDTH 600 0
DWIDTH 43 0
BBX 33 33 5 2
BITMAP
0800000800
1C00001C00
3E00003E00
7F00007F00
FF8000FF80
7FC001FF00
3FE003FE00
1FF007FC00
0FF80FF800
07FC1FF000
03FE3FE000
01FF7FC000
00FFFF8000
007FFF0000
003FFE0000
001FFC0000
000FF80000
001FFC0000
003FFE0000
007FFF0000
00FFFF8000
01FF7FC000
03FE3FE000
07FC1FF000
0FF80FF800
1FF007FC00
3FE003FE00
7FC001FF00
FF8000FF80
7F00007F00
3E00003E00
1C00001C00
0800000800
ENDCHAR
STARTCHAR Oslash
ENCODING 216
SWIDTH 778 0
DWIDTH 56 0
BBX 48 54 4 -2
BITMAP
000000000040
00003FF80060
0001FFFF80F8
0007FFFFE0F0
001FFFFFF9E0
007FFFFFFFC0
00FFFFFFFFC0
01FFFC3FFF80
03FF8003FFC0
07FE0000FFC0
07FC00007FE0
0FF800003FF0
1FF000007FF0
1FE00000FFF8
3FC00001E7F8
3FC00001E3FC
3F800003C3FC
7F80000781FC
7F00000F01FE
7F00000F00FE
7F00001E00FE
FF00003C00FE
FE00007800FE
FE0000F800FF
FE0000F0007F
FE0001E0007F
FE0003C0007F
FE0007C0007F
FE000780007F
FE000F00007F
FE001E00007F
FE003E0000FE
FF003C0000FE
7F00780000FE
7F00F00000FE
7F01E00001FE
7F81E00001FC
3F83C00001FC
3FC7800003FC
3FEF000007F8
1FEF000007F8
1FFE00000FF0
0FFC00001FF0
0FFC00003FE0
07FF0000FFC0
03FFC001FFC0
01FFFC3FFF80
03FFFFFFFF00
07FFFFFFFC00
079FFFFFF800
0F0FFFFFE000
1E01FFFF8000
0E003FF80000
040000000000
ENDCHAR
STARTCHAR Ugrave
ENCODING 217
SWIDTH 722 0
DWIDTH 52 0
BBX 39 65 6 -1
BITMAP
001FE00000
000FF00000
0007F00000
0003F80000
0001FC0000
0000FC0000
00007E0000
00003E0000
00001F0000
00000F8000
0000000000
0000000000
0000000000
0000000000
FE000000FE
FE000000FE
FE000000FE
FE000000FE
FE000000FE
FE000000FE
FE000000FE
FE000000FE
FE000000FE
FE000000FE
FE000000FE
FE000000FE
FE000000FE
FE000000FE
FE000000FE
FE000000FE
FE000000FE
FE000000FE
FE000000FE
FE000000FE
FE000000FE
FE000000FE
FE000000FE
FE000000FE
FE000000FE
FE000000FE
FE000000FE
FE000000FE
FE000000FE
FE000000FE
FE000000FE
FE000000FE
FE000000FE
FE000000FE
FF000001FE
FF000001FC
7F000001FC
7F000001FC
7F800003FC
3F800003F8
3FC00007F8
3FE0000FF8
1FF0001FF0
1FFC007FE0
0FFFC7FFE0
07FFFFFFC0
03FFFFFF80
01FFFFFF00
007FFFFC00
001FFFF000
0003FF8000
ENDCHAR
STARTCHAR Uacute
ENCODING 218
SWIDTH 722 0
DWIDTH 52 0
BBX 39 65 6 -1
BITMAP
000003FC00
000007F800
00000FF000
00000FE000
00001FC000
00001F8000
00003F0000
00007E0000
00007C0000
0000F80000
0000000000
0000000000
0000000000
0000000000
FE000000FE
FE000000FE
FE000000FE
FE000000FE
FE000000FE
FE000000FE
FE000000FE
FE000000FE
FE000000FE
FE000000FE
FE000000FE
FE000000FE
FE000000FE
FE000000FE
FE000000FE
FE000000FE
FE000000FE
FE000000FE
FE000000FE
FE000000FE
FE000000FE
FE000000FE
FE000000FE
FE000000FE
FE000000FE
FE000000FE
FE000000FE
FE000000FE
FE000000FE
FE000000FE
FE000000FE
FE000000FE
FE000000FE
FE000000FE
FF000001FE
FF000001FC
7F000001FC
7F000001FC
7F800003FC
3F800003F8
3FC00007F8
3FE0000FF8
1FF0001FF0
1FFC007FE0
0FFFC7FFE0
07FFFFFFC0
03FFFFFF80
01FFFFFF00
007FFFFC00
001FFFF000
0003FF8000
ENDCHAR
STARTCHAR Ucircumflex
ENCODING 219
SWIDTH 722 0
DWIDTH 52 0
BBX 39 65 6 -1
BITMAP
00007F0000
0000FF8000
0001FFC000
0001F7C000
0003F7E000
0007E3F000
000FC1F800
000FC1F800
001F80FC00
003F007E00
0000000000
0000000000
0000000000
0000000000
FE000000FE
FE000000FE
FE000000FE
FE000000FE
FE000000FE
FE000000FE
FE000000FE
FE000000FE
FE000000FE
FE000000FE
FE000000FE
FE000000FE
FE000000FE
FE000000FE
FE000000FE
FE000000FE
FE000000FE
FE000000FE
FE000000FE
FE000000FE
FE000000FE
FE000000FE
FE000000FE
FE000000FE
FE000000FE
FE000000FE
FE000000FE
FE000000FE
FE000000FE
FE000000FE
FE000000FE
FE000000FE
FE000000FE
FE000000FE
FF000001FE
FF000001FC
7F000001FC
7F000001FC
7F800003FC
3F800003F8
3FC00007F8
3FE0000FF8
1FF0001FF0
1FFC007FE0
0FFFC7FFE0
07FFFFFFC0
03FFFFFF80
01FFFFFF00
007FFFFC00
001FFFF000
0003FF8000
ENDCHAR
STARTCHAR Udieresis
ENCODING 220
SWIDTH 722 0
DWIDTH 52 0
BBX 39 63 6 -1
BITMAP
001FC1FC00
001FC1FC00
001FC1FC00
001FC1FC00
001FC1FC00
001FC1FC00
001FC1FC00
0000000000
0000000000
0000000000
0000000000
0000000000
FE000000FE
FE000000FE
FE000000FE
FE000000FE
FE000000FE
FE000000FE
FE000000FE
FE000000FE
FE000000FE
FE000000FE
FE000000FE
FE000000FE
FE000000FE
FE000000FE
FE000000FE
FE000000FE
FE000000FE
FE000000FE
FE000000FE
FE000000FE
FE000000FE
FE000000FE
FE000000FE
FE000000FE
FE000000FE
FE000000FE
FE000000FE
FE000000FE
FE000000FE
FE000000FE
FE000000FE
FE000000FE
FE000000FE
FE000000FE
FF000001FE
FF000001FC
7F000001FC
7F000001FC
7F800003FC
3F800003F8
3FC00007F8
3FE0000FF8
1FF0001FF0
1FFC007FE0
0FFFC7FFE0
07FFFFFFC0
03FFFFFF80
01FFFFFF00
007FFFFC00
001FFFF000
0003FF8000
ENDCHAR
STARTCHAR Yacute
ENCODING 221
SWIDTH 667 0
DWIDTH 48 0
BBX 47 64 0 0
BITMAP
0000003FC000
0000007F8000
000000FF0000
000000FE0000
000001FC0000
000001F80000
000003F00000
000007E00000
000007C00000
00000F800000
000000000000
000000000000
000000000000
000000000000
FF80000003FE
7FC0000007FC
3FC0000007F8
1FE000000FF0
1FF000001FF0
0FF000001FE0
07F800003FC0
07FC00007FC0
03FC00007F80
01FE0000FF00
01FF0001FF00
00FF0001FE00
007F8003FC00
007FC007F800
003FC007F800
001FE00FF000
001FF01FE000
000FF01FE000
0007F83FC000
0003FC3F8000
0003FC7F8000
0001FEFF0000
0000FFFE0000
0000FFFE0000
00007FFC0000
00003FF80000
00003FF80000
00001FF00000
00000FE00000
00000FE00000
00000FE00000
00000FE00000
00000FE00000
00000FE00000
00000FE00000
00000FE00000
00000FE00000
00000FE00000
00000FE00000
00000FE00000
00000FE00000
00000FE00000
00000FE00000
00000FE00000
00000FE00000
00000FE00000
00000FE00000
00000FE00000
00000FE00000
00000FE00000
ENDCHAR
STARTCHAR Thorn
ENCODING 222
SWIDTH 556 0
DWIDTH 40 0
BBX 31 50 6 0
BITMAP
FE000000
FE000000
FE000000
FE000000
FE000000
FE000000
FE000000
FFFFE000
FFFFFE00
FFFFFF80
FFFFFFC0
FFFFFFE0
FFFFFFF0
FE03FFF8
FE001FFC
FE0007FC
FE0003FE
FE0001FE
FE0000FE
FE0000FE
FE0000FE
FE0000FE
FE0000FE
FE0000FE
FE0000FE
FE0000FE
FE0001FE
FE0003FE
FE0007FC
FE000FFC
FE01FFF8
FFFFFFF0
FFFFFFE0
FFFFFFC0
FFFFFF80
FFFFFE00
FFFFE000
FE000000
FE000000
FE000000
FE000000
FE000000
FE000000
FE000000
FE000000
FE000000
FE000000
FE000000
FE000000
FE000000
ENDCHAR
STARTCHAR germandbls
ENCODING 223
SWIDTH 611 0
DWIDTH 44 0
BBX 34 55 6 0
BITMAP
000FF80000
007FFF0000
01FFFFC000
03FFFFE000
07FFFFF000
0FFFFFF800
1FF807FC00
1FE003FE00
3FC001FE00
3F8000FE00
7F8000FF00
7F00007F00
7F00007F00
7F00007F00
FF00007F00
FE00007F00
FE00007F00
FE00007F00
FE0000FE00
FE0000FE00
FE0001FE00
FE0003FC00
FE000FF800
FE03FFF000
FE03FFE000
FE03FF0000
FE03FFC000
FE03FFF000
FE03FFFC00
FE001FFE00
FE0003FF00
FE0000FF00
FE00007F80
FE00003F80
FE00003FC0
FE00001FC0
FE00001FC0
FE00001FC0
FE00001FC0
FE00001FC0
FE00001FC0
FE00001FC0
FE00001FC0
FE00001FC0
FE00003FC0
FE00003F80
FE00007F80
FE0000FF00
FE1003FF00
FE0FBFFE00
FE0FFFFC00
FE0FFFF800
FE0FFFF000
FE0FFFC000
FE07FE0000
ENDCHAR
STARTCHAR agrave
ENCODING 224
SWIDTH 556 0
DWIDTH 40 0
BBX 31 53 4 -1
BITMAP
01FE0000
00FF0000
007F0000
003F8000
001FC000
000FC000
0007E000
0003E000
0001F000
0000F800
00000000
00000000
00000000
00000000
001FF800
00FFFF00
03FFFFC0
0FFFFFE0
0FFFFFF0
0FFFFFF8
0F800FF8
0E0003FC
080003FC
000001FC
000001FE
000000FE
000000FE
000000FE
000000FE
000FFFFE
00FFFFFE
03FFFFFE
0FFFFFFE
1FFFFFFE
3FFC00FE
7FE000FE
7F8000FE
FF0000FE
FE0000FE
FE0000FE
FE0000FE
FE0001FE
FE0001FE
FE0003FE
FF0003FE
FF800FFE
7FC01FFE
7FFBFF7E
3FFFFF7E
1FFFFE7E
0FFFF87E
07FFF07E
00FF8000
ENDCHAR
STARTCHAR aacute
ENCODING 225
SWIDTH 556 0
DWIDTH 40 0
BBX 31 53 4 -1
BITMAP
00003FC0
00007F80
0000FF00
0000FE00
0001FC00
0001F800
0003F000
0007E000
0007C000
000F8000
00000000
00000000
00000000
00000000
001FF800
00FFFF00
03FFFFC0
0FFFFFE0
0FFFFFF0
0FFFFFF8
0F800FF8
0E0003FC
080003FC
000001FC
000001FE
000000FE
000000FE
000000FE
000000FE
000FFFFE
00FFFFFE
03FFFFFE
0FFFFFFE
1FFFFFFE
3FFC00FE
7FE000FE
7F8000FE
FF0000FE
FE0000FE
FE0000FE
FE0000FE
FE0001FE
FE0001FE
FE0003FE
FF0003FE
FF800FFE
7FC01FFE
7FFBFF7E
3FFFFF7E
1FFFFE7E
0FFFF87E
07FFF07E
00FF8000
ENDCHAR
STARTCHAR acircumflex
ENCODING 226
SWIDTH 556 0
DWIDTH 40 0
BBX 31 53 4 -1
BITMAP
0007F000
000FF800
001FFC00
001F7C00
003F7E00
007E3F00
00FC1F80
00FC1F80
01F80FC0
03F007E0
00000000
00000000
00000000
00000000
001FF800
00FFFF00
03FFFFC0
0FFFFFE0
0FFFFFF0
0FFFFFF8
0F800FF8
0E0003FC
080003FC
000001FC
000001FE
000000FE
000000FE
000000FE
000000FE
000FFFFE
00FFFFFE
03FFFFFE
0FFFFFFE
1FFFFFFE
3FFC00FE
7FE000FE
7F8000FE
FF0000FE
FE0000FE
FE0000FE
FE0000FE
FE0001FE
FE0001FE
FE0003FE
FF0003FE
FF800FFE
7FC01FFE
7FFBFF7E
3FFFFF7E
1FFFFE7E
0FFFF87E
07FFF07E
00FF8000
ENDCHAR
STARTCHAR atilde
ENCODING 227
SWIDTH 556 0
DWIDTH 40 0
BBX 31 51 4 -1
BITMAP
00FC0070
01FF00F0
03FFE0E0
07FFFFE0
07FFFFE0
0707FFC0
0E00FF80
0E003F00
00000000
00000000
00000000
00000000
001FF800
00FFFF00
03FFFFC0
0FFFFFE0
0FFFFFF0
0FFFFFF8
0F800FF8
0E0003FC
080003FC
000001FC
000001FE
000000FE
000000FE
000000FE
000000FE
000FFFFE
00FFFFFE
03FFFFFE
0FFFFFFE
1FFFFFFE
3FFC00FE
7FE000FE
7F8000FE
FF0000FE
FE0000FE
FE0000FE
FE0000FE
FE0001FE
FE0001FE
FE0003FE
FF0003FE
FF800FFE
7FC01FFE
7FFBFF7E
3FFFFF7E
1FFFFE7E
0FFFF87E
07FFF07E
00FF8000
ENDCHAR
STARTCHAR adieresis
ENCODING 228
SWIDTH 556 0
DWIDTH 40 0
BBX 31 51 4 -1
BITMAP
01FC1FC0
01FC1FC0
01FC1FC0
01FC1FC0
01FC1FC0
01FC1FC0
01FC1FC0
00000000
00000000
00000000
00000000
00000000
001FF800
00FFFF00
03FFFFC0
0FFFFFE0
0FFFFFF0
0FFFFFF8
0F800FF8
0E0003FC
080003FC
000001FC
000001FE
000000FE
000000FE
000000FE
000000FE
000FFFFE
00FFFFFE
03FFFFFE
0FFFFFFE
1FFFFFFE
3FFC00FE
7FE000FE
7F8000FE
FF0000FE
FE0000FE
FE0000FE
FE0000FE
FE0001FE
FE0001FE
FE0003FE
FF0003FE
FF800FFE
7FC01FFE
7FFBFF7E
3FFFFF7E
1FFFFE7E
0FFFF87E
07FFF07E
00FF8000
ENDCHAR
STARTCHAR aring
ENCODING 229
SWIDTH 556 0
DWIDTH 40 0
BBX 31 56 4 -1
BITMAP
0003E000
000FF800
001FFC00
003C1E00
00380E00
00700700
00700700
00700700
00700700
00700700
00380E00
003C1E00
001FFC00
000FF800
0003E000
00000000
00000000
001FF800
00FFFF00
03FFFFC0
0FFFFFE0
0FFFFFF0
0FFFFFF8
0F800FF8
0E0003FC
080003FC
000001FC
000001FE
000000FE
000000FE
000000FE
000000FE
000FFFFE
00FFFFFE
03FFFFFE
0FFFFFFE
1FFFFFFE
3FFC00FE
7FE000FE
7F8000FE
FF0000FE
FE0000FE
FE0000FE
FE0000FE
FE0001FE
FE0001FE
FE0003FE
FF0003FE
FF800FFE
7FC01FFE
7FFBFF7E
3FFFFF7E
1FFFFE7E
0FFFF87E
07FFF07E
00FF8000
ENDCHAR
STARTCHAR ae
ENCODING 230
SWIDTH 889 0
DWIDTH 64 0
BBX 58 39 3 -1
BITMAP
000FF80007FC0000
00FFFF003FFF8000
03FFFF807FFFC000
0FFFFFE1FFFFF000
0FFFFFF3FFFFF800
0FFDFFF3FFBFFC00
0FC00FFFF807FC00
0E0003FFF001FE00
0C0001FFE000FE00
000001FFC0007F00
000000FF80007F00
000000FF80003F00
0000007F00003F80
0000007F00003F80
0000007F00003F80
0007FE7F00001F80
00FFFFFFFFFFFF80
03FFFFFFFFFFFF80
0FFFFFFFFFFFFF80
1FFFFFFFFFFFFFC0
3FFE007FFFFFFFC0
7FE0007F00000000
7F80007F00000000
FF00007F00000000
FE0000FF00000000
FE0000FF80000000
FE0000FF80000000
FE0001FFC0000000
FE0001FFC0000000
FE0003FFE0000000
FF0007EFF0000400
7F000FEFF8001C00
7FC03FE7FE007C00
3FFFFFC7FFEFFC00
1FFFFF83FFFFFC00
0FFFFF01FFFFFC00
07FFFE007FFFFC00
01FFF8001FFFE000
003FC00003FF0000
ENDCHAR
STARTCHAR ccedilla
ENCODING 231
SWIDTH 444 0
DWIDTH 32 0
BBX 27 54 3 -16
BITMAP
0003FE00
001FFFE0
007FFFE0
01FFFFE0
03FFFFE0
07FFFFE0
0FFC0040
1FF80000
1FE00000
3FC00000
3FC00000
7F800000
7F000000
7F000000
FF000000
FE000000
FE000000
FE000000
FE000000
FE000000
FE000000
FE000000
FE000000
FE000000
7F000000
7F000000
7F000000
3F800000
3F800000
1FC00000
1FE00000
0FF00020
07FC00E0
07FFEFE0
03FFFFE0
00FFFFE0
007FFFE0
001FFFE0
0003FF00
0001C000
00038000
00070000
000FF000
000FFC00
001FFE00
00087F00
00003F00
00001F00
00003F00
00003F00
00207E00
007FFC00
007FF800
001FE000
ENDCHAR
STARTCHAR egrave
ENCODING 232
SWIDTH 556 0
DWIDTH 40 0
BBX 33 53 3 -1
BITMAP
00FF000000
007F800000
003F800000
001FC00000
000FE00000
0007E00000
0003F00000
0001F00000
0000F80000
00007C0000
0000000000
0000000000
0000000000
0000000000
0007FC0000
003FFF8000
00FFFFC000
01FFFFF000
07FFFFF800
0FFFFFF800
0FF807FC00
1FE001FE00
3FC000FE00
3F8000FE00
7F80007F00
7F00007F00
7F00003F00
7E00003F80
FE00003F80
FE00003F80
FFFFFFFF80
FFFFFFFF80
FFFFFFFF80
FFFFFFFF80
FFFFFFFF80
FE00000000
FE00000000
FE00000000
FE00000000
7F00000000
7F00000000
7F80000000
3F80000000
3FC0000000
1FE0000600
1FF0000E00
0FFC007E00
07FFFFFE00
03FFFFFE00
01FFFFFE00
00FFFFFE00
003FFFF000
0003FF8000
ENDCHAR
STARTCHAR eacute
ENCODING 233
SWIDTH 556 0
DWIDTH 40 0
BBX 33 53 3 -1
BITMAP
00001FE000
00003FC000
00007F8000
00007F0000
0000FE0000
0000FC0000
0001F80000
0003F00000
0003E00000
0007C00000
0000000000
0000000000
0000000000
0000000000
0007FC0000
003FFF8000
00FFFFC000
01FFFFF000
07FFFFF800
0FFFFFF800
0FF807FC00
1FE001FE00
3FC000FE00
3F8000FE00
7F80007F00
7F00007F00
7F00003F00
7E00003F80
FE00003F80
FE00003F80
FFFFFFFF80
FFFFFFFF80
FFFFFFFF80
FFFFFFFF80
FFFFFFFF80
FE00000000
FE00000000
FE00000000
FE00000000
7F00000000
7F00000000
7F80000000
3F80000000
3FC0000000
1FE0000600
1FF0000E00
0FFC007E00
07FFFFFE00
03FFFFFE00
01FFFFFE00
00FFFFFE00
003FFFF000
0003FF8000
ENDCHAR
STARTCHAR ecircumflex
ENCODING 234
SWIDTH 556 0
DWIDTH 40 0
BBX 33 53 3 -1
BITMAP
0003F80000
0007FC0000
000FFE0000
000FBE0000
001FBF0000
003F1F8000
007E0FC000
007E0FC000
00FC07E000
01F803F000
0000000000
0000000000
0000000000
0000000000
0007FC0000
003FFF8000
00FFFFC000
01FFFFF000
07FFFFF800
0FFFFFF800
0FF807FC00
1FE001FE00
3FC000FE00
3F8000FE00
7F80007F00
7F00007F00
7F00003F00
7E00003F80
FE00003F80
FE00003F80
FFFFFFFF80
FFFFFFFF80
FFFFFFFF80
FFFFFFFF80
FFFFFFFF80
FE00000000
FE00000000
FE00000000
FE00000000
7F00000000
7F00000000
7F80000000
3F80000000
3FC0000000
1FE0000600
1FF0000E00
0FFC007E00
07FFFFFE00
03FFFFFE00
01FFFFFE00
00FFFFFE00
003FFFF000
0003FF8000
ENDCHAR
STARTCHAR edieresis
ENCODING 235
SWIDTH 556 0
DWIDTH 40 0
BBX 33 51 3 -1
BITMAP
00FE0FE000
00FE0FE000
00FE0FE000
00FE0FE000
00FE0FE000
00FE0FE000
00FE0FE000
0000000000
0000000000
0000000000
0000000000
0000000000
0007FC0000
003FFF8000
00FFFFC000
01FFFFF000
07FFFFF800
0FFFFFF800
0FF807FC00
1FE001FE00
3FC000FE00
3F8000FE00
7F80007F00
7F00007F00
7F00003F00
7E00003F80
FE00003F80
FE00003F80
FFFFFFFF80
FFFFFFFF80
FFFFFFFF80
FFFFFFFF80
FFFFFFFF80
FE00000000
FE00000000
FE00000000
FE00000000
7F00000000
7F00000000
7F80000000
3F80000000
3FC0000000
1FE0000600
1FF0000E00
0FFC007E00
07FFFFFE00
03FFFFFE00
01FFFFFE00
00FFFFFE00
003FFFF000
0003FF8000
ENDCHAR
STARTCHAR igrave
ENCODING 236
SWIDTH 278 0
DWIDTH 20 0
BBX 14 52 1 0
BITMAP
FF00
7F80
3F80
1FC0
0FE0
07E0
03F0
01F0
00F8
007C
0000
0000
0000
0000
0000
03F8
03F8
03F8
03F8
03F8
03F8
03F8
03F8
03F8
03F8
03F8
03F8
03F8
03F8
03F8
03F8
03F8
03F8
03F8
03F8
03F8
03F8
03F8
03F8
03F8
03F8
03F8
03F8
03F8
03F8
03F8
03F8
03F8
03F8
03F8
03F8
03F8
ENDCHAR
STARTCHAR iacute
ENCODING 237
SWIDTH 278 0
DWIDTH 20 0
BBX 14 52 6 0
BITMAP
03FC
07F8
0FF0
0FE0
1FC0
1F80
3F00
7E00
7C00
F800
0000
0000
0000
0000
0000
7F00
7F00
7F00
7F00
7F00
7F00
7F00
7F00
7F00
7F00
7F00
7F00
7F00
7F00
7F00
7F00
7F00
7F00
7F00
7F00
7F00
7F00
7F00
7F00
7F00
7F00
7F00
7F00
7F00
7F00
7F00
7F00
7F00
7F00
7F00
7F00
7F00
ENDCHAR
STARTCHAR icircumflex
ENCODING 238
SWIDTH 278 0
DWIDTH 20 0
BBX 21 52 0 0
BITMAP
01FC00
03FE00
07FF00
07DF00
0FDF80
1F8FC0
3F07E0
3F07E0
7E03F0
FC01F8
000000
000000
000000
000000
000000
01FC00
01FC00
01FC00
01FC00
01FC00
01FC00
01FC00
01FC00
01FC00
01FC00
01FC00
01FC00
01FC00
01FC00
01FC00
01FC00
01FC00
01FC00
01FC00
01FC00
01FC00
01FC00
01FC00
01FC00
01FC00
01FC00
01FC00
01FC00
01FC00
01FC00
01FC00
01FC00
01FC00
01FC00
01FC00
01FC00
01FC00
ENDCHAR
STARTCHAR idieresis
ENCODING 239
SWIDTH 278 0
DWIDTH 20 0
BBX 19 50 1 0
BITMAP
FE0FE0
FE0FE0
FE0FE0
FE0FE0
FE0FE0
FE0FE0
FE0FE0
000000
000000
000000
000000
000000
000000
03F800
03F800
03F800
03F800
03F800
03F800
03F800
03F800
03F800
03F800
03F800
03F800
03F800
03F800
03F800
03F800
03F800
03F800
03F800
03F800
03F800
03F800
03F800
03F800
03F800
03F800
03F800
03F800
03F800
03F800
03F800
03F800
03F800
03F800
03F800
03F800
03F800
ENDCHAR
STARTCHAR eth
ENCODING 240
SWIDTH 611 0
DWIDTH 44 0
BBX 37 56 3 -1
BITMAP
00C0003000
01F000F800
07FC01F800
0FFF07FC00
17FFDFFA00
00FFFFE000
003FFFC000
001FFF0000
000FFF0000
003FFF8000
00FFFFC000
03FF3FE000
0FFE1FF000
03F80FF800
03E007FC00
018003FE00
000001FE00
0003FCFF00
001FFFFF00
007FFFFF80
01FFFFFFC0
03FFFFFFC0
07FFDFFFC0
0FFC01FFE0
1FF0007FE0
1FE0003FF0
3FC0001FF0
3FC0000FF0
7F80000FF0
7F000007F8
7F000007F8
FF000007F8
FE000003F8
FE000003F8
FE000003F8
FE000003F8
FE000003F8
FE000003F8
FE000003F8
FE000003F8
FE000003F8
7F000007F8
7F000007F8
7F000007F0
3F80000FF0
3F80000FE0
3FC0001FE0
1FE0003FC0
0FF0007FC0
07FC01FF80
07FFDFFF00
03FFFFFE00
00FFFFFC00
007FFFF000
001FFFC000
0003FE0000
ENDCHAR
STARTCHAR ntilde
ENCODING 241
SWIDTH 611 0
DWIDTH 44 0
BBX 33 50 6 0
BITMAP
00FC007000
01FF00F000
03FFE0E000
07FFFFE000
07FFFFE000
0707FFC000
0E00FF8000
0E003F0000
0000000000
0000000000
0000000000
0000000000
0001FF0000
FE0FFFC000
FE1FFFF000
FE7FFFF800
FEFFFFFC00
FEFFFFFE00
FFF803FE00
FFF001FF00
FFE000FF00
FFC0007F00
FF80007F00
FF80007F80
FF00007F80
FF00003F80
FF00003F80
FE00003F80
FE00003F80
FE00003F80
FE00003F80
FE00003F80
FE00003F80
FE00003F80
FE00003F80
FE00003F80
FE00003F80
FE00003F80
FE00003F80
FE00003F80
FE00003F80
FE00003F80
FE00003F80
FE00003F80
FE00003F80
FE00003F80
FE00003F80
FE00003F80
FE00003F80
FE00003F80
ENDCHAR
STARTCHAR ograve
ENCODING 242
SWIDTH 611 0
DWIDTH 44 0
BBX 37 53 3 -1
BITMAP
003FC00000
001FE00000
000FE00000
0007F00000
0003F80000
0001F80000
0000FC0000
00007C0000
00003E0000
00001F0000
0000000000
0000000000
0000000000
0000000000
0003FE0000
001FFFC000
007FFFF000
01FFFFFC00
03FFFFFE00
07FFDFFF00
0FFC01FF80
1FF0007FC0
1FE0003FC0
3FC0001FE0
3FC0000FE0
7F80000FF0
7F000007F0
7F000007F0
FF000007F8
FE000003F8
FE000003F8
FE000003F8
FE000003F8
FE000003F8
FE000003F8
FE000003F8
FE000003F8
FE000003F8
7F000007F8
7F000007F0
7F000007F0
3F80000FF0
3F80000FE0
3FC0001FE0
1FE0003FC0
0FF0007F80
0FFC01FF80
07FFDFFF00
03FFFFFE00
00FFFFFC00
007FFFF000
001FFFC000
0003FE0000
ENDCHAR
STARTCHAR oacute
ENCODING 243
SWIDTH 611 0
DWIDTH 44 0
BBX 37 53 3 -1
BITMAP
000007F800
00000FF000
00001FE000
00001FC000
00003F8000
00003F0000
00007E0000
0000FC0000
0000F80000
0001F00000
0000000000
0000000000
0000000000
0000000000
0003FE0000
001FFFC000
007FFFF000
01FFFFFC00
03FFFFFE00
07FFDFFF00
0FFC01FF80
1FF0007FC0
1FE0003FC0
3FC0001FE0
3FC0000FE0
7F80000FF0
7F000007F0
7F000007F0
FF000007F8
FE000003F8
FE000003F8
FE000003F8
FE000003F8
FE000003F8
FE000003F8
FE000003F8
FE000003F8
FE000003F8
7F000007F8
7F000007F0
7F000007F0
3F80000FF0
3F80000FE0
3FC0001FE0
1FE0003FC0
0FF0007F80
0FFC01FF80
07FFDFFF00
03FFFFFE00
00FFFFFC00
007FFFF000
001FFFC000
0003FE0000
ENDCHAR
STARTCHAR ocircumflex
ENCODING 244
SWIDTH 611 0
DWIDTH 44 0
BBX 37 53 3 -1
BITMAP
0000FE0000
0001FF0000
0003FF8000
0003EF8000
0007EFC000
000FC7E000
001F83F000
001F83F000
003F01F800
007E00FC00
0000000000
0000000000
0000000000
0000000000
0003FE0000
001FFFC000
007FFFF000
01FFFFFC00
03FFFFFE00
07FFDFFF00
0FFC01FF80
1FF0007FC0
1FE0003FC0
3FC0001FE0
3FC0000FE0
7F80000FF0
7F000007F0
7F000007F0
FF000007F8
FE000003F8
FE000003F8
FE000003F8
FE000003F8
FE000003F8
FE000003F8
FE000003F8
FE000003F8
FE000003F8
7F000007F8
7F000007F0
7F000007F0
3F80000FF0
3F80000FE0
3FC0001FE0
1FE0003FC0
0FF0007F80
0FFC01FF80
07FFDFFF00
03FFFFFE00
00FFFFFC00
007FFFF000
001FFFC000
0003FE0000
ENDCHAR
STARTCHAR otilde
ENCODING 245
SWIDTH 611 0
DWIDTH 44 0
BBX 37 51 3 -1
BITMAP
001F800E00
003FE01E00
007FFC1C00
00FFFFFC00
00FFFFFC00
00E0FFF800
01C01FF000
01C007E000
0000000000
0000000000
0000000000
0000000000
0003FE0000
001FFFC000
007FFFF000
01FFFFFC00
03FFFFFE00
07FFDFFF00
0FFC01FF80
1FF0007FC0
1FE0003FC0
3FC0001FE0
3FC0000FE0
7F80000FF0
7F000007F0
7F000007F0
FF000007F8
FE000003F8
FE000003F8
FE000003F8
FE000003F8
FE000003F8
FE000003F8
FE000003F8
FE000003F8
FE000003F8
7F000007F8
7F000007F0
7F000007F0
3F80000FF0
3F80000FE0
3FC0001FE0
1FE0003FC0
0FF0007F80
0FFC01FF80
07FFDFFF00
03FFFFFE00
00FFFFFC00
007FFFF000
001FFFC000
0003FE0000
ENDCHAR
STARTCHAR odieresis
ENCODING 246
SWIDTH 611 0
DWIDTH 44 0
BBX 37 51 3 -1
BITMAP
003F83F800
003F83F800
003F83F800
003F83F800
003F83F800
003F83F800
003F83F800
0000000000
0000000000
0000000000
0000000000
0000000000
0003FE0000
001FFFC000
007FFFF000
01FFFFFC00
03FFFFFE00
07FFDFFF00
0FFC01FF80
1FF0007FC0
1FE0003FC0
3FC0001FE0
3FC0000FE0
7F80000FF0
7F000007F0
7F000007F0
FF000007F8
FE000003F8
FE000003F8
FE000003F8
FE000003F8
FE000003F8
FE000003F8
FE000003F8
FE000003F8
FE000003F8
7F000007F8
7F000007F0
7F000007F0
3F80000FF0
3F80000FE0
3FC0001FE0
1FE0003FC0
0FF0007F80
0FFC01FF80
07FFDFFF00
03FFFFFE00
00FFFFFC00
007FFFF000
001FFFC000
0003FE0000
ENDCHAR
STARTCHAR divide
ENCODING 247
SWIDTH 600 0
DWIDTH 43 0
BBX 37 40 3 -2
BITMAP
0000F80000
0001FC0000
0003FE0000
0007FF0000
0007FF0000
0007FF0000
0007FF0000
0007FF0000
0003FE0000
0001FC0000
0000F80000
0000000000
0000000000
0000000000
0000000000
0000000000
0000000000
FFFFFFFFF8
FFFFFFFFF8
FFFFFFFFF8
FFFFFFFFF8
FFFFFFFFF8
FFFFFFFFF8
0000000000
0000000000
0000000000
0000000000
0000000000
0000000000
0000F80000
0001FC0000
0003FE0000
0007FF0000
0007FF0000
0007FF0000
0007FF0000
0007FF0000
0003FE0000
0001FC0000
0000F80000
ENDCHAR
STARTCHAR oslash
ENCODING 248
SWIDTH 611 0
DWIDTH 44 0
BBX 37 41 3 -2
BITMAP
0000000040
0003FE00F0
001FFFC1E0
007FFFF3C0
01FFFFFF80
03FFFFFF00
07FFDFFF00
0FFC01FF80
1FF0007FC0
1FE0007FC0
3FC000FFE0
3FC000FFE0
7F8001EFF0
7F0003CFF0
7F000787F0
FF000F87F8
FE000F03F8
FE001E03F8
FE003C03F8
FE007803F8
FE00F003F8
FE00F003F8
FE01E003F8
FE03C003F8
FF078003F8
7F0F0003F8
7F1F0007F0
7F9E0007F0
3FBC000FF0
3FF8000FE0
3FF0001FE0
1FF0003FC0
0FF0007F80
07FC01FF80
07FFDFFF00
0FFFFFFE00
0EFFFFFC00
1E7FFFF000
3C1FFFC000
7803FE0000
3000000000
ENDCHAR
STARTCHAR ugrave
ENCODING 249
SWIDTH 611 0
DWIDTH 44 0
BBX 33 53 5 -1
BITMAP
00FF000000
007F800000
003F800000
001FC00000
000FE00000
0007E00000
0003F00000
0001F00000
0000F80000
00007C0000
0000000000
0000000000
0000000000
0000000000
0000000000
FE00003F80
FE00003F80
FE00003F80
FE00003F80
FE00003F80
FE00003F80
FE00003F80
FE00003F80
FE00003F80
FE00003F80
FE00003F80
FE00003F80
FE00003F80
FE00003F80
FE00003F80
FE00003F80
FE00003F80
FE00003F80
FE00003F80
FE00003F80
FE00003F80
FE00003F80
FE00003F80
FE00007F80
FE00007F80
FE00007F80
FF0000FF80
7F0000FF80
7F0001FF80
7F8003FF80
7FC007FF80
3FE00FFF80
3FFFFFBF80
1FFFFFBF80
0FFFFF3F80
07FFFC3F80
01FFF83F80
007FC00000
ENDCHAR
STARTCHAR uacute
ENCODING 250
SWIDTH 611 0
DWIDTH 44 0
BBX 33 53 5 -1
BITMAP
00001FE000
00003FC000
00007F8000
00007F0000
0000FE0000
0000FC0000
0001F80000
0003F00000
0003E00000
0007C00000
0000000000
0000000000
0000000000
0000000000
0000000000
FE00003F80
FE00003F80
FE00003F80
FE00003F80
FE00003F80
FE00003F80
FE00003F80
FE00003F80
FE00003F80
FE00003F80
FE00003F80
FE00003F80
FE00003F80
FE00003F80
FE00003F80
FE00003F80
FE00003F80
FE00003F80
FE00003F80
FE00003F80
FE00003F80
FE00003F80
FE00003F80
FE00007F80
FE00007F80
FE00007F80
FF0000FF80
7F0000FF80
7F0001FF80
7F8003FF80
7FC007FF80
3FE00FFF80
3FFFFFBF80
1FFFFFBF80
0FFFFF3F80
07FFFC3F80
01FFF83F80
007FC00000
ENDCHAR
STARTCHAR ucircumflex
ENCODING 251
SWIDTH 611 0
DWIDTH 44 0
BBX 33 53 5 -1
BITMAP
0003F80000
0007FC0000
000FFE0000
000FBE0000
001FBF0000
003F1F8000
007E0FC000
007E0FC000
00FC07E000
01F803F000
0000000000
0000000000
0000000000
0000000000
0000000000
FE00003F80
FE00003F80
FE00003F80
FE00003F80
FE00003F80
FE00003F80
FE00003F80
FE00003F80
FE00003F80
FE00003F80
FE00003F80
FE00003F80
FE00003F80
FE00003F80
FE00003F80
FE00003F80
FE00003F80
FE00003F80
FE00003F80
FE00003F80
FE00003F80
FE00003F80
FE00003F80
FE00007F80
FE00007F80
FE00007F80
FF0000FF80
7F0000FF80
7F0001FF80
7F8003FF80
7FC007FF80
3FE00FFF80
3FFFFFBF80
1FFFFFBF80
0FFFFF3F80
07FFFC3F80
01FFF83F80
007FC00000
ENDCHAR
STARTCHAR udieresis
ENCODING 252
SWIDTH 611 0
DWIDTH 44 0
BBX 33 51 5 -1
BITMAP
00FE0FE000
00FE0FE000
00FE0FE000
00FE0FE000
00FE0FE000
00FE0FE000
00FE0FE000
0000000000
0000000000
0000000000
0000000000
0000000000
0000000000
FE00003F80
FE00003F80
FE00003F80
FE00003F80
FE00003F80
FE00003F80
FE00003F80
FE00003F80
FE00003F80
FE00003F80
FE00003F80
FE00003F80
FE00003F80
FE00003F80
FE00003F80
FE00003F80
FE00003F80
FE00003F80
FE00003F80
FE00003F80
FE00003F80
FE00003F80
FE00003F80
FE00007F80
FE00007F80
FE00007F80
FF0000FF80
7F0000FF80
7F0001FF80
7F8003FF80
7FC007FF80
3FE00FFF80
3FFFFFBF80
1FFFFFBF80
0FFFFF3F80
07FFFC3F80
01FFF83F80
007FC00000
ENDCHAR
STARTCHAR yacute
ENCODING 253
SWIDTH 500 0
DWIDTH 36 0
BBX 35 68 0 -16
BITMAP
00000FF000
00001FE000
00003FC000
00003F8000
00007F0000
00007E0000
0000FC0000
0001F80000
0001F00000
0003E00000
0000000000
0000000000
0000000000
0000000000
0000000000
FE00001FE0
7F00001FC0
7F00001FC0
3F00003F80
3F80003F80
3F80003F80
1F80007F00
1FC0007F00
1FC0007F00
0FC000FE00
0FE000FE00
0FE000FC00
07E001FC00
07F001FC00
07F001F800
03F003F800
03F803F800
01F803F000
01F803F000
01FC07F000
00FC07E000
00FC07E000
00FE0FC000
007E0FC000
007E0FC000
007F1F8000
003F1F8000
003F1F8000
001FBF0000
001FBF0000
001FBF0000
000FFE0000
000FFE0000
000FFE0000
0007FC0000
0007FC0000
0007F80000
0003F80000
0003F80000
0003F00000
0007F00000
0007F00000
0007E00000
000FE00000
001FC00000
003FC00000
007F800000
1FFF800000
1FFF000000
1FFE000000
3FFC000000
3FF8000000
3FC0000000
ENDCHAR
STARTCHAR thorn
ENCODING 254
SWIDTH 611 0
DWIDTH 44 0
BBX 35 69 6 -15
BITMAP
FE00000000
FE00000000
FE00000000
FE00000000
FE00000000
FE00000000
FE00000000
FE00000000
FE00000000
FE00000000
FE00000000
FE00000000
FE00000000
FE00000000
FE00000000
FE00000000
FE01FE0000
FE0FFFC000
FE3FFFF000
FE7FFFF800
FEFFFFFC00
FFFFBFFE00
FFF803FE00
FFF001FF00
FFE000FF80
FFC0007F80
FF80003F80
FF80003FC0
FF00001FC0
FF00001FC0
FF00001FC0
FE00001FE0
FE00000FE0
FE00000FE0
FE00000FE0
FE00000FE0
FE00000FE0
FE00000FE0
FE00001FE0
FE00001FC0
FF00001FC0
FF00001FC0
FF00003FC0
FF80003F80
FF80003F80
FFC0007F80
FFE000FF00
FFF001FF00
FFF803FE00
FFFFBFFE00
FEFFFFFC00
FE7FFFF800
FE3FFFE000
FE0FFFC000
FE03FE0000
FE00000000
FE00000000
FE00000000
FE00000000
FE00000000
FE00000000
FE00000000
FE00000000
FE00000000
FE00000000
FE00000000
FE00000000
FE00000000
FE00000000
ENDCHAR
STARTCHAR ydieresis
ENCODING 255
SWIDTH 500 0
DWIDTH 36 0
BBX 35 66 0 -16
BITMAP
007F07F000
007F07F000
007F07F000
007F07F000
007F07F000
007F07F000
007F07F000
0000000000
0000000000
0000000000
0000000000
0000000000
0000000000
FE00001FE0
7F00001FC0
7F00001FC0
3F00003F80
3F80003F80
3F80003F80
1F80007F00
1FC0007F00
1FC0007F00
0FC000FE00
0FE000FE00
0FE000FC00
07E001FC00
07F001FC00
07F001F800
03F003F800
03F803F800
01F803F000
01F803F000
01FC07F000
00FC07E000
00FC07E000
00FE0FC000
007E0FC000
007E0FC000
007F1F8000
003F1F8000
003F1F8000
001FBF0000
001FBF0000
001FBF0000
000FFE0000
000FFE0000
000FFE0000
0007FC0000
0007FC0000
0007F80000
0003F80000
0003F80000
0003F00000
0007F00000
0007F00000
0007E00000
000FE00000
001FC00000
003FC00000
007F800000
1FFF800000
1FFF000000
1FFE000000
3FFC000000
3FF8000000
3FC0000000
ENDCHAR
STARTCHAR .notdef
ENCODING -1
SWIDTH 500 0
DWIDTH 36 0
BBX 28 37 4 0
BITMAP
FFFFFFF0
80000010
80000010
80000010
80000010
80000010
80000010
80000010
80000010
80000010
80000010
80000010
80000010
80000010
80000010
80000010
80000010
80000010
80000010
80000010
80000010
80000010
80000010
80000010
80000010
80000010
80000010
80000010
80000010
80000010
80000010
80000010
80000010
80000010
80000010
80000010
FFFFFFF0
ENDCHAR
STARTCHAR quoteright
ENCODING -1
SWIDTH 278 0
DWIDTH 20 0
BBX 12 18 4 32
BITMAP
0FF0
0FF0
1FE0
1FE0
1FC0
1FC0
3FC0
3F80
3F80
3F80
7F00
7F00
7F00
7E00
FE00
FE00
FC00
FC00
ENDCHAR
STARTCHAR quoteleft
ENCODING -1
SWIDTH 278 0
DWIDTH 20 0
BBX 12 18 4 32
BITMAP
03F0
07F0
07F0
07F0
0FE0
0FE0
0FE0
1FE0
1FC0
1FC0
3FC0
3FC0
3F80
7F80
7F80
7F80
FF00
FF00
ENDCHAR
STARTCHAR fraction.dup2
ENCODING -1
SWIDTH 167 0
DWIDTH 12 0
BBX 36 54 -12 -2
BITMAP
00000001F0
00000003E0
00000003E0
00000007C0
0000000FC0
0000000F80
0000001F00
0000001F00
0000003E00
0000003E00
0000007C00
000000FC00
000000F800
000001F000
000001F000
000003E000
000003E000
000007C000
00000FC000
00000F8000
00001F0000
00001F0000
00003E0000
00007E0000
00007C0000
0000FC0000
0000F80000
0001F00000
0001F00000
0003E00000
0007E00000
0007C00000
000FC00000
000F800000
001F000000
001F000000
003E000000
007E000000
007C000000
00FC000000
00F8000000
01F0000000
01F0000000
03E0000000
07E0000000
07C0000000
0FC0000000
0F80000000
1F00000000
1F00000000
3E00000000
7E00000000
7C00000000
F800000000
ENDCHAR
STARTCHAR florin
ENCODING -1
SWIDTH 556 0
DWIDTH 40 0
BBX 36 67 2 -16
BITMAP
0000003FE0
000000FFF0
000001FFE0
000003FFE0
000007FFE0
00000FFFE0
00000FF000
00001FE000
00001FC000
00003FC000
00003F8000
00003F8000
00003F8000
00007F8000
00007F0000
00007F0000
00007F0000
00007F0000
00007F0000
0000FE0000
0000FE0000
00FFFFFF00
00FFFFFF00
00FFFFFF00
01FFFFFE00
01FFFFFE00
0001FC0000
0001FC0000
0001FC0000
0003F80000
0003F80000
0003F80000
0003F80000
0003F80000
0003F00000
0007F00000
0007F00000
0007F00000
0007F00000
0007F00000
000FE00000
000FE00000
000FE00000
000FE00000
000FE00000
001FC00000
001FC00000
001FC00000
001FC00000
001FC00000
001F800000
003F800000
003F800000
003F800000
003F800000
003F000000
007F000000
007F000000
00FF000000
00FE000000
03FE000000
7FFC000000
7FFC000000
7FF8000000
7FF0000000
7FE0000000
FF00000000
ENDCHAR
STARTCHAR quotedblleft
ENCODING -1
SWIDTH 556 0
DWIDTH 40 0
BBX 26 18 7 32
BITMAP
03F00FC0
07F01FC0
07F01FC0
07E01FC0
0FE03F80
0FE03F80
0FE03F80
1FC07F80
1FC07F00
1FC07F00
3FC0FF00
3FC0FF00
3F80FE00
7F81FE00
7F81FE00
7F81FE00
FF03FC00
FF03FC00
ENDCHAR
STARTCHAR guilsinglleft
ENCODING -1
SWIDTH 278 0
DWIDTH 20 0
BBX 17 29 1 5
BITMAP
003F80
007F00
00FE00
00FC00
01FC00
03F800
03F000
07F000
0FE000
0FC000
1FC000
3F8000
7F0000
7F0000
FE0000
7F0000
7F0000
3F8000
1FC000
0FC000
0FE000
07F000
03F000
03F800
01FC00
00FC00
00FE00
007F00
003F80
ENDCHAR
STARTCHAR guilsinglright
ENCODING -1
SWIDTH 278 0
DWIDTH 20 0
BBX 17 29 2 5
BITMAP
FE0000
7F0000
3F8000
1F8000
1FC000
0FE000
07E000
07F000
03F800
01F800
01FC00
00FE00
007F00
007F00
003F80
007F00
007F00
00FE00
01FC00
01F800
03F800
07F000
07E000
0FE000
1FC000
1F8000
3F8000
7F0000
FE0000
ENDCHAR
STARTCHAR fi
ENCODING -1
SWIDTH 667 0
DWIDTH 48 0
BBX 41 55 1 0
BITMAP
00007FC00000
0003FFC00000
0007FFC03F80
000FFFC03F80
001FFFC03F80
003FFDC03F80
003FC0003F80
003F80003F80
003F80003F80
007F00003F80
007F00000000
007F00000000
007F00000000
007F00000000
007F00000000
007F00000000
007F00000000
007F00000000
FFFFFFC03F80
FFFFFFC03F80
FFFFFFC03F80
FFFFFFC03F80
FFFFFFC03F80
007F00003F80
007F00003F80
007F00003F80
007F00003F80
007F00003F80
007F00003F80
007F00003F80
007F00003F80
007F00003F80
007F00003F80
007F00003F80
007F00003F80
007F00003F80
007F00003F80
007F00003F80
007F00003F80
007F00003F80
007F00003F80
007F00003F80
007F00003F80
007F00003F80
007F00003F80
007F00003F80
007F00003F80
007F00003F80
007F00003F80
007F00003F80
007F00003F80
007F00003F80
007F00003F80
007F00003F80
007F00003F80
ENDCHAR
STARTCHAR fl
ENCODING -1
SWIDTH 667 0
DWIDTH 48 0
BBX 41 55 1 0
BITMAP
00007FC00000
0003FFC03F80
0007FFC03F80
000FFFC03F80
001FFFC03F80
003FFDC03F80
003FC0003F80
003F80003F80
003F80003F80
007F00003F80
007F00003F80
007F00003F80
007F00003F80
007F00003F80
007F00003F80
007F00003F80
007F00003F80
007F00003F80
FFFFFFC03F80
FFFFFFC03F80
FFFFFFC03F80
FFFFFFC03F80
FFFFFFC03F80
007F00003F80
007F00003F80
007F00003F80
007F00003F80
007F00003F80
007F00003F80
007F00003F80
007F00003F80
007F00003F80
007F00003F80
007F00003F80
007F00003F80
007F00003F80
007F00003F80
007F00003F80
007F00003F80
007F00003F80
007F00003F80
007F00003F80
007F00003F80
007F00003F80
007F00003F80
007F00003F80
007F00003F80
007F00003F80
007F00003F80
007F00003F80
007F00003F80
007F00003F80
007F00003F80
007F00003F80
007F00003F80
ENDCHAR
STARTCHAR endash
ENCODING -1
SWIDTH 500 0
DWIDTH 36 0
BBX 36 5 0 17
BITMAP
FFFFFFFFF0
FFFFFFFFF0
FFFFFFFFF0
FFFFFFFFF0
FFFFFFFFF0
ENDCHAR
STARTCHAR dagger
ENCODING -1
SWIDTH 556 0
DWIDTH 40 0
BBX 30 50 5 0
BITMAP
000FC000
000FC000
000FC000
000FC000
000FC000
000FC000
000FC000
000FC000
000FC000
000FC000
000FC000
000FC000
FFFFFFFC
FFFFFFFC
FFFFFFFC
FFFFFFFC
FFFFFFFC
000FC000
000FC000
000FC000
000FC000
000FC000
000FC000
000FC000
000FC000
000FC000
000FC000
000FC000
000FC000
000FC000
000FC000
000FC000
000FC000
000FC000
000FC000
000FC000
000FC000
000FC000
000FC000
000FC000
000FC000
000FC000
000FC000
000FC000
000FC000
000FC000
000FC000
000FC000
000FC000
000FC000
ENDCHAR
STARTCHAR daggerdbl
ENCODING -1
SWIDTH 556 0
DWIDTH 40 0
BBX 30 50 5 0
BITMAP
000FC000
000FC000
000FC000
000FC000
000FC000
000FC000
000FC000
000FC000
000FC000
000FC000
000FC000
000FC000
FFFFFFFC
FFFFFFFC
FFFFFFFC
FFFFFFFC
FFFFFFFC
000FC000
000FC000
000FC000
000FC000
000FC000
000FC000
000FC000
000FC000
000FC000
000FC000
000FC000
000FC000
000FC000
000FC000
000FC000
000FC000
FFFFFFFC
FFFFFFFC
FFFFFFFC
FFFFFFFC
FFFFFFFC
000FC000
000FC000
000FC000
000FC000
000FC000
000FC000
000FC000
000FC000
000FC000
000FC000
000FC000
000FC000
ENDCHAR
STARTCHAR bullet
ENCODING -1
SWIDTH 500 0
DWIDTH 36 0
BBX 25 25 5 13
BITMAP
007F0000
03FFC000
07FFF000
0FFFF800
1FFFFC00
3FFFFE00
7FFFFF00
7FFFFF00
7FFFFF00
FFFFFF80
FFFFFF80
FFFFFF80
FFFFFF80
FFFFFF80
FFFFFF80
FFFFFF80
7FFFFF00
7FFFFF00
7FFFFF00
3FFFFE00
1FFFFC00
0FFFF800
07FFF000
03FFC000
007F0000
ENDCHAR
STARTCHAR quotesinglbase
ENCODING -1
SWIDTH 278 0
DWIDTH 20 0
BBX 13 18 3 -10
BITMAP
07F8
07F0
0FF0
0FF0
0FE0
0FE0
1FE0
1FC0
1FC0
1FC0
3F80
3F80
3F80
3F00
7F00
7F00
7E00
FE00
ENDCHAR
STARTCHAR quotedblbase
ENCODING -1
SWIDTH 556 0
DWIDTH 40 0
BBX 27 18 6 -10
BITMAP
07F81FE0
07F03FC0
0FF03FC0
0FF03F80
0FE03F80
0FE07F80
1FE07F00
1FC07F00
1FC07F00
1FC0FE00
3F80FE00
3F80FE00
3F80FC00
3F01FC00
7F01FC00
7F01F800
7E01F800
FE03F800
ENDCHAR
STARTCHAR quotedblright
ENCODING -1
SWIDTH 556 0
DWIDTH 40 0
BBX 27 18 6 32
BITMAP
07F81FE0
07F01FC0
0FF03FC0
0FF03FC0
0FE03F80
0FE03F80
1FE07F80
1FC07F00
1FC07F00
1FC07F00
3F80FE00
3F80FE00
3F80FE00
3F00FC00
7F01FC00
7F01FC00
7E01F800
FE03F800
ENDCHAR
STARTCHAR ellipsis
ENCODING -1
SWIDTH 1000 0
DWIDTH 72 0
BBX 56 8 8 0
BITMAP
FF0000FF0000FF
FF0000FF0000FF
FF0000FF0000FF
FF0000FF0000FF
FF0000FF0000FF
FF0000FF0000FF
FF0000FF0000FF
FF0000FF0000FF
ENDCHAR
STARTCHAR perthousand
ENCODING -1
SWIDTH 1000 0
DWIDTH 72 0
BBX 71 54 0 -2
BITMAP
0000000007C0000000
01FC00000FC0000000
07FF00000F80000000
1FFF80001F00000000
1FFFC0001F00000000
3FFFE0003E00000000
7F8FF0007E00000000
7F03F0007C00000000
7E03F000F800000000
7E01F000F800000000
FC01F801F000000000
FC01F801F000000000
FC01F803E000000000
FC01F807E000000000
FC01F807C000000000
FC01F80F8000000000
FC01F80F8000000000
FC01F81F0000000000
FC01F83F0000000000
FC01F83E0000000000
FC01F87E0000000000
7E03F07C0000000000
7E03F0F80000000000
7F07F0F80000000000
3F8FE1F07F00007F00
3FFFE3F1FFC001FFC0
1FFFC3E7FFE007FFE0
0FFF87E7FFF007FFF0
07FF07CFFFF80FFFF8
01FC0F9FE3FC1FE3FC
00000F9FC0FC1FC0FC
00001F1F80FC1F80FC
00003F1F807C1F807C
00003E3F007E3F007E
00007C3F007E3F007E
00007C3F007E3F007E
0000F83F007E3F007E
0000F83F007E3F007E
0001F03F007E3F007E
0003F03F007E3F007E
0003E03F007E3F007E
0007C03F007E3F007E
0007C03F007E3F007E
000F803F007E3F007E
001F801F80FC1F80FC
001F001F80FC1F80FC
003F001FC1FC1FC1FC
003E000FE3F80FE3F8
007C000FFFF80FFFF8
007C0007FFF007FFF0
00F80003FFE003FFE0
01F80001FFC001FFC0
01F000007F00007F00
03E000000000000000
ENDCHAR
STARTCHAR circumflex
ENCODING -1
SWIDTH 278 0
DWIDTH 20 0
BBX 21 10 0 42
BITMAP
01FC00
03FE00
07FF00
07DF00
0FDF80
1F8FC0
3F07E0
3F07E0
7E03F0
FC01F8
ENDCHAR
STARTCHAR tilde
ENCODING -1
SWIDTH 278 0
DWIDTH 20 0
BBX 24 8 -2 42
BITMAP
0FC007
1FF00F
3FFE0E
7FFFFE
7FFFFE
707FFC
E00FF8
E003F0
ENDCHAR
STARTCHAR breve
ENCODING -1
SWIDTH 278 0
DWIDTH 20 0
BBX 22 10 -1 42
BITMAP
F0003C
F0003C
F8007C
780078
7C00F8
3F83F0
3FFFF0
0FFFC0
07FF80
01FE00
ENDCHAR
STARTCHAR dotaccent
ENCODING -1
SWIDTH 278 0
DWIDTH 20 0
BBX 7 7 7 43
BITMAP
FE
FE
FE
FE
FE
FE
FE
ENDCHAR
STARTCHAR ring
ENCODING -1
SWIDTH 278 0
DWIDTH 20 0
BBX 15 15 3 40
BITMAP
07C0
1FF0
3FF8
783C
701C
E00E
E00E
E00E
E00E
E00E
701C
783C
3FF8
1FF0
07C0
ENDCHAR
STARTCHAR hungarumlaut
ENCODING -1
SWIDTH 278 0
DWIDTH 20 0
BBX 27 10 -1 42
BITMAP
03FC1FE0
07F83FC0
0FF07F80
0FE07F00
1FC0FE00
3F81FC00
3F01F800
7E03F000
7C03E000
F807C000
ENDCHAR
STARTCHAR ogonek
ENCODING -1
SWIDTH 278 0
DWIDTH 20 0
BBX 14 15 5 -15
BITMAP
01F0
03C0
0F80
1F00
3E00
7C00
7C00
FC00
F800
F800
FC1C
FC38
7FF8
7FE0
1F80
ENDCHAR
STARTCHAR caron
ENCODING -1
SWIDTH 278 0
DWIDTH 20 0
BBX 21 10 0 42
BITMAP
FC01F8
7E03F0
3F07E0
3F07E0
1F8FC0
0FDF80
07DF00
07FF00
03FE00
01FC00
ENDCHAR
STARTCHAR emdash
ENCODING -1
SWIDTH 1000 0
DWIDTH 72 0
BBX 72 5 0 17
BITMAP
FFFFFFFFFFFFFFFFFF
FFFFFFFFFFFFFFFFFF
FFFFFFFFFFFFFFFFFF
FFFFFFFFFFFFFFFFFF
FFFFFFFFFFFFFFFFFF
ENDCHAR
STARTCHAR OE
ENCODING -1
SWIDTH 944 0
DWIDTH 68 0
BBX 60 51 4 0
BITMAP
000003FF80000000
00003FFFFFFFFFF0
0001FFFFFFFFFFF0
0007FFFFFFFFFFF0
001FFFFFFFFFFFF0
003FFFFFFFFFFFF0
00FFFF83FFFFFFF0
01FFE000FE000000
03FF8000FE000000
07FE0000FE000000
07F80000FE000000
0FF00000FE000000
1FE00000FE000000
1FE00000FE000000
3FC00000FE000000
3F800000FE000000
3F800000FE000000
7F800000FE000000
7F000000FE000000
7F000000FE000000
7F000000FE000000
FF000000FE000000
FE000000FFFFFFC0
FE000000FFFFFFC0
FE000000FFFFFFC0
FE000000FFFFFFC0
FE000000FFFFFFC0
FE000000FFFFFFC0
FF000000FE000000
7F000000FE000000
7F000000FE000000
7F000000FE000000
7F000000FE000000
7F800000FE000000
3F800000FE000000
3FC00000FE000000
1FC00000FE000000
1FE00000FE000000
0FF00000FE000000
0FF80000FE000000
07FC0000FE000000
03FF0000FE000000
03FF8000FE000000
01FFF000FE000000
00FFFFC3FE000000
003FFFFFFFFFFFF0
001FFFFFFFFFFFF0
0007FFFFFFFFFFF0
0001FFFFFFFFFFF0
00003FFFFFFFFFF0
000003FFFFFFFFF0
ENDCHAR
STARTCHAR dotlessi
ENCODING -1
SWIDTH 278 0
DWIDTH 20 0
BBX 7 37 7 0
BITMAP
FE
FE
FE
FE
FE
FE
FE
FE
FE
FE
FE
FE
FE
FE
FE
FE
FE
FE
FE
FE
FE
FE
FE
FE
FE
FE
FE
FE
FE
FE
FE
FE
FE
FE
FE
FE
FE
ENDCHAR
STARTCHAR oe
ENCODING -1
SWIDTH 944 0
DWIDTH 68 0
BBX 62 39 3 -1
BITMAP
0003FE00007FC000
001FFFC003FFF800
007FFFF007FFFC00
01FFFFFC1FFFFF00
03FFFFFE3FFFFF80
07FFFFFE3FFBFFC0
0FF803FF7F807FC0
1FF000FFFF001FE0
1FE0007FFE000FE0
3FC0003FFC0007F0
3F80001FF80007F0
7F80001FF80003F0
7F00000FF00003F8
7F00000FF00003F8
FE00000FF00003F8
FE000007F00001F8
FE000007FFFFFFF8
FE000007FFFFFFF8
FE000007FFFFFFF8
FE000007FFFFFFFC
FE000007FFFFFFFC
FE000007F0000000
FE000007F0000000
FE000007F0000000
FE00000FF0000000
FE00000FF8000000
7F00000FF8000000
7F00001FFC000000
7F80003FFC000000
3F80003FFE000000
3FC0007FFF000040
1FE000FF7F8001C0
0FF803FF7FE007C0
07FFFFFE3FFEFFC0
03FFFFFC1FFFFFC0
01FFFFF80FFFFFC0
00FFFFE007FFFFC0
003FFFC001FFFE00
0007FC00003FF000
ENDCHAR
STARTCHAR trademark
ENCODING -1
SWIDTH 990 0
DWIDTH 71 0
BBX 63 30 4 20
BITMAP
FFFFFF01FE0001FE
FFFFFF01FF0003FE
FFFFFF01FF0003FE
FFFFFF01FF8007FE
FFFFFF01FF8007FE
007C0001FF8007FE
007C0001FFC00FFE
007C0001F7C00FFE
007C0001F7E00FBE
007C0001F7E01FBE
007C0001F3E01F3E
007C0001F3F03F3E
007C0001F3F03F3E
007C0001F1F03E3E
007C0001F1F87E3E
007C0001F1F87E3E
007C0001F0FC7C3E
007C0001F0FCFC3E
007C0001F07CFC3E
007C0001F07FF83E
007C0001F07FF83E
007C0001F03FF03E
007C0001F03FF03E
007C0001F03FF03E
007C0001F01FE03E
007C0001F01FE03E
007C0001F00FE03E
007C0001F00FC03E
007C0001F00FC03E
007C0001F007803E
ENDCHAR
STARTCHAR Ydieresis
ENCODING -1
SWIDTH 667 0
DWIDTH 49 0
BBX 47 62 1 0
BITMAP
0003F83F8000
0003F83F8000
0003F83F8000
0003F83F8000
0003F83F8000
0003F83F8000
0003F83F8000
000000000000
000000000000
000000000000
000000000000
000000000000
FF80000003FE
7FC0000007FC
3FC0000007F8
1FE000000FF0
1FF000001FF0
0FF000001FE0
07F800003FC0
07FC00007FC0
03FC00007F80
01FE0000FF00
01FF0001FF00
00FF0001FE00
007F8003FC00
007FC007FC00
003FC007F800
001FE00FF000
001FF01FE000
000FF01FE000
0007F83FC000
0003FC3F8000
0003FC7F8000
0001FEFF0000
0000FFFE0000
0000FFFE0000
00007FFC0000
00003FF80000
00003FF80000
00001FF00000
00000FE00000
00000FE00000
00000FE00000
00000FE00000
00000FE00000
00000FE00000
00000FE00000
00000FE00000
00000FE00000
00000FE00000
00000FE00000
00000FE00000
00000FE00000
00000FE00000
00000FE00000
00000FE00000
00000FE00000
00000FE00000
00000FE00000
00000FE00000
00000FE00000
00000FE00000
ENDCHAR
STARTCHAR Lslash
ENCODING -1
SWIDTH 500 0
DWIDTH 36 0
BBX 33 50 1 0
BITMAP
07F0000000
07F0000000
07F0000000
07F0000000
07F0000000
07F0000000
07F0000000
07F0000000
07F0000000
07F0000000
07F0000000
07F0000000
07F0000000
07F0000000
07F0000000
07F0000000
07F000C000
07F001C000
07F007C000
07F01FC000
07F03FC000
07F0FF8000
07F3FE0000
07FFF80000
07FFF00000
07FFC00000
07FF000000
07FC000000
0FF8000000
3FF0000000
7FF0000000
FFF0000000
FFF0000000
F7F0000000
E7F0000000
87F0000000
07F0000000
07F0000000
07F0000000
07F0000000
07F0000000
07F0000000
07F0000000
07F0000000
07FFFFFF80
07FFFFFF80
07FFFFFF80
07FFFFFF80
07FFFFFF80
07FFFFFF80
ENDCHAR
STARTCHAR lslash
ENCODING -1
SWIDTH 278 0
DWIDTH 20 0
BBX 17 54 2 0
BITMAP
07F000
07F000
07F000
07F000
07F000
07F000
07F000
07F000
07F000
07F000
07F000
07F000
07F000
07F000
07F000
07F080
07F180
07F380
07F780
07FF80
07FF80
07FE00
07FC00
07F800
07F000
0FF000
3FF000
7FF000
FFF000
FFF000
F7F000
E7F000
87F000
07F000
07F000
07F000
07F000
07F000
07F000
07F000
07F000
07F000
07F000
07F000
07F000
07F000
07F000
07F000
07F000
07F000
07F000
07F000
07F000
07F000
ENDCHAR
STARTCHAR minus
ENCODING -1
SWIDTH 600 0
DWIDTH 43 0
BBX 37 6 3 15
BITMAP
FFFFFFFFF8
FFFFFFFFF8
FFFFFFFFF8
FFFFFFFFF8
FFFFFFFFF8
FFFFFFFFF8
ENDCHAR
STARTCHAR Scaron
ENCODING -1
SWIDTH 500 0
DWIDTH 36 0
BBX 29 65 3 -1
BITMAP
07E00FC0
03F01F80
01F83F00
01F83F00
00FC7E00
007EFC00
003EF800
003FF800
001FF000
000FE000
00000000
00000000
00000000
000FFC00
007FFFC0
01FFFFE0
07FFFFE0
0FFFFFE0
1FFFFFE0
3FFE1FE0
3FE000C0
7F800000
7F000000
7F000000
7F000000
FE000000
FE000000
FF000000
FF000000
7F800000
7FC00000
7FE00000
3FF00000
3FFC0000
1FFF0000
0FFFC000
07FFF000
03FFFC00
00FFFE00
003FFF80
000FFF80
0003FFC0
0000FFE0
00003FF0
00001FF0
00000FF0
000007F8
000007F8
000003F8
000003F8
000003F8
000003F8
000003F8
000007F8
000007F0
00000FF0
40001FF0
38007FE0
7FC7FFE0
7FFFFFC0
7FFFFF80
7FFFFF00
7FFFFC00
1FFFF000
01FF8000
ENDCHAR
STARTCHAR scaron
ENCODING -1
SWIDTH 389 0
DWIDTH 28 0
BBX 23 53 2 -1
BITMAP
3F007E
1F80FC
0FC1F8
0FC1F8
07E3F0
03F7E0
01F7C0
01FFC0
00FF80
007F00
000000
000000
000000
000000
007FC0
03FFF8
0FFFF8
1FFFF8
3FFFF8
3FFBF8
7F8018
7F0000
FE0000
FE0000
FE0000
FE0000
FF0000
FF8000
7FC000
7FF000
3FFC00
1FFF00
0FFFC0
07FFE0
01FFF0
007FF8
001FFC
000FFC
0003FE
0001FE
0000FE
0000FE
0000FE
0000FE
0001FE
4001FC
7007FC
FFFFF8
FFFFF8
FFFFF0
FFFFE0
7FFF80
0FFC00
ENDCHAR
STARTCHAR Euro
ENCODING -1
SWIDTH 556 0
DWIDTH 40 0
BBX 41 52 1 -1
BITMAP
0000007FF000
000007FFFF00
00001FFFFF80
00007FFFFF80
0000FFFFFF80
0003FFFFFF00
0007FFC00F00
000FFE000100
000FF8000000
001FF0000000
003FE0000000
007FC0000000
007F80000000
00FF00000000
00FF00000000
00FE00000000
01FE00000000
01FC00000000
01FC00000000
FFFFFFFFF800
FFFFFFFFF800
FFFFFFFFF800
FFFFFFFFF800
03F800000000
03F800000000
03F800000000
03F800000000
03F800000000
03F800000000
FFFFFFFFE000
FFFFFFFFE000
FFFFFFFFE000
FFFFFFFFC000
01FC00000000
01FC00000000
01FE00000000
01FE00000000
00FF00000000
00FF00000000
007F80000000
007FC0000000
003FE0000000
003FF0000000
001FF8000000
000FFE000100
0007FFC01F00
0003FFFFFF00
0001FFFFFF00
00007FFFFF00
00001FFFFF00
000007FFFF00
000000FFF000
ENDCHAR
ENDFONT
